SplineFontDB: 3.2
FontName: Sampradaya
FullName: Sampradaya
FamilyName: Sampradaya
Weight: Regular
Copyright: Copyright 2014-2021 Ambarish Sridharanarayanan.
Version: 0.9
ItalicAngle: 0
UnderlinePosition: -126
UnderlineWidth: 50
Ascent: 819
Descent: 205
InvalidEm: 0
sfntRevision: 0x0000e666
LayerCount: 2
Layer: 0 1 "Back" 1
Layer: 1 1 "Fore" 0
XUID: [1021 268 364675272 1489025]
StyleMap: 0x0040
FSType: 0
OS2Version: 3
OS2_WeightWidthSlopeOnly: 0
OS2_UseTypoMetrics: 1
CreationTime: 1358746353
ModificationTime: 1616372223
PfmFamily: 81
TTFWeight: 400
TTFWidth: 5
LineGap: 0
VLineGap: 0
Panose: 0 0 0 0 0 0 0 0 0 0
OS2TypoAscent: 704
OS2TypoAOffset: 0
OS2TypoDescent: -448
OS2TypoDOffset: 0
OS2TypoLinegap: 0
OS2WinAscent: 1200
OS2WinAOffset: 0
OS2WinDescent: 800
OS2WinDOffset: 0
HheadAscent: 704
HheadAOffset: 0
HheadDescent: -448
HheadDOffset: 0
OS2SubXSize: 102
OS2SubYSize: 102
OS2SubXOff: 0
OS2SubYOff: 143
OS2SupXSize: 102
OS2SupYSize: 102
OS2SupXOff: 0
OS2SupYOff: 143
OS2StrikeYSize: 51
OS2StrikeYPos: 256
OS2Vendor: '    '
Lookup: 4 0 0 "'akhn' Akhanda" { "'akhn' Akhanda subtable"  } ['akhn' ('DFLT' <'dflt' > 'deva' <'dflt' > 'gran' <'dflt' > 'taml' <'dflt' > ) ]
Lookup: 4 0 0 "'blwf' Below Base Forms (second stacked layer)" { "'blwf' Below Base Forms (second stacked layer) subtable"  } ['blwf' ('DFLT' <'dflt' > 'deva' <'dflt' > 'gran' <'dflt' > 'taml' <'dflt' > ) ]
Lookup: 4 0 0 "Ligature Substitution post repha rakara ya" { "Ligature Substitution post repha rakara ya subtable"  } []
Lookup: 6 0 0 "'rphf' Repha Form" { "'rphf' Repha Form (do nothing)"  "'rphf' Repha Form (post repha form)"  } ['rphf' ('DFLT' <'dflt' > 'deva' <'dflt' > 'gran' <'dflt' > 'taml' <'dflt' > ) ]
Lookup: 6 0 0 "'rkrf' Rakara Forms" { "'rkrf' Rakara Forms (do nothing)"  "'rkrf' Rakara Forms (post rakara form)"  } ['rkrf' ('DFLT' <'dflt' > 'deva' <'dflt' > 'gran' <'dflt' > 'taml' <'dflt' > ) ]

StartChar: .notdef
Encoding: 1114112 -1 0
Width: 373
Flags: MW
LayerCount: 2
Fore
SplineSet
34 0 m 1,0,-1
 34 682 l 1,1,-1
 306 682 l 1,2,-1
 306 0 l 1,3,-1
 34 0 l 1,0,-1
68 34 m 1,4,-1
 272 34 l 1,5,-1
 272 648 l 1,6,-1
 68 648 l 1,7,-1
 68 34 l 1,4,-1
EndSplineSet
Validated: 1
EndChar

StartChar: u0951
Encoding: 2385 2385 3
Width: 0
Flags: MW
LayerCount: 2
Fore
SplineSet
-227 667 m 2,0,1
 -227 704 -227 704 -210 704 c 128,-1,2
 -193 704 -193 704 -188 695 c 128,-1,3
 -183 686 -183 686 -183 667 c 2,4,-1
 -183 468 l 2,5,6
 -183 460 -183 460 -189 454.5 c 128,-1,7
 -195 449 -195 449 -203.5 449 c 128,-1,8
 -212 449 -212 449 -219.5 454 c 128,-1,9
 -227 459 -227 459 -227 466 c 2,10,-1
 -227 667 l 2,0,1
EndSplineSet
Position2: "Single Position lookup for accent markers 3-1" dx=0 dy=150 dh=0 dv=0
Position2: "Single Position lookup for accent markers 4-1" dx=0 dy=425 dh=0 dv=0
Position2: "Single Position lookup for accent markers 1-1" dx=0 dy=300 dh=0 dv=0
Substitution2: "Accent marker rearrangement single substitution 1-1" uE487
Substitution2: "Accent marker rearrangement single substitution 4-1" uE48A
Substitution2: "Accent marker rearrangement single substitution 7-1" uE48D
Substitution2: "Accent marker rearrangement single substitution 10-1" uE490
Substitution2: "Accent marker rearrangement single substitution 13-1" uE493
Substitution2: "Accent marker rearrangement single substitution 16-1" uE496
Substitution2: "Accent marker rearrangement single substitution 19-1" uE499
Substitution2: "Accent marker rearrangement single substitution 22-1" uE49C
Substitution2: "Accent marker rearrangement single substitution 25-1" uE49F
Substitution2: "Accent marker rearrangement single substitution 28-1" uE4A2
Substitution2: "Accent marker rearrangement single substitution 31-1" uE4A5
Substitution2: "Accent marker rearrangement single substitution 34-1" uE4A8
Substitution2: "Accent marker rearrangement single substitution 37-1" uE4AB
Substitution2: "Accent marker rearrangement single substitution 40-1" uE4AE
Substitution2: "Accent marker rearrangement single substitution 43-1" uE4B1
Substitution2: "Accent marker rearrangement single substitution 46-1" uE4B4
Substitution2: "Accent marker rearrangement single substitution 49-1" uE4B7
Substitution2: "Accent marker rearrangement single substitution 52-1" uE4BA
EndChar

StartChar: u0952
Encoding: 2386 2386 4
Width: 0
Flags: MW
LayerCount: 2
Fore
SplineSet
-354 -59 m 256,0,1
 -354 -36 -354 -36 -339 -36 c 6,2,-1
 -90 -36 l 6,3,4
 -82 -36 -82 -36 -77.5 -43.5 c 128,-1,5
 -73 -51 -73 -51 -73 -59.5 c 128,-1,6
 -73 -68 -73 -68 -78.5 -75.5 c 128,-1,7
 -84 -83 -84 -83 -92 -83 c 2,8,-1
 -339 -83 l 2,9,10
 -354 -83 -354 -83 -354 -59 c 256,0,1
EndSplineSet
Position2: "Single Position lookup for accent markers 1-1" dx=0 dy=-300 dh=0 dv=0
Position2: "Single Position lookup for accent markers 2-1" dx=0 dy=-615 dh=0 dv=0
Position2: "Single Position lookup for accent markers 3-1" dx=0 dy=-125 dh=0 dv=0
Position2: "Single Position lookup for accent markers 4-1" dx=0 dy=-380 dh=0 dv=0
Substitution2: "Accent marker rearrangement single substitution 2-1" uE488
Substitution2: "Accent marker rearrangement single substitution 5-1" uE48B
Substitution2: "Accent marker rearrangement single substitution 8-1" uE48E
Substitution2: "Accent marker rearrangement single substitution 11-1" uE491
Substitution2: "Accent marker rearrangement single substitution 14-1" uE494
Substitution2: "Accent marker rearrangement single substitution 17-1" uE497
Substitution2: "Accent marker rearrangement single substitution 20-1" uE49A
Substitution2: "Accent marker rearrangement single substitution 23-1" uE49D
Substitution2: "Accent marker rearrangement single substitution 26-1" uE4A0
Substitution2: "Accent marker rearrangement single substitution 29-1" uE4A3
Substitution2: "Accent marker rearrangement single substitution 32-1" uE4A6
Substitution2: "Accent marker rearrangement single substitution 35-1" uE4A9
Substitution2: "Accent marker rearrangement single substitution 38-1" uE4AC
Substitution2: "Accent marker rearrangement single substitution 41-1" uE4AF
Substitution2: "Accent marker rearrangement single substitution 44-1" uE4B2
Substitution2: "Accent marker rearrangement single substitution 47-1" uE4B5
Substitution2: "Accent marker rearrangement single substitution 50-1" uE4B8
Substitution2: "Accent marker rearrangement single substitution 53-1" uE4BB
EndChar

StartChar: u0964
Encoding: 2404 2404 5
Width: 198
Flags: MW
LayerCount: 2
Fore
SplineSet
67 455 m 2,0,1
 67 483 67 483 98 483 c 0,2,3
 108 483 108 483 119.5 476.5 c 128,-1,4
 131 470 131 470 131 455 c 2,5,-1
 131 27 l 2,6,7
 131 14 131 14 120 7 c 128,-1,8
 109 0 109 0 97.5 0 c 128,-1,9
 86 0 86 0 76.5 6.5 c 128,-1,10
 67 13 67 13 67 27 c 2,11,-1
 67 455 l 2,0,1
EndSplineSet
Validated: 1
EndChar

StartChar: u0BE6
Encoding: 3046 3046 7
Width: 408
Flags: MW
LayerCount: 2
Fore
SplineSet
49 243 m 128,-1,1
 69 279 69 279 108 302 c 128,-1,2
 147 325 147 325 196 325 c 132,-1,3
 245 325 245 325 272 314.5 c 128,-1,4
 299 304 299 304 324 284 c 0,5,6
 383 237 383 237 383 165 c 0,7,8
 382 96 382 96 340 52 c 0,9,10
 291 0 291 0 206 0 c 0,11,12
 149 0 149 0 108 25 c 0,13,14
 29 74 29 74 29 165 c 256,15,0
 29 207 29 207 49 243 c 128,-1,1
210 269 m 1,16,17
 176 269 176 269 153.5 259.5 c 0,18,19
 130 250 130 250 116 234 c 0,20,21
 88 203 88 203 88 163.5 c 128,-1,22
 88 124 88 124 117.5 94.5 c 128,-1,23
 147 65 147 65 206.5 65 c 128,-1,24
 266 65 266 65 296 94.5 c 128,-1,25
 326 124 326 124 326 163 c 4,26,27
 326 198 326 198 296 232 c 0,28,29
 264 268 264 268 210 269 c 1,16,17
EndSplineSet
Validated: 1
EndChar

StartChar: u0BE7
Encoding: 3047 3047 8
Width: 490
Flags: MW
LayerCount: 2
Fore
SplineSet
336 284 m 2,0,1
 347 284 347 284 352.5 276.5 c 128,-1,2
 358 269 358 269 358 260 c 0,3,4
 358 252 358 252 356 248 c 0,5,6
 350 240 350 240 322 239 c 1,7,-1
 322 187 l 1,8,-1
 337 187 l 2,9,10
 354 187 354 187 381.5 178 c 128,-1,11
 409 169 409 169 426 156 c 0,12,13
 461 129 461 129 461 86 c 0,14,15
 461 30 461 30 406 8 c 0,16,17
 388 0 388 0 371 0 c 128,-1,18
 354 0 354 0 347.5 7 c 128,-1,19
 341 14 341 14 341 23 c 0,20,21
 341 42 341 42 368 45.5 c 128,-1,22
 395 49 395 49 405 64 c 0,23,24
 415 80 415 80 415 90 c 0,25,26
 415 117 415 117 386 137 c 0,27,28
 368 150 368 150 336 150 c 0,29,30
 330 150 330 150 322 149 c 1,31,-1
 322 75 l 2,32,33
 322 50 322 50 284 22 c 0,34,35
 262 6 262 6 240 2 c 0,36,37
 225 -1 225 -1 214 -1 c 0,38,39
 209 -1 209 -1 204 0 c 1,40,41
 151 0 151 0 117 20 c 0,42,43
 48 60 48 60 48 114 c 0,44,45
 48 148 48 148 86 162 c 0,46,47
 113 172 113 172 156 179 c 1,48,-1
 156 261 l 2,49,50
 156 270 156 270 168 276 c 1,51,52
 174 284 174 284 186 284 c 2,53,-1
 336 284 l 2,0,1
260 150 m 1,54,55
 217 150 217 150 175 141 c 0,56,57
 103 126 103 126 103 118 c 2,58,-1
 103 114 l 2,59,60
 103 78 103 78 143 57 c 0,61,62
 169 43 169 43 199.5 43 c 128,-1,63
 230 43 230 43 245 50.5 c 128,-1,64
 260 58 260 58 260 69 c 2,65,-1
 260 150 l 1,54,55
198 187 m 1,66,-1
 260 188 l 1,67,-1
 260 239 l 1,68,-1
 198 239 l 1,69,-1
 198 187 l 1,66,-1
EndSplineSet
Validated: 1
EndChar

StartChar: u0BE8
Encoding: 3048 3048 9
Width: 489
Flags: MW
LayerCount: 2
Fore
SplineSet
97 118 m 1,0,1
 37 155 37 155 37 214 c 0,2,3
 37 258 37 258 70 284.5 c 0,4,5
 103 312 103 312 150 312 c 0,6,7
 152 312 152 312 153 312 c 0,8,9
 198 312 198 312 225 299 c 0,10,11
 253 286 253 286 268 268.5 c 128,-1,12
 283 251 283 251 283 225 c 0,13,14
 283 154 283 154 227 128 c 2,15,-1
 104 68 l 2,16,17
 86 60 86 60 75 49 c 1,18,-1
 418 49 l 2,19,20
 431 49 431 49 437 41.5 c 128,-1,21
 443 34 443 34 443 25 c 260,22,23
 443 16 443 16 437 8 c 128,-1,24
 431 0 431 0 418 0 c 2,25,-1
 72 0 l 2,26,27
 63 0 63 0 51.5 10 c 152,-1,28
 40 20 40 20 35.5 31 c 128,-1,29
 31 42 31 42 35 56 c 0,30,31
 44 87 44 87 97 118 c 1,0,1
161 256 m 256,32,33
 127 256 127 256 109 243.5 c 128,-1,34
 91 231 91 231 91 213 c 128,-1,35
 91 195 91 195 108 176.5 c 128,-1,36
 125 158 125 158 160 146 c 1,37,38
 195 158 195 158 212 176.5 c 128,-1,39
 229 195 229 195 229 212.5 c 128,-1,40
 229 230 229 230 212 243 c 128,-1,41
 195 256 195 256 161 256 c 256,32,33
EndSplineSet
Validated: 1
EndChar

StartChar: u0BE9
Encoding: 3049 3049 10
Width: 367
Flags: MW
LayerCount: 2
Fore
SplineSet
251 283 m 0,0,1
 251 255 251 255 193 255 c 1,2,-1
 193 188 l 1,3,4
 213 191 213 191 232 191 c 128,-1,5
 251 191 251 191 277 182.5 c 128,-1,6
 303 174 303 174 322 152 c 0,7,8
 348 122 348 122 348 87 c 0,9,10
 348 42 348 42 306 16 c 0,11,12
 280 0 280 0 238 0 c 0,13,14
 226 0 226 0 219 7 c 128,-1,15
 212 14 212 14 212 23 c 128,-1,16
 212 32 212 32 217.5 39 c 128,-1,17
 223 46 223 46 241 46 c 128,-1,18
 259 46 259 46 272 57 c 128,-1,19
 285 68 285 68 288.5 82 c 128,-1,20
 292 96 292 96 287 111 c 0,21,22
 277 142 277 142 242 142 c 2,23,-1
 238 142 l 2,24,25
 219 142 219 142 193 124 c 1,26,-1
 193 93 l 2,27,28
 193 81 193 81 182 75.5 c 128,-1,29
 171 70 171 70 159 70 c 256,30,31
 147 70 147 70 136 75.5 c 128,-1,32
 125 81 125 81 125 93 c 2,33,-1
 125 255 l 1,34,-1
 80 255 l 1,35,-1
 80 33 l 2,36,37
 80 0 80 0 54 0 c 4,38,39
 45 0 45 0 39 11 c 128,-1,40
 33 22 33 22 33 31 c 2,41,-1
 33 282 l 2,42,43
 33 293 33 293 39.5 299 c 128,-1,44
 46 305 46 305 54 305 c 2,45,-1
 193 305 l 2,46,47
 251 305 251 305 251 283 c 0,0,1
EndSplineSet
Validated: 1
EndChar

StartChar: u0BEA
Encoding: 3050 3050 11
Width: 490
Flags: MW
LayerCount: 2
Fore
SplineSet
33 115 m 0,0,1
 33 165 33 165 130 190 c 1,2,-1
 130 282 l 2,3,4
 130 293 130 293 142 298 c 1,5,6
 149 308 149 308 160 308 c 2,7,-1
 319 308 l 2,8,9
 337 308 337 308 338 305.5 c 128,-1,10
 339 303 339 303 343 297 c 128,-1,11
 347 291 347 291 347 277 c 128,-1,12
 347 263 347 263 332.5 259.5 c 128,-1,13
 318 256 318 256 298 256 c 1,14,-1
 298 195 l 1,15,16
 316 192 316 192 330 192 c 0,17,18
 370 192 370 192 392 208 c 0,19,20
 432 236 432 236 432 278 c 0,21,22
 432 288 432 288 434 294.5 c 128,-1,23
 436 301 436 301 446 301 c 0,24,25
 475 301 475 301 475 282 c 0,26,27
 475 191 475 191 382 162 c 0,28,29
 360 155 360 155 336 155 c 128,-1,30
 312 155 312 155 298 156 c 1,31,-1
 298 77 l 2,32,33
 298 40 298 40 279 23 c 128,-1,34
 260 6 260 6 239 3 c 128,-1,35
 218 0 218 0 201.5 0 c 128,-1,36
 185 0 185 0 159 3.5 c 0,37,38
 132 8 132 8 102 24 c 0,39,40
 32 62 32 62 33 115 c 0,0,1
173 158 m 2,41,42
 104 158 104 158 87 124 c 1,43,-1
 87 108 l 2,44,45
 87 79 87 79 113.5 61.5 c 128,-1,46
 140 44 140 44 159.5 42.5 c 128,-1,47
 179 41 179 41 191 41 c 128,-1,48
 203 41 203 41 218 44 c 0,49,50
 241 51 241 51 241 65 c 2,51,-1
 241 157 l 1,52,53
 212 157 212 157 187 158 c 2,54,-1
 173 158 l 2,41,42
241 196 m 5,55,-1
 241 254 l 1,56,-1
 176 254 l 1,57,-1
 176 196 l 5,58,-1
 241 196 l 5,55,-1
EndSplineSet
EndChar

StartChar: u0BEB
Encoding: 3051 3051 12
Width: 490
Flags: MW
LayerCount: 2
Fore
SplineSet
328 304 m 2,0,1
 345 304 345 304 345 284.5 c 128,-1,2
 345 265 345 265 328 265 c 1,3,-1
 328 200 l 1,4,5
 349 211 349 211 361 211 c 2,6,-1
 376 211 l 1,7,8
 424 205 424 205 446 161 c 0,9,10
 455 145 455 145 455 122 c 0,11,12
 455 78 455 78 426 50 c 0,13,14
 373 0 373 0 281 0 c 0,15,16
 154 0 154 0 79 90 c 0,17,18
 41 135 41 135 41 193 c 2,19,-1
 41 251 l 2,20,21
 41 295 41 295 59 309 c 0,22,23
 67 315 67 315 73.5 302 c 128,-1,24
 80 289 80 289 80 235 c 128,-1,25
 80 181 80 181 101 139 c 0,26,27
 140 61 140 61 226 42 c 0,28,29
 246 38 246 38 264 38 c 0,30,31
 324 38 324 38 359.5 68.5 c 128,-1,32
 395 99 395 99 395 124 c 0,33,34
 395 136 395 136 390 150 c 0,35,36
 384 164 384 164 376 168 c 0,37,38
 371 171 371 171 365 171 c 0,39,40
 349 171 349 171 328 149 c 9,41,-1
 328 144 l 2,42,43
 328 128 328 128 303 128 c 0,44,45
 294 128 294 128 286.5 132 c 128,-1,46
 279 136 279 136 279 143 c 2,47,-1
 279 265 l 1,48,-1
 214 265 l 1,49,-1
 214 124 l 2,50,51
 214 111 214 111 195.5 111 c 128,-1,52
 177 111 177 111 177 123 c 2,53,-1
 177 287 l 2,54,55
 177 304 177 304 191 304 c 2,56,-1
 328 304 l 2,0,1
EndSplineSet
Validated: 1
EndChar

StartChar: u0BEC
Encoding: 3052 3052 13
Width: 490
Flags: MW
LayerCount: 2
Fore
SplineSet
463 181 m 256,0,1
 463 155 463 155 447 155 c 2,2,-1
 441 155 l 1,3,-1
 441 23 l 2,4,5
 441 10 441 10 435.5 5 c 128,-1,6
 430 0 430 0 424 0 c 256,7,8
 422 0 422 0 413 3.5 c 128,-1,9
 404 7 404 7 404 25 c 2,10,-1
 404 155 l 1,11,-1
 353 155 l 1,12,-1
 353 27 l 2,13,14
 353 0 353 0 335 0 c 0,15,16
 329 0 329 0 323 7.5 c 128,-1,17
 317 15 317 15 317 27 c 2,18,-1
 317 155 l 1,19,-1
 265 155 l 1,20,-1
 265 71 l 2,21,22
 265 46 265 46 241.5 28.5 c 128,-1,23
 218 11 218 11 195 5.5 c 128,-1,24
 172 0 172 0 141.5 0 c 0,25,26
 112 0 112 0 86 16 c 0,27,28
 27 53 27 53 27 110 c 0,29,30
 27 114 27 114 34 131.5 c 128,-1,31
 41 149 41 149 63 168.5 c 128,-1,32
 85 188 85 188 119 200 c 1,33,-1
 119 282 l 2,34,35
 119 286 119 286 128 295 c 128,-1,36
 137 304 137 304 141 303 c 2,37,-1
 295 303 l 21,38,39
 321 294 321 294 321 280 c 4,40,41
 321 276 321 276 320 273 c 0,42,43
 316 265 316 265 308 260 c 128,-1,44
 300 255 300 255 293 255 c 2,45,-1
 265 255 l 1,46,-1
 265 208 l 1,47,-1
 444 208 l 2,48,49
 453 208 453 208 458 199.5 c 128,-1,50
 463 191 463 191 463 181 c 256,0,1
170 48 m 0,51,52
 204 48 204 48 204 67 c 2,53,-1
 204 153 l 1,54,55
 179 159 179 159 157 159 c 0,56,57
 114 159 114 159 94.5 143 c 128,-1,58
 75 127 75 127 75 112 c 0,59,60
 74 97 74 97 84 85 c 0,61,62
 112 48 112 48 170 48 c 0,51,52
157 208 m 1,63,64
 181 208 181 208 204 208 c 1,65,-1
 204 255 l 1,66,-1
 157 255 l 1,67,-1
 157 208 l 1,63,64
EndSplineSet
Validated: 1
EndChar

StartChar: u0BED
Encoding: 3053 3053 14
Width: 490
Flags: MW
LayerCount: 2
Fore
SplineSet
423 19 m 2,0,1
 423 0 423 0 391 0 c 0,2,3
 379 0 379 0 367.5 4.5 c 128,-1,4
 356 9 356 9 356 19 c 2,5,-1
 356 259 l 1,6,7
 259 259 259 259 218.5 250.5 c 128,-1,8
 178 242 178 242 155.5 228.5 c 128,-1,9
 133 215 133 215 117.5 191.5 c 128,-1,10
 102 168 102 168 96 152 c 1,11,12
 149 150 149 150 176.5 125 c 128,-1,13
 204 100 204 100 204 71.5 c 128,-1,14
 204 43 204 43 184.5 21.5 c 128,-1,15
 165 0 165 0 126 0 c 128,-1,16
 87 0 87 0 68 23 c 0,17,18
 38 59 38 59 38 113 c 0,19,20
 38 206 38 206 116 254 c 0,21,22
 188 296 188 296 320 302 c 0,23,24
 380 304 380 304 437 306 c 0,25,26
 448 306 448 306 454 299 c 128,-1,27
 460 292 460 292 460 283 c 0,28,29
 460 259 460 259 438 259 c 2,30,-1
 423 259 l 1,31,-1
 423 19 l 2,0,1
89 105 m 0,32,33
 89 45 89 45 125 45 c 0,34,35
 156 46 156 46 156 82 c 0,36,37
 156 96 156 96 137 107 c 0,38,39
 121 119 121 119 90 121 c 1,40,41
 89 113 89 113 89 105 c 0,32,33
EndSplineSet
Validated: 1
EndChar

StartChar: u0BEE
Encoding: 3054 3054 15
Width: 490
Flags: MW
LayerCount: 2
Fore
SplineSet
412 285 m 2,0,1
 412 306 412 306 434 306 c 0,2,3
 446 306 446 306 455.5 300.5 c 128,-1,4
 465 295 465 295 465 284 c 6,5,-1
 465 24 l 6,6,7
 465 12 465 12 455.5 6 c 128,-1,8
 446 0 446 0 434 0 c 0,9,10
 412 0 412 0 412 23 c 2,11,-1
 412 203 l 1,12,13
 389 193 389 193 357 183.5 c 128,-1,14
 325 174 325 174 323 172 c 128,-1,15
 321 170 321 170 322.5 165 c 128,-1,16
 324 160 324 160 324 156 c 0,17,18
 322 90 322 90 260 42 c 0,19,20
 208 1 208 1 134 0 c 0,21,22
 106 0 106 0 69.5 24.5 c 128,-1,23
 33 49 33 49 19 86 c 0,24,25
 16 94 16 94 16 98.5 c 128,-1,26
 16 103 16 103 33 113 c 0,27,28
 55 126 55 126 236 183 c 1,29,30
 237 189 237 189 237 194 c 0,31,32
 238 214 238 214 228 228 c 0,33,34
 216 244 216 244 200 250 c 0,35,36
 189 254 189 254 177 254 c 0,37,38
 151 254 151 254 125 231 c 1,39,-1
 121 211 l 1,40,41
 114 198 114 198 103 193.5 c 128,-1,42
 92 189 92 189 83.5 193 c 128,-1,43
 75 197 75 197 70.5 206.5 c 128,-1,44
 66 216 66 216 73.5 234 c 128,-1,45
 81 252 81 252 102.5 267 c 128,-1,46
 124 282 124 282 145 286 c 0,47,48
 169 291 169 291 191 292 c 0,49,50
 223 292 223 292 251 280 c 0,51,52
 306 258 306 258 312 210 c 1,53,54
 321 214 321 214 354 225 c 2,55,-1
 412 245 l 1,56,-1
 412 285 l 2,0,1
240 143 m 1,57,58
 166 119 166 119 100 99 c 1,59,-1
 73 86 l 1,60,61
 76 66 76 66 90.5 55.5 c 128,-1,62
 105 45 105 45 125 45 c 128,-1,63
 145 45 145 45 166.5 51 c 0,64,65
 188 56 188 56 206 70 c 0,66,67
 241 96 241 96 241 131 c 0,68,69
 241 137 241 137 240 143 c 1,57,58
EndSplineSet
Validated: 33
EndChar

StartChar: u0BEF
Encoding: 3055 3055 16
Width: 490
Flags: MW
LayerCount: 2
Fore
SplineSet
143 199 m 1,0,1
 159 199 159 199 175 199 c 1,2,-1
 175 252 l 1,3,-1
 143 252 l 1,4,-1
 143 199 l 1,0,1
175 79 m 2,5,-1
 175 157 l 1,6,7
 109 154 109 154 100 149 c 128,-1,8
 91 144 91 144 82 140 c 0,9,10
 68 135 68 135 64 120.5 c 128,-1,11
 60 106 60 106 60 104 c 2,12,-1
 60 99 l 2,13,14
 60 75 60 75 74 62 c 0,15,16
 94 44 94 44 118 44 c 0,17,18
 132 44 132 44 146 50 c 0,19,20
 176 58 176 58 175 79 c 2,5,-1
246 278 m 0,21,22
 246 252 246 252 229 252 c 1,23,-1
 229 196 l 1,24,25
 245 197 245 197 263 197 c 128,-1,26
 281 197 281 197 297 189 c 1,27,28
 320 203 320 203 352 203 c 0,29,30
 420 202 420 202 460 150 c 0,31,32
 478 126 478 126 478 99 c 0,33,34
 478 95 478 95 478 92 c 0,35,36
 478 69 478 69 474 59 c 0,37,38
 466 32 466 32 449.5 16 c 128,-1,39
 433 0 433 0 426 0 c 2,40,-1
 419 0 l 2,41,42
 410 0 410 0 408 0 c 0,43,44
 406 1 406 1 403 8 c 128,-1,45
 400 15 400 15 407 21.5 c 128,-1,46
 414 28 414 28 422 34 c 0,47,48
 442 52 442 52 442 70 c 2,49,-1
 442 91 l 2,50,51
 442 134 442 134 401 158 c 0,52,53
 376 173 376 173 353 172 c 0,54,55
 341 172 341 172 329 168 c 1,56,57
 348 154 348 154 360.5 137 c 128,-1,58
 373 120 373 120 374 93 c 0,59,60
 374 45 374 45 357.5 22.5 c 128,-1,61
 341 0 341 0 320 0 c 128,-1,62
 299 0 299 0 278 18 c 128,-1,63
 257 36 257 36 257 58 c 2,64,-1
 257 86 l 2,65,66
 257 116 257 116 271 150 c 1,67,68
 261 159 261 159 244 159 c 0,69,70
 237 159 237 159 229 157 c 1,71,-1
 229 92 l 2,72,73
 229 89 229 89 227 81 c 0,74,75
 216 43 216 43 192.5 21.5 c 128,-1,76
 169 0 169 0 142.5 0 c 128,-1,77
 116 0 116 0 91 10 c 128,-1,78
 66 20 66 20 46 40 c 0,79,80
 15 71 15 71 15 106 c 0,81,82
 15 118 15 118 19 132 c 0,83,84
 24 149 24 149 46 167.5 c 128,-1,85
 68 186 68 186 98 197 c 1,86,-1
 98 279 l 2,87,88
 98 290 98 290 110 294 c 1,89,90
 114 303 114 303 122 303 c 6,91,-1
 229 303 l 6,92,93
 237 303 237 303 241.5 295 c 128,-1,94
 246 287 246 287 246 278 c 0,21,22
321 35 m 128,-1,96
 333 39 333 39 341 53 c 0,97,98
 347 63 347 63 347 77 c 0,99,100
 347 84 347 84 346 92 c 8,101,102
 342 116 342 116 334 127 c 0,103,104
 329 134 329 134 317 134 c 0,105,106
 310 134 310 134 302 132 c 0,107,108
 289 129 289 129 289 90.5 c 128,-1,109
 289 52 289 52 299 41.5 c 128,-1,95
 309 31 309 31 321 35 c 128,-1,96
EndSplineSet
Validated: 33
EndChar

StartChar: uE100
Encoding: 57600 57600 17
Width: 859
Flags: MW
LayerCount: 2
Fore
SplineSet
274 186 m 3,0,1
 274 128 274 128 212 105 c 0,2,3
 182 94 182 94 154 94 c 3,4,5
 127 94 127 94 100 104 c 0,6,7
 80 111 80 111 54 135 c 0,8,9
 34 153 34 153 33 185 c 0,10,11
 33 311 33 311 110 368 c 0,12,13
 148 396 148 396 190 400 c 0,14,15
 218 403 218 403 225 403 c 0,16,17
 252 403 252 403 280 396 c 0,18,19
 377 373 377 373 428 297 c 1,20,-1
 428 393 l 2,21,22
 428 403 428 403 439.5 408 c 0,23,24
 447 411 447 411 462 411 c 2,25,-1
 662 411 l 2,26,27
 681 411 681 411 689 402 c 0,28,29
 695 394 695 394 695 385.5 c 131,-1,30
 695 377 695 377 686 369.5 c 128,-1,31
 677 362 677 362 664 362 c 2,32,-1
 635 362 l 1,33,-1
 635 297 l 1,34,35
 709 287 709 287 759 244.5 c 128,-1,36
 809 202 809 202 809 152 c 3,37,38
 809 53 809 53 734 18 c 0,39,40
 689 -3 689 -3 593 -4 c 0,41,42
 568 -4 568 -4 565 -4 c 0,43,44
 518 0 518 0 430 0 c 2,45,-1
 380 0 l 2,46,47
 288 0 288 0 277 -15 c 0,48,49
 272 -22 272 -22 281 -31.5 c 128,-1,50
 290 -41 290 -41 300.5 -49.5 c 128,-1,51
 311 -58 311 -58 308.5 -68.5 c 128,-1,52
 306 -79 306 -79 294 -90 c 0,53,54
 285 -98 285 -98 274 -98 c 3,55,56
 246.470583425 -98 246.470583425 -98 235 -74.5 c 0,57,58
 222 -61.7602505187 222 -61.7602505187 222 -38 c 7,59,60
 222 -21.8754845034 222 -21.8754845034 234 -2 c 0,61,62
 267.555230843 39.2348069652 267.555230843 39.2348069652 386 37 c 2,63,-1
 545 34 l 2,64,65
 688 31 688 31 726 92 c 0,66,67
 738 111 738 111 739 140 c 0,68,69
 739 181 739 181 713.5 210.5 c 0,70,71
 689 239 689 239 637 248 c 1,72,73
 641 215 641 215 641 181 c 3,74,75
 641 154 641 154 634 130 c 0,76,77
 615 63 615 63 526 63 c 3,78,79
 457 63 457 63 414 86 c 128,-1,80
 371 109 371 109 353 141 c 0,81,82
 341 163 341 163 341 187 c 3,83,84
 341 197 341 197 343 208 c 0,85,86
 351 243 351 243 388 268 c 1,87,88
 361 311 361 311 317 336 c 0,89,90
 267 364 267 364 228 364 c 0,91,92
 223 364 223 364 218 364 c 0,93,94
 180 364 180 364 148 344 c 0,95,96
 112 321 112 321 103 266 c 1,97,98
 128 274 128 274 153 274 c 0,99,100
 184 274 184 274 216 262 c 0,101,102
 274 240 274 240 274 186 c 3,0,1
484 362 m 1,103,-1
 484 298 l 1,104,-1
 564 298 l 1,105,-1
 564 362 l 1,106,-1
 484 362 l 1,103,-1
105 184 m 3,107,108
 105 161 105 161 123 149.5 c 128,-1,109
 141 138 141 138 161 138 c 0,110,111
 183 138 183 138 198 149 c 0,112,113
 216 161 216 161 216 184 c 3,114,115
 216 210 216 210 198 222 c 0,116,117
 184 231 184 231 161 231 c 3,118,119
 139.976203958 231 139.976203958 231 122 218 c 0,120,121
 105 206 105 206 105 184 c 3,107,108
526 125 m 3,122,123
 563.5 125 563.5 125 566 165 c 0,124,125
 567 181 567 181 567 187 c 3,126,127
 567 214 567 214 564 250 c 1,128,-1
 457 250 l 2,129,130
 421 250 421 250 402 220 c 0,131,132
 394.404255319 205.531914894 394.404255319 205.531914894 393 195 c 0,133,134
 392 186 392 186 396 178 c 0,135,136
 406 156 406 156 439 140.5 c 128,-1,137
 472 125 472 125 526 125 c 3,122,123
EndSplineSet
LCarets2: 2 0 0
Ligature2: "'akhn' Akhanda subtable" u11328 u1134D u11324
EndChar

StartChar: uE101
Encoding: 57601 57601 18
Width: 761
Flags: MW
LayerCount: 2
Fore
SplineSet
244 202 m 3,0,1
 244 150 244 150 190 128 c 0,2,3
 164 117 164 117 138 117 c 3,4,5
 114 117 114 117 90 125 c 0,6,7
 42 141 42 141 30 198 c 0,8,9
 26 212 26 212 26 253 c 3,10,11
 26 327 26 327 62 368 c 0,12,13
 95 406 95 406 146 406 c 3,14,15
 160 406 160 406 176 403 c 0,16,17
 245 390 245 390 297 332 c 1,18,-1
 297 388 l 2,19,20
 297 397 297 397 309 400 c 1,21,22
 316 409 316 409 327 409 c 2,23,-1
 594 409 l 2,24,25
 603 409 603 409 608 401 c 128,-1,26
 613 393 613 393 613 384.5 c 131,-1,27
 613 376 613 376 608 368.5 c 128,-1,28
 603 361 603 361 594 361 c 2,29,-1
 516 361 l 1,30,-1
 516 257 l 1,31,32
 545 270 545 270 574 270 c 3,33,34
 608 270 608 270 640 254 c 0,35,36
 668 240 668 240 686.5 211 c 128,-1,37
 705 182 705 182 705 142 c 3,38,39
 705 88 705 88 659 46 c 0,40,41
 607 0 607 0 516 0 c 2,42,-1
 136 0 l 2,43,44
 116 0 116 0 116 23 c 131,-1,45
 116 46 116 46 136 46 c 2,46,-1
 516 46 l 2,47,48
 606 46 606 46 623 104 c 0,49,50
 628 122 628 122 628 142 c 3,51,52
 628 176 628 176 615.5 197.5 c 128,-1,53
 603 219 603 219 585 226 c 0,54,55
 577 229 577 229 569 229 c 3,56,57
 559 229 559 229 548 224 c 0,58,59
 529 216 529 216 516 191 c 1,60,-1
 516 173 l 2,61,62
 516 162 516 162 504.5 156.5 c 128,-1,63
 493 151 493 151 478.5 151 c 128,-1,64
 464 151 464 151 452 156.5 c 128,-1,65
 440 162 440 162 440 173 c 2,66,-1
 440 361 l 1,67,-1
 357 361 l 1,68,-1
 357 139 l 2,69,70
 357 126 357 126 332 125 c 0,71,72
 297 125 297 125 297 140 c 2,73,-1
 297 168 l 2,74,75
 297 269 297 269 240 326 c 0,76,77
 216 350 216 350 189 358 c 4,78,79
 174 362 174 362 159 362 c 7,80,81
 147 362 147 362 137 359 c 0,82,83
 113 352 113 352 96.5 330.5 c 128,-1,84
 80 309 80 309 79 275 c 1,85,86
 103 289 103 289 135 289 c 3,87,88
 159 289 159 289 184 279.5 c 128,-1,89
 209 270 209 270 226.5 250 c 128,-1,90
 244 230 244 230 244 202 c 3,0,1
108 240 m 128,-1,92
 94 228 94 228 94 203 c 131,-1,93
 94 178 94 178 108 166 c 128,-1,94
 122 154 122 154 138 154 c 131,-1,95
 154 154 154 154 168 166 c 128,-1,96
 182 178 182 178 182 202 c 3,97,98
 182 228 182 228 168.5 240 c 128,-1,99
 155 252 155 252 138.5 252 c 131,-1,91
 122 252 122 252 108 240 c 128,-1,92
EndSplineSet
LCarets2: 2 0 0
Ligature2: "'akhn' Akhanda subtable" u11328 u1134D u11328
EndChar

StartChar: uE102
Encoding: 57602 57602 19
Width: 853
Flags: MW
LayerCount: 2
Fore
SplineSet
591 63 m 1,0,1
 614 24 614 24 650 10 c 0,2,3
 677 0 677 0 691 0 c 7,4,5
 698 0 698 0 720 6 c 0,6,7
 754 16 754 16 777 52.5 c 128,-1,8
 800 89 800 89 800 149 c 3,9,10
 800 166 800 166 791.5 199 c 0,11,12
 778 251 778 251 732 269 c 0,13,14
 707 279 707 279 689 279 c 128,-1,15
 671 279 671 279 656 276 c 128,-1,16
 641 273 641 273 628 256 c 128,-1,17
 615 239 615 239 615 214 c 2,18,-1
 615 210 l 0,19,20
 616 175 616 175 664 148 c 0,21,22
 682 138 682 138 710 138 c 3,23,24
 728 138 728 138 743 149 c 1,25,26
 743 140 743 140 743 134 c 0,27,28
 743 93 743 93 730 70 c 0,29,30
 714 43 714 43 690 42 c 0,31,32
 689 42 689 42 688 42 c 0,33,34
 665 42 665 42 640 70 c 0,35,36
 614 100 614 100 614 146 c 3,37,38
 614 172 614 172 579 193 c 0,39,40
 572 197 572 197 560.5 189.5 c 128,-1,41
 549 182 549 182 546 177 c 128,-1,42
 543 172 543 172 544 171 c 0,43,44
 563 152 563 152 563 126 c 3,45,46
 563 98 563 98 550 80 c 0,47,48
 538 62 538 62 523 51.5 c 128,-1,49
 508 41 508 41 499 41 c 1,50,51
 495 40 495 40 481 40 c 0,52,53
 472 40 472 40 466 45 c 0,54,55
 456 53 456 53 455 69 c 0,56,57
 455 90 455 90 469 117 c 1,58,-1
 469 118 l 1,59,60
 477 140 477 140 477 159 c 3,61,62
 477 198 477 198 443 224 c 0,63,64
 401 257 401 257 314 261 c 1,65,-1
 314 336 l 1,66,-1
 327 336 l 2,67,68
 340 336 340 336 347 343.5 c 0,69,70
 353.5 350.985306817 353.5 350.985306817 353.5 359.5 c 131,-1,71
 353.5 368.014693183 353.5 368.014693183 344.5 375 c 0,72,73
 336 382 336 382 320 382 c 2,74,-1
 152 382 l 2,75,76
 138 382 138 382 127 377.5 c 0,77,78
 114 372 114 372 114 362 c 2,79,-1
 114 256 l 1,80,81
 79 245 79 245 59 221.5 c 128,-1,82
 39 198 39 198 33 170 c 0,83,84
 30 158 30 158 30 146 c 3,85,86
 30 130 30 130 35 112 c 0,87,88
 42 82 42 82 64 57 c 0,89,90
 115 0 115 0 204 0 c 3,91,92
 253 0 253 0 277.5 25 c 0,93,94
 301 50 301 50 310 84 c 0,95,96
 318 114 318 114 318 144 c 0,97,98
 318 148 318 148 318 154 c 0,99,100
 316 190 316 190 314 217 c 1,101,102
 318 217 318 217 323 217 c 0,103,104
 381 217 381 217 408 191 c 0,105,106
 424 175 424 175 424 154 c 3,107,108
 424 132.5 424 132.5 414 117 c 24,109,110
 401 97 401 97 398 87 c 0,111,112
 395 74.0710678119 395 74.0710678119 395 67 c 3,113,114
 395 57.9446148619 395 57.9446148619 398 49 c 0,115,116
 404 30 404 30 426 16 c 0,117,118
 449 -0 449 -0 489 0 c 3,119,120
 552 0 552 0 591 63 c 1,0,1
169 336 m 1,121,-1
 244 336 l 1,122,-1
 244 262 l 1,123,-1
 169 262 l 1,124,-1
 169 336 l 1,121,-1
205 62 m 3,125,126
 153 62 153 62 121 82.5 c 0,127,128
 87.5315487572 102.894837476 87.5315487572 102.894837476 80 128 c 0,129,130
 77 138 77 138 77 148 c 3,131,132
 77 164 77 164 86 179 c 0,133,134
 101 204 101 204 142 214 c 1,135,-1
 244 214 l 1,136,137
 244 182 244 182 246 154 c 0,138,139
 247 143 247 143 247 134 c 0,140,141
 248 118 248 118 246 106 c 0,142,143
 240 62 240 62 205 62 c 3,125,126
724 226 m 0,144,145
 732 215 732 215 726 197 c 0,146,147
 720 178 720 178 693 177 c 0,148,149
 668 177 668 177 662 186 c 0,150,151
 653 197 653 197 653 213 c 2,152,-1
 653 214 l 2,153,154
 653 226 653 226 663.5 234.5 c 0,155,156
 673.992425981 242.5 673.992425981 242.5 690.5 242.5 c 3,157,158
 713.00555487 242.5 713.00555487 242.5 724 226 c 0,144,145
EndSplineSet
Position2: "Single Position lookup 0-1" dx=0 dy=0 dh=-410 dv=0
LCarets2: 2 0 0
Ligature2: "'akhn' Akhanda subtable" u11324 u1134D u11325
EndChar

StartChar: uE103
Encoding: 57603 57603 20
Width: 1128
Flags: MW
LayerCount: 2
Fore
SplineSet
557 212 m 1,0,1
 556 221 556 221 555.5 230 c 128,-1,2
 555 239 555 239 554 247 c 1,3,4
 519 244 519 244 493 220 c 1,5,6
 499 221 499 221 506 221 c 0,7,8
 529 221 529 221 557 212 c 1,0,1
457 137 m 3,9,10
 457 117 457 117 473 107 c 0,11,12
 492 96 492 96 510 96 c 131,-1,13
 528 96 528 96 544 106 c 128,-1,14
 560 116 560 116 560 137 c 131,-1,15
 560 158 560 158 543 168 c 0,16,17
 529 176 529 176 510 176 c 3,18,19
 492 176 492 176 473.5 164.5 c 0,20,21
 457 154 457 154 457 137 c 3,9,10
552 283 m 1,22,23
 552 322 552 322 552 362 c 1,24,-1
 354 362 l 2,25,26
 319 362 319 362 304.5 350 c 0,27,28
 291 338 291 338 288 312 c 0,29,30
 287 304 287 304 287 275 c 2,31,-1
 287 136 l 2,32,33
 286 92 286 92 267 62.5 c 0,34,35
 250 36 250 36 219.5 18 c 0,36,37
 188 -0 188 -0 160 0 c 3,38,39
 130 0 130 0 100 16 c 0,40,41
 72 30 72 30 54 59 c 128,-1,42
 36 88 36 88 36 132 c 2,43,-1
 36 388 l 2,44,45
 36 404 36 404 59 404 c 3,46,47
 86 404 86 404 86 388 c 2,48,-1
 86 136 l 2,49,50
 86 94 86 94 109 73.5 c 128,-1,51
 132 53 132 53 159 53 c 131,-1,52
 186 53 186 53 207 74 c 0,53,54
 225 92 225 92 225 125 c 2,55,-1
 225 262 l 2,56,57
 225 309 225 309 234 338 c 0,58,59
 244 372 244 372 271 390.5 c 0,60,61
 299 410 299 410 354 410 c 2,62,-1
 675 410 l 2,63,64
 684 410 684 410 689 402.5 c 128,-1,65
 694 395 694 395 694 386 c 131,-1,66
 694 377 694 377 689 369.5 c 128,-1,67
 684 362 684 362 675 362 c 2,68,-1
 615 362 l 1,69,-1
 615 280 l 1,70,71
 682 270 682 270 722 232 c 0,72,73
 763 193 763 193 763 137 c 3,74,75
 763 70 763 70 696 39 c 1,76,77
 842 39 842 39 988 39 c 1,78,-1
 988 366 l 2,79,80
 988 379 988 379 999 388 c 0,81,82
 1010.99107427 397.5 1010.99107427 397.5 1025 397.5 c 131,-1,83
 1039.00892573 397.5 1039.00892573 397.5 1051.5 393.5 c 0,84,85
 1064 388 1064 388 1064 374 c 2,86,-1
 1064 0 l 1,87,-1
 403 0 l 1,88,-1
 403 39 l 1,89,90
 552 39 552 39 596.5 49.5 c 0,91,92
 628 57 628 57 664.5 80 c 0,93,94
 695 99 695 99 696 137 c 3,95,96
 696 174 696 174 672 201 c 128,-1,97
 648 228 648 228 615 240 c 1,98,99
 618 156 618 156 618 138 c 7,100,101
 618 87 618 87 561 64 c 0,102,103
 536 54 536 54 505 53 c 0,104,105
 479 52 479 52 453 62 c 0,106,107
 395 84 395 84 395 137 c 3,108,109
 395 198 395 198 452 244 c 0,110,111
 492 277 492 277 552 283 c 1,22,23
EndSplineSet
LCarets2: 2 0 0
Ligature2: "'akhn' Akhanda subtable" u11336 u1134D u1131A
EndChar

StartChar: uE104
Encoding: 57604 57604 21
Width: 613
Flags: MW
LayerCount: 2
Fore
SplineSet
586 287 m 3,0,1
 586 196 586 196 483 158 c 0,2,3
 456 148 456 148 430 137.5 c 128,-1,4
 404 127 404 127 379 114.5 c 0,5,6
 352 102 352 102 352 82 c 3,7,8
 352 52 352 52 366 45 c 0,9,10
 384 36 384 36 397 36 c 19,11,12
 412 36 412 36 428 50.5 c 0,13,14
 442 63 442 63 442 88 c 0,15,16
 442 95 442 95 449 98.5 c 0,17,18
 455.937742252 101 455.937742252 101 464 101 c 3,19,20
 486.203603311 101 486.203603311 101 486 81 c 0,21,22
 486 37 486 37 440 11 c 0,23,24
 421 0 421 0 394 0 c 3,25,26
 374 0 374 0 354 7.5 c 0,27,28
 334 16 334 16 320.5 32.5 c 128,-1,29
 307 49 307 49 307 74 c 3,30,31
 307 108.228571429 307 108.228571429 326.5 125.5 c 0,32,33
 344 141 344 141 366 154 c 128,-1,34
 388 167 388 167 413 178 c 0,35,36
 438 188 438 188 459 204 c 0,37,38
 506 240 506 240 506 296 c 3,39,40
 506 334 506 334 467 352 c 0,41,42
 441 364 441 364 423 364 c 0,43,44
 414 364 414 364 406 362 c 0,45,46
 374 356 374 356 343 331 c 0,47,48
 304 300 304 300 300 266 c 0,49,50
 299 258 299 258 289 258 c 24,51,52
 282 258 282 258 275 258 c 0,53,54
 258 258 258 258 252 268 c 0,55,56
 251 270 251 270 251 275 c 2,57,-1
 251 282 l 2,58,59
 251 308 251 308 237 325.5 c 0,60,61
 222 343 222 343 202 351 c 0,62,63
 183 358 183 358 166 358 c 3,64,65
 140 358 140 358 118 342 c 1,66,67
 154 342 154 342 181 323 c 128,-1,68
 208 304 208 304 208 266 c 3,69,70
 208 212 208 212 162 188 c 0,71,72
 139 176 139 176 116 176 c 3,73,74
 96 176 96 176 76 185 c 0,75,76
 25 208 25 208 25 267 c 131,-1,77
 25 326 25 326 56.5 361 c 0,78,79
 90.1950422652 397.456930975 90.1950422652 397.456930975 131 404 c 4,80,81
 150 407 150 407 160 407 c 0,82,83
 199 407 199 407 217 396 c 24,84,85
 265.466353818 369.889410303 265.466353818 369.889410303 284 339 c 1,86,87
 315 380 315 380 362 396 c 0,88,89
 384 404 384 404 436 409 c 0,90,91
 446 410 446 410 458 408 c 0,92,93
 506 402 506 402 543 374 c 0,94,95
 586 341 586 341 586 287 c 3,0,1
86 266 m 3,96,97
 86 241 86 241 97.5 229 c 0,98,99
 108.990388169 216.5 108.990388169 216.5 122 216.5 c 131,-1,100
 135.009611831 216.5 135.009611831 216.5 146.5 227.5 c 0,101,102
 158 239 158 239 158 265 c 3,103,104
 158 284 158 284 144.5 292 c 0,105,106
 132.008925726 299.5 132.008925726 299.5 118 299.5 c 131,-1,107
 103.991074274 299.5 103.991074274 299.5 95 290 c 0,108,109
 86 281 86 281 86 266 c 3,96,97
EndSplineSet
LCarets2: 2 0 0
Ligature2: "'akhn' Akhanda subtable" u1132E u1134D u1132E
EndChar

StartChar: uE105
Encoding: 57605 57605 22
Width: 554
Flags: MW
LayerCount: 2
Fore
SplineSet
425 -69 m 0,0,1
 425 -138 425 -138 384 -138.009328106 c 0,2,3
 334 -138 334 -138 320 -96 c 0,4,5
 318 -90 318 -90 321 -67 c 0,6,7
 324.963101758 -40.2490631306 324.963101758 -40.2490631306 337 -32 c 26,8,-1
 480 66 l 2,9,10
 499 79 499 79 500 151 c 0,11,12
 501 224 501 224 432 253 c 0,13,14
 393 270 393 270 364 270 c 2,15,-1
 342 270 l 2,16,17
 326 270 326 270 297 258 c 1,18,-1
 297 358 l 1,19,-1
 379 358 l 2,20,21
 390 358 390 358 396.5 365 c 128,-1,22
 403 372 403 372 403 380.5 c 128,-1,23
 403 389 403 389 397 396.5 c 128,-1,24
 391 404 391 404 379 404 c 2,25,-1
 92 404 l 2,26,27
 77 404 77 404 72 395 c 1,28,29
 54 391 54 391 54 380 c 2,30,-1
 54 127 l 2,31,32
 54 116 54 116 64 106 c 128,-1,33
 74 96 74 96 88.5 96 c 128,-1,34
 103 96 103 96 113 102 c 128,-1,35
 123 108 123 108 123 127 c 2,36,-1
 123 358 l 1,37,-1
 214 358 l 1,38,-1
 214 166 l 2,39,40
 214 133 214 133 228.5 113 c 128,-1,41
 243 93 243 93 256.5 93 c 128,-1,42
 270 93 270 93 283 111.5 c 128,-1,43
 296 130 296 130 296 169 c 2,44,-1
 296 192 l 1,45,46
 319 230 319 230 356 230 c 0,47,48
 364 230 364 230 372 227 c 0,49,50
 419 209 419 209 416 135 c 0,51,52
 415.003042596 113.06693712 415.003042596 113.06693712 412 110 c 2,53,-1
 318 14 l 2,54,55
 280 -25 280 -25 277 -31 c 0,56,57
 261 -63 261 -63 261 -81.5 c 0,58,59
 261 -127 261 -127 306 -154 c 0,60,61
 346.216900948 -174.29304854 346.216900948 -174.29304854 363 -177 c 4,62,63
 394 -182 394 -182 418 -175 c 132,-1,64
 442 -168 442 -168 458 -134.5 c 128,-1,65
 474 -101 474 -101 474 -77 c 0,66,67
 474 -33 474 -33 442 -33 c 0,68,69
 425 -33 425 -33 425 -69 c 0,0,1
EndSplineSet
LCarets2: 2 0 0
Ligature2: "'akhn' Akhanda subtable" u11328 u1134D u1132E
EndChar

StartChar: uE106
Encoding: 57606 57606 23
Width: 655
Flags: MW
LayerCount: 2
Fore
SplineSet
216 355 m 5,0,1
 260 339 260 339 260 301 c 7,2,3
 260 262 260 262 220 244 c 4,4,5
 203.020507812 235 203.020507812 235 179 235 c 7,6,7
 159.973632812 235 159.973632812 235 142 240 c 4,8,9
 111 249 111 249 94 291 c 4,10,11
 91 295.916992188 91 295.916992188 91 302 c 7,12,13
 91 328.172851562 91 328.172851562 111 353.5 c 4,14,15
 131 376 131 376 162 388 c 132,-1,16
 193 400 193 400 229 401 c 4,17,18
 268 401 268 401 298 389 c 4,19,20
 330 376 330 376 353 345.5 c 4,21,22
 381 315.259765625 381 315.259765625 381 267 c 7,23,24
 381 199 381 199 322 160 c 5,25,26
 355 141 355 141 355 110 c 7,27,28
 355 78 355 78 314 49 c 5,29,-1
 510 49 l 5,30,-1
 510 391 l 6,31,32
 510 407 510 407 545 407 c 7,33,34
 558 407 558 407 569 402.5 c 132,-1,35
 580 398 580 398 580 391 c 6,36,-1
 580 35 l 5,37,38
 586 24 586 24 577.5 12 c 132,-1,39
 569 0 569 0 548 0 c 6,40,-1
 48 0 l 6,41,42
 39 0 39 0 34 7.5 c 132,-1,43
 29 15 29 15 29 24.5 c 135,-1,44
 29 34 29 34 34 41.5 c 132,-1,45
 39 49 39 49 48 49 c 6,46,-1
 86 49 l 6,47,48
 256 50 256 50 298 82 c 4,49,50
 314 94 314 94 303 106.5 c 4,51,52
 292 123 292 123 264 123 c 6,53,-1
 121 123 l 6,54,55
 100 123 100 123 100 145 c 7,56,57
 100 171 100 171 121 171 c 7,58,59
 252 171 252 171 298 225 c 4,60,61
 314 243 314 243 313 267 c 4,62,63
 313 314 313 314 280 338 c 4,64,65
 256 355 256 355 224 355 c 4,66,67
 220 355 220 355 216 355 c 5,0,1
160.5 321 m 132,-1,69
 153 314 153 314 153 300.5 c 135,-1,70
 153 287 153 287 160.5 280 c 132,-1,71
 168 273 168 273 177.5 273 c 135,-1,72
 187 273 187 273 195 280 c 132,-1,73
 203 287 203 287 203 300.5 c 135,-1,74
 203 314 203 314 195 321 c 132,-1,75
 187 328 187 328 177.5 328 c 135,-1,68
 168 328 168 328 160.5 321 c 132,-1,69
EndSplineSet
LCarets2: 2 0 0
Ligature2: "'akhn' Akhanda subtable" u11326 u1134D u11335
EndChar

StartChar: uE107
Encoding: 57607 57607 24
Width: 917
Flags: MW
LayerCount: 2
Fore
SplineSet
642 0 m 2,0,1
 628 0 628 0 620 19 c 0,2,3
 613 37 613 37 626 42 c 0,4,5
 653 51 653 51 662 84 c 0,6,7
 666 98 666 98 666 113 c 3,8,9
 666 132 666 132 660 152 c 0,10,11
 650 186 650 186 625 212 c 0,12,13
 603 236 603 236 570 236 c 3,14,15
 550 236 550 236 525 224 c 1,16,17
 567 194 567 194 587 156 c 0,18,19
 604 123 604 123 604 93 c 2,20,-1
 604 84 l 2,21,22
 604 53 604 53 575.5 25.5 c 0,23,24
 549 0 549 0 502.489257812 -0.1845703125 c 0,25,26
 459 0 459 0 438 24 c 0,27,28
 417 49 417 49 415.5 71.5 c 128,-1,29
 414 94 414 94 414 115 c 3,30,31
 414 132 414 132 418 152 c 0,32,33
 424 192 424 192 446 223 c 1,34,35
 397 241 397 241 344 241 c 0,36,37
 335 241 335 241 325 240 c 1,38,39
 328 173 328 173 328 165 c 3,40,41
 328 118 328 118 322 92.5 c 0,42,43
 313 54 313 54 309 46 c 0,44,45
 286 0 286 0 230 0 c 3,46,47
 139 0 139 0 87 58 c 0,48,49
 47 104 47 104 47 152 c 3,50,51
 47 165 47 165 50 178 c 0,52,53
 56 209 56 209 78.5 236.5 c 128,-1,54
 101 264 101 264 142 281 c 1,55,-1
 142 388 l 2,56,57
 142 411 142 411 161 411 c 2,58,-1
 349 411 l 2,59,60
 359 411 359 411 365 403.5 c 128,-1,61
 371 396 371 396 371 387 c 259,62,63
 371 378 371 378 365 371 c 128,-1,64
 359 364 359 364 349 364 c 2,65,-1
 325 364 l 1,66,-1
 325 287 l 1,67,68
 412 283 412 283 477 253 c 1,69,70
 509 276 509 276 561 276 c 3,71,72
 614 276 614 276 647.5 251.5 c 128,-1,73
 681 227 681 227 697 192 c 0,74,75
 713 158 713 158 713 120 c 3,76,77
 713 79 713 79 698 48 c 1,78,-1
 784 48 l 1,79,-1
 784 386 l 2,80,81
 784 395 784 395 794.5 400.5 c 0,82,83
 805 407 805 407 817.5 406.5 c 0,84,85
 830 407 830 407 840.5 402 c 128,-1,86
 851 397 851 397 851 388 c 2,87,-1
 851 18 l 2,88,89
 851 0 851 0 831 0 c 0,90,-1
 642 0 l 2,0,1
231 49 m 2,91,92
 267 49 267 49 267 142 c 3,93,94
 267 159 267 159 266 179 c 0,95,96
 262 236 262 236 262 238 c 1,97,-1
 168 238 l 1,98,99
 122 221 122 221 106 188 c 0,100,101
 97 168 97 168 97 149 c 3,102,103
 97 136 97 136 102 122 c 0,104,105
 112 90 112 90 144 68 c 0,106,107
 170 49 170 49 209 49 c 2,108,-1
 231 49 l 2,91,92
543 57 m 0,109,110
 555 70.6326979673 555 70.6326979673 555 92 c 3,111,112
 555 119 555 119 538 149 c 0,113,114
 522 177 522 177 490 200 c 1,115,116
 462 166 462 166 462 114 c 2,117,-1
 462 106 l 2,118,119
 461.392118992 39 461.392118992 39 502 39 c 0,120,121
 526 39 526 39 543 57 c 0,109,110
193 364 m 1,122,-1
 193 288 l 1,123,-1
 262 288 l 1,124,-1
 262 364 l 1,125,-1
 193 364 l 1,122,-1
EndSplineSet
LCarets2: 2 0 0
Ligature2: "'akhn' Akhanda subtable" u11324 u1134D u11335
EndChar

StartChar: uE108
Encoding: 57608 57608 25
Width: 772
Flags: MW
LayerCount: 2
Fore
SplineSet
492 371 m 3,0,1
 469 371 469 371 474 389 c 0,2,3
 476 396 476 396 482.5 402 c 128,-1,4
 489 408 489 408 500 408 c 3,5,6
 568 408 568 408 637 324 c 24,7,8
 711 234 711 234 711 142 c 3,9,10
 711 81 711 81 648 33 c 0,11,12
 606 0 606 0 536 0 c 3,13,14
 443 0 443 0 397 65 c 1,15,16
 349 0 349 0 264 0 c 3,17,18
 202 0 202 0 159 36 c 0,19,20
 115 74 115 74 115 134 c 3,21,22
 115 147 115 147 117 161 c 1,23,-1
 39 161 l 2,24,25
 29 161 29 161 23.5 167 c 128,-1,26
 18 173 18 173 18 179.5 c 131,-1,27
 18 186 18 186 23.5 192.5 c 128,-1,28
 29 199 29 199 39 199 c 2,29,-1
 111 199 l 2,30,31
 242 199 242 199 270 241 c 0,32,33
 299 283 299 283 273.5 329 c 0,34,35
 260 354 260 354 240 363 c 0,36,37
 229 368 229 368 219 368 c 3,38,39
 210 368 210 368 200 364 c 0,40,41
 178 356 178 356 162 334 c 1,42,43
 173 336 173 336 182 336 c 0,44,45
 202 336 202 336 220 328 c 0,46,47
 242 319 242 319 242 301 c 2,48,-1
 242 299 l 2,49,50
 242 271 242 271 219.5 254.5 c 0,51,52
 191 235 191 235 142 229 c 0,53,54
 133 228 133 228 115 232 c 0,55,56
 82 239 82 239 82 266 c 3,57,58
 82 334 82 334 125 374 c 0,59,60
 167 412 167 412 221 412 c 3,61,62
 278 412 278 412 315 376 c 0,63,64
 355 337 355 337 355 270 c 3,65,66
 355 250 355 250 343 232 c 128,-1,67
 331 214 331 214 303 199 c 1,68,-1
 461 199 l 2,69,70
 471 199 471 199 476 192.5 c 0,71,72
 480 186 480 186 480.5 179.5 c 0,73,74
 480 173 480 173 474.5 167 c 128,-1,75
 469 161 469 161 459 161 c 2,76,-1
 171 161 l 1,77,78
 166 143 166 143 166 128 c 3,79,80
 166 92 166 92 191.5 66.5 c 128,-1,81
 217 41 217 41 252 41 c 0,82,83
 266 41 266 41 281 44 c 0,84,85
 339 59 339 59 370 128 c 1,86,-1
 425 128 l 1,87,88
 460 66 460 66 486 51 c 0,89,90
 509 38 509 38 533 38 c 3,91,92
 542 38 542 38 550 40 c 0,93,94
 578 46 578 46 607 74.5 c 0,95,96
 638 105 638 105 638 142 c 3,97,98
 638 223 638 223 602.5 289.5 c 0,99,100
 559 371 559 371 492 371 c 3,0,1
143 290 m 0,101,102
 141 285 141 285 140.5 280 c 0,103,104
 137.683446322 260.847434992 137.683446322 260.847434992 166.5 263.5 c 0,105,106
 188.67453505 265.645922747 188.67453505 265.645922747 188 296 c 24,107,108
 188 310 188 310 168 310 c 2,109,-1
 167 310 l 2,110,111
 151 310 151 310 143 290 c 0,101,102
EndSplineSet
LCarets2: 2 0 0
Ligature2: "'akhn' Akhanda subtable" u11326 u1134D u11327
EndChar

StartChar: uE109
Encoding: 57609 57609 26
Width: 1024
Flags: MW
LayerCount: 2
Fore
SplineSet
287 174 m 2,0,1
 580 174 580 174 580 276 c 3,2,3
 580 293 580 293 564 312 c 0,4,5
 549 329 549 329 528 338 c 0,6,7
 506 348 506 348 482 348 c 3,8,9
 457 348 457 348 438 338 c 0,10,11
 394 315 394 315 394 250 c 2,12,-1
 394 240 l 2,13,14
 394 226 394 226 370 226 c 2,15,-1
 362 226 l 2,16,17
 352 226 352 226 340.5 232 c 0,18,19
 331 237 331 237 331 244 c 3,20,21
 331 290 331 290 310 319.5 c 0,22,23
 290 349 290 349 260 362 c 0,24,25
 237 372 237 372 214 372 c 3,26,27
 207 372 207 372 199 371 c 0,28,29
 168 367 168 367 146 344 c 1,30,31
 179 342 179 342 198 326 c 0,32,33
 231 298 231 298 231 263 c 3,34,35
 231 215 231 215 184 204 c 0,36,37
 163 199 163 199 151 199 c 3,38,39
 128 199 128 199 103 208 c 0,40,41
 48 227 48 227 48 266 c 3,42,43
 48 344 48 344 111 382 c 0,44,45
 150 405 150 405 199 405 c 3,46,47
 221 405 221 405 245 400 c 0,48,49
 321 385 321 385 364 330 c 1,50,51
 393 393 393 393 468 404 c 0,52,53
 490 407 490 407 497 407 c 3,54,55
 543 407 543 407 594 376 c 0,56,57
 657 338 657 338 657 272 c 3,58,59
 657 187 657 187 472 150 c 0,60,61
 374 130 374 130 325 130 c 2,62,63
 283 130 l 2,64,65
 205 130 205 130 159 96 c 0,66,67
 126 71 126 71 126 57.5 c 135,-1,68
 126 44 126 44 151 29 c 0,69,70
 188.862126342 4 188.862126342 4 219 4 c 3,71,72
 288 4 288 4 354 55 c 0,73,-1
 376 72 l 1,74,75
 442 133 442 133 518 133 c 3,76,77
 586 133 586 133 643 86 c 1,78,-1
 643 134 l 1,79,-1
 841 134 l 2,80,81
 860 134 860 134 869.5 127.5 c 0,82,83
 878 121 878 121 878.5 112 c 0,84,85
 878 103 878 103 867 96.5 c 128,-1,86
 856 90 856 90 835 90 c 2,87,-1
 810 90 l 1,88,-1
 810 15 l 1,89,90
 868 10 868 10 904.5 -14.5 c 0,91,92
 942 -40 942 -40 956 -74 c 0,93,94
 965 -96 965 -96 965 -119 c 3,95,96
 965 -132 965 -132 962 -146 c 0,97,98
 954 -184 954 -184 924.5 -216.5 c 128,-1,99
 895 -249 895 -249 844 -270.5 c 128,-1,100
 793 -292 793 -292 720 -292 c 2,101,-1
 718 -292 l 2,102,103
 610 -292 610 -292 532 -252 c 0,104,105
 442 -206 442 -206 441 -124 c 0,106,107
 441 -121 441 -121 441 -118 c 3,108,109
 441 -111 441 -111 446.5 -107 c 0,110,111
 452 -104 452 -104 458 -104 c 3,112,113
 474.031219542 -104 474.031219542 -104 474 -119 c 3,114,115
 474 -166 474 -166 503 -193 c 128,-1,116
 532 -220 532 -220 572 -234 c 0,117,118
 632 -255 632 -255 700.5 -255 c 131,-1,119
 769 -255 769 -255 806.5 -240.5 c 128,-1,120
 844 -226 844 -226 867 -203.5 c 0,121,122
 890 -182 890 -182 898 -154 c 0,123,124
 902 -139 902 -139 902 -125 c 3,125,126
 902 -113 902 -113 899 -101 c 0,127,128
 892 -76 892 -76 870 -56 c 128,-1,129
 848 -36 848 -36 810 -28 c 1,130,-1
 810 -48 l 2,131,132
 810 -100 810 -100 802 -126 c 0,133,134
 784 -188 784 -188 724 -188 c 2,135,-1
 721 -188 l 2,136,137
 634 -188 634 -188 592 -144 c 0,138,139
 565 -114.064449134 565 -114.064449134 565 -83 c 3,140,141
 565 -69.9615951896 565 -69.9615951896 570 -56 c 0,142,143
 587 -3 587 -3 643 14 c 1,144,145
 638 31 638 31 616 53 c 0,146,147
 596 74 596 74 568 86 c 0,148,149
 534 101 534 101 503 101 c 3,150,151
 475 101 475 101 449 88 c 1,152,153
 485 84 485 84 502 60 c 0,154,155
 518 38 518 38 518 13 c 3,156,157
 518 -17 518 -17 496 -41 c 0,158,159
 476 -63 476 -63 438 -63 c 131,-1,160
 400 -63 400 -63 380.5 -44 c 128,-1,161
 361 -25 361 -25 356 0 c 1,162,163
 298 -36 298 -36 219 -36 c 3,164,165
 129 -36 129 -36 84 6 c 0,166,167
 67 22 67 22 60 48 c 0,168,169
 59 52 59 52 59 57 c 3,170,171
 59 76 59 76 72 94 c 0,172,173
 108 143 108 143 234 169 c 0,174,175
 258 174 258 174 275 174 c 2,176,-1
 287 174 l 2,0,1
  Spiro
    287 174 ]
    506.75 199.5 o
    580 276 o
    576 293.5 o
    564 312 o
    547.5 327 o
    528 338 o
    505.5 345.5 o
    482 348 o
    458.5 345.5 o
    438 338 o
    405 304.5 o
    394 250 [
    394 240 ]
    388 229.5 o
    370 226 [
    362 226 ]
    351.625 227.5 o
    340.5 232 o
    333.375 237.5 o
    331 244 o
    325.75 285.875 o
    310 319.5 o
    287.5 344.875 o
    260 362 o
    237 369.5 o
    214 372 o
    206.75 371.75 o
    199 371 o
    170.25 362.25 o
    146 344 v
    175.5 338.5 o
    198 326 o
    222.75 296.25 o
    231 263 o
    219.25 224.25 o
    184 204 o
    165.25 200.25 o
    151 199 o
    127.5 201.25 o
    103 208 o
    61.75 232 o
    48 266 o
    63.75 334 o
    111 382 o
    152.5 399.25 o
    199 405 o
    221.5 403.75 o
    245 400 o
    312.75 375 o
    364 330 v
    404.5 380 o
    468 404 o
    486.25 406.25 o
    497 407 o
    544.25 399.25 o
    594 376 o
    641.25 331 o
    657 272 o
    610.75 199 o
    472 150 o
    386.25 135 o
    325 130 [
    283 130 ]
    213 121.5 o
    159 96 o
    134.25 74.25 o
    126 59 o
    132.25 49 o
    151 29 o
    180 10.25 o
    219 4 o
    287.25 16.75 o
    354 55 ]
    376 72 v
    444.5 117.75 o
    518 133 o
    583.25 121.25 o
    643 86 v
    643 134 v
    841 134 ]
    857.625 132.375 o
    869.5 127.5 o
    876 120.375 o
    878.5 112 o
    875.375 103.625 o
    867 96.5 o
    853.5 91.625 o
    835 90 [
    810 90 v
    810 15 v
    862.625 5.125 o
    904.5 -14.5 o
    936.125 -42.125 o
    956 -74 o
    962.75 -96.25 o
    965 -119 o
    964.25 -132.25 o
    962 -146 o
    948.625 -182.625 o
    924.5 -216.5 o
    889.625 -246.25 o
    844 -270.5 o
    787.5 -286.625 o
    720 -292 [
    718 -292 ]
    617.5 -282 o
    532 -252 o
    464.25 -197 o
    441 -124 o
    441 -118 o
    442.375 -111.75 o
    446.5 -107 o
    452.125 -104.75 o
    458 -104 o
    470 -108.25 o
    474 -119 o
    481.25 -161 o
    503 -193 o
    534.75 -216.75 o
    572 -234 o
    634.125 -249.75 o
    700.5 -255 o
    761.25 -251.375 o
    806.5 -240.5 o
    840.375 -224 o
    867 -203.5 o
    886.25 -180.375 o
    898 -154 o
    901 -139.25 o
    902 -125 o
    901.25 -113 o
    899 -101 o
    888.25 -77.25 o
    870 -56 o
    844 -39 o
    810 -28 v
    810 -48 ]
    808 -93.5 o
    802 -126 o
    773.5 -172.5 o
    724 -188 [
    721 -188 ]
    645.25 -177 o
    592 -144 o
    570.75 -113.75 o
    565 -83 o
    566.75 -69.75 o
    570 -56 o
    596.75 -12 o
    643 14 v
    633.75 32.25 o
    616 53 o
    594 71.75 o
    568 86 o
    534.75 97.25 o
    503 101 o
    475.5 97.75 o
    449 88 v
    480.25 79 o
    502 60 o
    514 37.25 o
    518 13 o
    512.5 -15.5 o
    496 -41 o
    471.5 -57.5 o
    438 -63 o
    404.625 -58.25 o
    380.5 -44 o
    364.625 -23.5 o
    356 0 v
    292.75 -27 o
    219 -36 o
    140.25 -25.5 o
    84 6 o
    69.5 24.5 o
    60 48 o
    59.25 52.25 o
    59 57 o
    62.25 75.75 o
    72 94 o
    130.5 137.25 o
    234 169 o
    256.25 172.75 o
    275 174 [
    0 0 z
  EndSpiro
724 -140 m 3,177,178
 751 -140 751 -140 751 -101 c 3,179,180
 749 -87.0973907295 749 -87.0973907295 749 -72 c 24,181,-1
 749 -19 l 1,182,-1
 666 -19 l 2,183,184
 632 -19 632 -19 616 -46 c 0,185,186
 605 -64 605 -64 605 -76 c 3,187,188
 605 -82 605 -82 607 -88 c 0,189,190
 613 -109 613 -109 642 -124.5 c 128,-1,191
 671 -140 671 -140 724 -140 c 3,177,178
  Spiro
    724 -140 o
    744.25 -130.25 o
    751 -101 o
    750 -86.75 o
    749 -72 ]
    749 -19 v
    666 -19 ]
    636.5 -25.75 o
    616 -46 o
    607.75 -62.5 o
    605 -76 o
    605.5 -82 o
    607 -88 o
    618.75 -107.625 o
    642 -124.5 o
    677 -136.125 o
    0 0 z
  EndSpiro
470 36.5 m 128,-1,193
 459 49 459 49 440 49 c 3,194,195
 420.5 49 420.5 49 407 40 c 0,196,197
 404 38 404 38 395 30 c 1,198,199
 389 20 389 20 389 10 c 3,200,201
 389 0.944614861863 389 0.944614861863 394 -8 c 0,202,203
 404 -28 404 -28 431.5 -28 c 131,-1,204
 459 -28 459 -28 470 -15.5 c 128,-1,205
 481 -3 481 -3 481 10.5 c 131,-1,192
 481 24 481 24 470 36.5 c 128,-1,193
  Spiro
    470 36.5 o
    457 45.875 o
    440 49 o
    422 46.75 o
    407 40 o
    402.5 36.5 o
    395 30 v
    390.5 20 o
    389 10 o
    390.75 1 o
    394 -8 o
    408.375 -23 o
    431.5 -28 o
    454.875 -24.875 o
    470 -15.5 o
    478.25 -2.75 o
    481 10.5 o
    478.25 23.75 o
    0 0 z
  EndSpiro
749 90 m 1,206,-1
 688 90 l 1,207,-1
 688 17 l 1,208,-1
 749 17 l 1,209,-1
 749 90 l 1,206,-1
  Spiro
    749 90 v
    688 90 v
    688 17 v
    749 17 v
    0 0 z
  EndSpiro
125 265 m 3,210,211
 125 252 125 252 132.5 244 c 128,-1,212
 140 236 140 236 149.5 235.5 c 128,-1,213
 159 235 159 235 168.5 240 c 0,214,215
 180 247 180 247 180 259 c 2,216,-1
 180 263 l 2,217,218
 180 279 180 279 171.5 288.5 c 128,-1,219
 163 298 163 298 152 299 c 128,-1,220
 141 300 141 300 133 291 c 128,-1,221
 125 282 125 282 125 265 c 3,210,211
  Spiro
    125 265 o
    126.875 253.25 o
    132.5 244 o
    140.5 237.875 o
    149.5 235.5 o
    159 236.375 o
    168.5 240 o
    177.125 248.25 o
    180 259 [
    180 263 ]
    177.875 277.375 o
    171.5 288.5 o
    162.375 295.875 o
    152 299 o
    141.75 297.5 o
    133 291 o
    127 280 o
    0 0 z
  EndSpiro
EndSplineSet
Position2: "Single Position lookup 0-1" dx=0 dy=0 dh=-280 dv=0
LCarets2: 2 0 0
Ligature2: "'akhn' Akhanda subtable" u1131C u1134D u1131E
EndChar

StartChar: uE10A
Encoding: 57610 57610 27
Width: 859
Flags: MW
LayerCount: 2
Fore
SplineSet
460 138 m 0,0,1
 494 138 494 138 494 194 c 0,2,3
 494 210 494 210 490 252 c 1,4,-1
 399 252 l 18,5,6
 369 252 369 252 350 224 c 0,7,8
 342 212 342 212 342 200 c 0,9,10
 342 193 342 193 345 186 c 0,11,12
 353 167 353 167 382.5 152.5 c 128,-1,13
 412 138 412 138 460 138 c 0,0,1
824 31 m 2,14,15
 824 0 824 0 804 0 c 2,16,-1
 98 0 l 2,17,18
 90 0 90 0 85.5 6.5 c 128,-1,19
 81 13 81 13 81 21 c 128,-1,20
 81 29 81 29 85.5 35.5 c 128,-1,21
 90 42 90 42 98 42 c 2,22,-1
 425 42 l 1,23,24
 641 58 641 58 641 166 c 0,25,26
 641 193 641 193 618 217 c 128,-1,27
 595 241 595 241 552 249 c 1,28,-1
 557 188 l 2,29,30
 557 165 557 165 550 143 c 0,31,32
 532 83 532 83 465.5 83 c 128,-1,33
 399 83 399 83 360 108 c 0,34,35
 302 145.179487179 302 145.179487179 302 202.58974359 c 128,-1,36
 302 260 302 260 365 287 c 1,37,38
 351 319 351 319 318.5 339 c 128,-1,39
 286 359 286 359 253 359 c 2,40,-1
 242 359 l 1,41,42
 159.269230769 354.403846154 159.269230769 354.403846154 121 297 c 1,43,44
 129 298 129 298 136 298 c 0,45,46
 172 298 172 298 201 281 c 0,47,48
 240 258 240 258 240 219.5 c 128,-1,49
 240 181 240 181 208.5 160 c 128,-1,50
 177 139 177 139 146.5 139 c 0,51,52
 92 139 92 139 61.5 160.5 c 128,-1,53
 31 182 31 182 31 220 c 0,54,55
 31 323.271193071 31 323.271193071 108 361 c 1,56,57
 167 396 167 396 227 396 c 0,58,59
 330 396 330 396 374 348 c 1,60,-1
 374 411 l 1,61,-1
 578 411 l 2,62,63
 589 411 589 411 594.5 404.5 c 128,-1,64
 600 398 600 398 600 391 c 128,-1,65
 600 384 600 384 594.5 378 c 128,-1,66
 589 372 589 372 578 372 c 2,67,-1
 552 372 l 1,68,-1
 552 295 l 1,69,70
 616 285 616 285 659 247 c 128,-1,71
 702 209 702 209 702 166 c 0,72,73
 702 77 702 77 602 42 c 1,74,-1
 764 42 l 1,75,-1
 764 391 l 2,76,77
 764 401 764 401 772.994793925 407.25 c 128,-1,78
 781.989587851 413.5 781.989587851 413.5 794 413.5 c 4,79,80
 824 413.5 824 413.5 824 393 c 2,81,-1
 824 31 l 2,14,15
190 216 m 1,82,-1
 190 219 l 1,83,84
 189 241 189 241 174 251 c 0,85,86
 160 260 160 260 140 260 c 0,87,88
 121.972243623 260 121.972243623 260 107 248 c 0,89,90
 92 237 92 237 92 217.5 c 128,-1,91
 92 198 92 198 107 187 c 0,92,93
 122 175 122 175 140 175 c 0,94,95
 159 175 159 175 174 185 c 128,-1,96
 189 195 189 195 190 216 c 1,82,-1
423 372 m 1,97,-1
 423 297 l 1,98,-1
 490 297 l 1,99,-1
 490 372 l 1,100,-1
 423 372 l 1,97,-1
EndSplineSet
LCarets2: 2 0 0
Ligature2: "'akhn' Akhanda subtable" u1131E u1134D u1131A
EndChar

StartChar: uE10B
Encoding: 57611 57611 28
Width: 768
Flags: MW
LayerCount: 2
Fore
SplineSet
108 244 m 128,-1,1
 94 232 94 232 94 207 c 131,-1,2
 94 182 94 182 108 170 c 128,-1,3
 122 158 122 158 138 158 c 131,-1,4
 154 158 154 158 168 170 c 128,-1,5
 182 182 182 182 182 206 c 3,6,7
 182 232 182 232 168.5 244 c 128,-1,8
 155 256 155 256 138.5 256 c 131,-1,0
 122 256 122 256 108 244 c 128,-1,1
628 147 m 3,9,10
 628 181 628 181 615.5 202 c 128,-1,11
 603 223 603 223 585 230 c 0,12,13
 577 233 577 233 569 233 c 3,14,15
 559 233 559 233 548 228 c 0,16,17
 529 220 529 220 516 195 c 1,18,-1
 516 177 l 2,19,20
 516 166 516 166 504.5 160.5 c 128,-1,21
 493 155 493 155 478.5 155 c 131,-1,22
 464 155 464 155 452 160.5 c 128,-1,23
 440 166 440 166 440 177 c 2,24,-1
 440 365 l 1,25,-1
 357 365 l 1,26,-1
 357 142 l 2,27,28
 357 129 357 129 332 129 c 3,29,30
 297 129 297 129 297 144 c 2,31,-1
 297 172 l 2,32,33
 297 273 297 273 240 330 c 0,34,35
 216 354 216 354 189 362 c 0,36,37
 174 367 174 367 159 366 c 0,38,39
 147 366 147 366 137 363 c 0,40,41
 113 356 113 356 96.5 334.5 c 128,-1,42
 80 313 80 313 79 279 c 1,43,44
 103 293 103 293 135 293 c 3,45,46
 159 293 159 293 184 284 c 0,47,48
 209 274 209 274 226.5 254 c 128,-1,49
 244 234 244 234 244 206 c 3,50,51
 244 154 244 154 190 132 c 0,52,53
 164 121 164 121 138 121 c 3,54,55
 114 121 114 121 90 129 c 0,56,57
 64.9577464789 137.049295775 64.9577464789 137.049295775 49.9788732394 156.524647887 c 132,-1,58
 35 176 35 176 30 206 c 0,59,60
 26 225.272727273 26 225.272727273 26 257 c 3,61,62
 26 331 26 331 62 372 c 0,63,64
 95 410 95 410 146 410 c 3,65,66
 160 410 160 410 176 407 c 0,67,68
 245 394 245 394 297 336 c 1,69,-1
 297 392 l 2,70,71
 297 401 297 401 309 404 c 1,72,73
 316 413 316 413 327 413 c 2,74,-1
 594 413 l 2,75,76
 603 413 603 413 608 405 c 128,-1,77
 613 397 613 397 613 388.5 c 131,-1,78
 613 380 613 380 608 372.5 c 128,-1,79
 603 365 603 365 594 365 c 2,80,-1
 516 365 l 1,81,-1
 516 261 l 1,82,83
 545 274 545 274 574 274 c 3,84,85
 608 274 608 274 640 258 c 0,86,87
 668 244 668 244 686.5 215.5 c 128,-1,88
 705 187 705 187 705 147 c 3,89,90
 705 101 705 101 628 63 c 0,91,92
 507 2 507 2 324 2 c 3,93,94
 262 2 262 2 182 -45 c 0,95,96
 133 -74 133 -74 133 -100 c 3,97,98
 133 -119 133 -119 161 -132 c 0,99,100
 191 -146 191 -146 257 -146 c 3,101,102
 322 -146 322 -146 392 -94 c 0,103,104
 423 -71 423 -71 425 -68 c 0,105,106
 500 -3 500 -3 583 -3 c 3,107,108
 602 -3 602 -3 620 -6 c 0,109,110
 684 -16 684 -16 716 -58 c 0,111,112
 732 -78 732 -78 732 -105 c 3,113,114
 732 -136 732 -136 700 -160.5 c 128,-1,115
 668 -185 668 -185 639 -194 c 0,116,117
 605 -205 605 -205 572 -205 c 3,118,119
 514 -205 514 -205 500 -188.5 c 0,120,121
 494 -181 494 -181 494 -173 c 131,-1,122
 494 -165 494 -165 501.5 -158 c 0,123,124
 513.017857143 -147.25 513.017857143 -147.25 524 -151 c 24,125,126
 565 -165 565 -165 576 -165 c 3,127,128
 594 -165 594 -165 612 -158 c 0,129,130
 651 -144 651 -144 662 -103 c 24,131,132
 665 -92 665 -92 653 -75 c 128,-1,133
 641 -58 641 -58 622 -52 c 0,134,135
 607 -47 607 -47 591 -47 c 3,136,137
 558 -47 558 -47 498 -79 c 2,138,-1
 468 -95 l 1,139,140
 446 -113 446 -113 423.5 -132.5 c 128,-1,141
 401 -152 401 -152 376 -168 c 0,142,143
 317 -205 317 -205 260 -205 c 2,144,-1
 244 -205 l 2,145,146
 193 -205 193 -205 160 -194 c 0,147,148
 118 -180 118 -180 95 -156 c 0,149,150
 70 -130 70 -130 70 -100 c 3,151,152
 70 -74 70 -74 90 -46 c 0,153,154
 152 40 152 40 334 40 c 3,155,156
 520 40 520 40 602 110 c 0,157,158
 628 132 628 132 628 147 c 3,9,10
EndSplineSet
LCarets2: 2 0 0
Ligature2: "'akhn' Akhanda subtable" u1131E u1134D u1131C
EndChar

StartChar: uE10C
Encoding: 57612 57612 29
Width: 1050
Flags: MW
LayerCount: 2
Fore
SplineSet
411 122 m 0,0,1
 411 79 411 79 427 65.5 c 0,2,3
 441.988101979 52.5 441.988101979 52.5 452.5 52.5 c 135,-1,4
 463.011898021 52.5 463.011898021 52.5 469 71 c 0,5,6
 475 90 475 90 475 97 c 2,7,-1
 475 114 l 2,8,9
 475 130 475 130 472 146 c 0,10,11
 461 204 461 204 440 204 c 0,12,13
 411 204 411 204 411 122 c 0,0,1
162 206 m 1,14,15
 73 164.678571429 73 164.678571429 73 107 c 2,16,-1
 73 100 l 2,17,18
 73 76 73 76 93 61.5 c 128,-1,19
 113 47 113 47 132.5 47 c 128,-1,20
 152 47 152 47 162 63 c 128,-1,21
 172 79 172 79 172 96.5 c 128,-1,22
 172 114 172 114 170 130 c 1,23,-1
 170 148 l 2,24,25
 170 161 170 161 196 161 c 128,-1,26
 222 161 222 161 225 152 c 0,27,28
 241 80 241 80 248.5 68 c 128,-1,29
 256 56 256 56 264.5 56 c 128,-1,30
 273 56 273 56 273 91 c 2,31,-1
 273 103 l 1,32,33
 272 149 272 149 269 171 c 26,34,-1
 265 206 l 1,35,-1
 162 206 l 1,14,15
183 356 m 1,36,-1
 183 251 l 1,37,-1
 265 251 l 1,38,-1
 265 356 l 1,39,-1
 183 356 l 1,36,-1
784 352 m 128,-1,41
 766 352 766 352 752 335.5 c 128,-1,42
 738 319 738 319 738 291.5 c 128,-1,43
 738 264 738 264 764 250.5 c 128,-1,44
 790 237 790 237 824 236 c 1,45,-1
 824 285 l 2,46,47
 824 318 824 318 813 335 c 128,-1,40
 802 352 802 352 784 352 c 128,-1,41
931 211 m 1,48,-1
 899 204 l 1,49,-1
 899 45 l 1,50,-1
 931 45 l 1,51,-1
 931 211 l 1,48,-1
580 0 m 2,52,53
 537 0 537 0 537 26 c 0,54,55
 537 36 537 36 549 43 c 0,56,57
 581 59 581 59 595.5 81.5 c 128,-1,58
 610 104 610 104 610 117 c 128,-1,59
 610 130 610 130 609 134 c 0,60,61
 605 158 605 158 578 177.5 c 128,-1,62
 551 197 551 197 496 203 c 1,63,64
 511 167 511 167 511 136.5 c 0,65,66
 511 26 511 26 468 4 c 0,67,68
 460 0 460 0 451 0 c 0,69,70
 420 -0 420 -0 398.25 36 c 0,71,72
 370.5 79.9971099232 370.5 79.9971099232 370.5 123.25 c 3,73,74
 370.5 152.004347497 370.5 152.004347497 386 206 c 1,75,-1
 337 206 l 1,76,-1
 337 150 l 2,77,78
 337 103 337 103 324.5 66.5 c 128,-1,79
 312 30 312 30 295 15 c 128,-1,80
 278 0 278 0 261 0 c 0,81,82
 228 0 228 0 204 52 c 1,83,84
 188 12 188 12 160 4 c 0,85,86
 146 0 146 0 132.5 0 c 0,87,88
 90 -0 90 -0 52 43 c 0,89,90
 24 75 24 75 24 104 c 2,91,-1
 24 115 l 2,92,93
 24 190 24 190 122 241 c 1,94,-1
 122 376 l 1,95,-1
 126 385 l 2,96,97
 134 402 134 402 152 402 c 2,98,-1
 360 402 l 2,99,100
 374 402 374 402 380 394 c 128,-1,101
 386 386 386 386 386 378 c 128,-1,102
 386 370 386 370 378 363 c 128,-1,103
 370 356 370 356 359 356 c 2,104,-1
 337 356 l 1,105,-1
 337 251 l 1,106,-1
 450 251 l 2,107,108
 522 251 522 251 573.5 226 c 128,-1,109
 625 201 625 201 638 174 c 0,110,111
 657 136 657 136 657 117 c 0,112,113
 657 79 657 79 632 45 c 1,114,-1
 824 45 l 1,115,-1
 824 198 l 1,116,117
 730 201 730 201 694 249 c 0,118,119
 682 265 682 265 682 294 c 128,-1,120
 682 323 682 323 698 348.5 c 0,121,122
 733 405 733 405 790 405 c 0,123,124
 818 405 818 405 839 394 c 0,125,126
 899 363 899 363 899 265 c 2,127,-1
 899 246 l 1,128,129
 913 251 913 251 931 263 c 1,130,131
 934 290 934 290 970 291.5 c 0,132,133
 981 292 981 292 993.5 283.25 c 0,134,135
 1006 275 1006 275 1006 262 c 2,136,-1
 1006 23 l 2,137,138
 1006 15 1006 15 996 7.5 c 128,-1,139
 986 0 986 0 968 0 c 2,140,-1
 899 0 l 1,141,-1
 899 -93 l 2,142,143
 899 -105 899 -105 887.5 -111.5 c 128,-1,144
 876 -118 876 -118 862 -118 c 128,-1,145
 848 -118 848 -118 836 -111.5 c 128,-1,146
 824 -105 824 -105 824 -93 c 2,147,-1
 824 0 l 1,148,-1
 580 0 l 2,52,53
EndSplineSet
LCarets2: 2 0 0
Ligature2: "'akhn' Akhanda subtable" u11315 u1134D u11337
EndChar

StartChar: uE10D
Encoding: 57613 57613 30
Width: 653
Flags: MW
LayerCount: 2
Fore
SplineSet
616 24 m 3,0,1
 616 0 616 0 598 0 c 2,2,-1
 452 0 l 1,3,-1
 452 -97 l 2,4,5
 452 -108 452 -108 440.5 -114.5 c 128,-1,6
 429 -121 429 -121 416 -121 c 131,-1,7
 403 -121 403 -121 391.5 -114.5 c 128,-1,8
 380 -108 380 -108 380 -97 c 2,9,-1
 380 0 l 1,10,-1
 199 0 l 2,11,12
 178.5 -0.00675552332175 178.5 -0.00675552332175 178.5 18.5 c 0,13,14
 179 47 179 47 197 47 c 2,15,-1
 215 47 l 6,16,17
 352 51 352 51 400 115 c 0,18,19
 419 140 419 140 419 175 c 3,20,21
 419 198 419 198 398.5 215 c 128,-1,22
 378 232 378 232 352 238 c 0,23,24
 352.029386366 239 352.029386366 239 335 239 c 131,-1,25
 317.970613634 239 317.970613634 239 302 232 c 0,26,27
 272 221 272 221 272 186 c 2,28,-1
 272 157.939731992 l 2,29,30
 272 144.879463985 272 144.879463985 259.5 140.5 c 0,31,32
 248 136 248 136 234.5 136.5 c 0,33,34
 223.842105263 136.105263158 223.842105263 136.105263158 210.5 145 c 0,35,36
 200 152 200 152 200 163 c 2,37,-1
 200 366 l 1,38,-1
 118 366 l 1,39,-1
 118 52 l 2,40,41
 118 36 118 36 90 36 c 128,-1,42
 62 36 62 36 62 52 c 2,43,-1
 62 387 l 2,44,45
 62 397 62 397 75 402 c 1,46,47
 82 411 82 411 93 411 c 2,48,-1
 346 411 l 2,49,50
 356 411 356 411 361.5 403.5 c 128,-1,51
 367 396 367 396 367 388 c 128,-1,52
 367 380 367 380 361.5 373 c 128,-1,53
 356 366 356 366 346 366 c 2,54,-1
 272 366 l 1,55,-1
 272 269 l 1,56,57
 300 280 300 280 334 280 c 2,58,-1
 342 280 l 2,59,60
 380 278 380 278 412 264.5 c 128,-1,61
 444 251 444 251 466 228 c 128,-1,62
 488 205 488 205 488 175 c 3,63,64
 488 96 488 96 411 47 c 1,65,-1
 598 47 l 2,66,67
 616 47 616 47 616 24 c 3,0,1
EndSplineSet
PairPos2: "'dist' Distance lookup for overhang 2-1" uE335 dx=0 dy=0 dh=0 dv=0 dx=0 dy=-100 dh=0 dv=0
PairPos2: "'dist' Distance lookup for overhang 2-1" uE32E dx=0 dy=0 dh=0 dv=0 dx=0 dy=-100 dh=0 dv=0
PairPos2: "'dist' Distance lookup for overhang 2-1" uE327 dx=0 dy=0 dh=0 dv=0 dx=0 dy=-100 dh=0 dv=0
Position2: "Single Position lookup 0-1" dx=0 dy=0 dh=-160 dv=0
LCarets2: 2 0 0
Ligature2: "'akhn' Akhanda subtable" u11328 u1134D u11326
EndChar

StartChar: uE10E
Encoding: 57614 57614 31
Width: 982
Flags: MW
LayerCount: 2
Fore
SplineSet
117 242.5 m 128,-1,1
 104 231 104 231 104 206 c 131,-1,2
 104 181 104 181 117 166.5 c 128,-1,3
 130 152 130 152 146 150 c 2,4,5
 150 150 l 2,6,7
 164 150 164 150 175 162 c 0,8,9
 188 176 188 176 188 203.5 c 131,-1,10
 188 231 188 231 175 242.5 c 128,-1,11
 162 254 162 254 146 254 c 131,-1,0
 130 254 130 254 117 242.5 c 128,-1,1
246 110 m 0,12,13
 245 116 245 116 245 121 c 3,14,15
 245 140 245 140 264 144 c 0,16,17
 273 146 273 146 289 162 c 0,18,19
 318 192 318 192 318 237 c 3,20,21
 318 273 318 273 291.5 308.5 c 0,22,23
 271 336 271 336 237 346 c 0,24,25
 227 349 227 349 217 349 c 3,26,27
 196 349 196 349 173 340 c 0,28,29
 140 326 140 326 122 289 c 1,30,31
 134 292 134 292 146 292 c 3,32,33
 175 292 175 292 204 276 c 0,34,35
 244 254 244 254 244 213 c 131,-1,36
 244 172 244 172 229 150 c 0,37,38
 203 113 203 113 157 113 c 2,39,-1
 148 113 l 2,40,41
 100 113 100 113 65 160 c 0,42,43
 48 183 48 183 48 202.5 c 3,44,45
 48 313 48 313 100.5 362 c 0,46,47
 151 409 151 409 218.5 409 c 131,-1,48
 286 409 286 409 336 364 c 0,49,50
 360 343 360 343 376 304 c 128,-1,51
 392 265 392 265 392 224 c 3,52,53
 392 176 392 176 354 144 c 1,54,-1
 508 144 l 1,55,-1
 508 312 l 2,56,57
 508 343 508 343 525 366.5 c 0,58,59
 543 392 543 392 572 401 c 256,60,61
 591 407 591 407 604 407 c 3,62,63
 618 407 618 407 631 402 c 0,64,65
 660 392 660 392 680 362 c 1,66,67
 724 410 724 410 784 410 c 2,68,-1
 792 410 l 2,69,70
 850 410 850 410 893 366 c 0,71,72
 931 327 931 327 931 245 c 3,73,74
 931 227 931 227 929 208 c 0,75,76
 923.096514408 144.242355606 923.096514408 144.242355606 862 99 c 24,77,78
 766 28 766 28 766 -12 c 3,79,80
 766 -26 766 -26 774 -39 c 0,81,82
 794 -72 794 -72 823 -72 c 3,83,84
 837 -72 837 -72 854 -64 c 0,85,86
 867 -58 867 -58 867 -45 c 3,87,88
 867 -28 867 -28 842 1 c 1,89,90
 842 4 842 4 842 7 c 0,91,92
 842 34 842 34 850 37 c 0,93,94
 858 39 858 39 865 39 c 7,95,96
 887 39 887 39 906 16 c 0,97,98
 922 -3 922 -3 922 -23 c 3,99,100
 922 -35 922 -35 916 -46 c 0,101,102
 895 -89 895 -89 844 -103 c 0,103,104
 829 -107 829 -107 813 -107 c 3,105,106
 777 -107 777 -107 740 -87 c 1,107,108
 706 -62 706 -62 706 -29 c 3,109,110
 706 8 706 8 722 28 c 26,111,-1
 798 124 l 2,112,113
 850 189.684210526 850 189.684210526 850 212 c 3,114,115
 850 280 850 280 830 315.5 c 0,116,117
 808.613518198 354.530329289 808.613518198 354.530329289 784 360 c 0,118,119
 775 362 775 362 766 362 c 3,120,121
 748.263157895 362 748.263157895 362 733 352 c 0,122,123
 704 331 704 331 704 277 c 2,124,-1
 704 120 l 2,125,126
 704 109 704 109 693 102.5 c 128,-1,127
 682 96 682 96 669 96 c 131,-1,128
 656 96 656 96 644.041992188 102.476074219 c 128,-1,129
 632 109 632 109 632 120 c 2,130,-1
 632 263 l 2,131,132
 632 292 632 292 621 310 c 0,133,134
 606 334 606 334 591 334 c 3,135,136
 580.3 334 580.3 334 574 327 c 24,137,138
 565 317 565 317 564 304 c 24,139,-1
 564 118 l 2,140,141
 564 96 564 96 532 96 c 2,142,-1
 257 96 l 0,143,144
 249 96 249 96 246 110 c 0,12,13
EndSplineSet
LCarets2: 2 0 0
Ligature2: "'akhn' Akhanda subtable" u11339 u1134D u1132E
EndChar

StartChar: uE10F
Encoding: 57615 57615 32
Width: 612
Flags: MW
LayerCount: 2
Fore
SplineSet
401 240 m 5,0,1
 403 223 403 223 403 197 c 3,2,3
 403 174 403 174 397 151 c 0,4,5
 389 124 389 124 379 112 c 0,6,7
 362 91 362 91 356 85.5 c 0,8,9
 337 68 337 68 305 67 c 0,10,11
 239 67 239 67 208.5 86.5 c 128,-1,12
 178 106 178 106 157 127 c 128,-1,13
 136 148 136 148 130 176 c 0,14,15
 126 194 126 194 126 208 c 3,16,17
 126 214 126 214 127 220 c 0,18,19
 133 250 133 250 217 285 c 1,20,-1
 217 390 l 2,21,22
 217 413 217 413 236 413 c 2,23,-1
 424 413 l 2,24,25
 434 413 434 413 440 405.5 c 128,-1,26
 446 398 446 398 446 389 c 259,27,28
 446 380 446 380 440 373 c 128,-1,29
 434 366 434 366 424 366 c 2,30,-1
 400 366 l 1,31,-1
 400 289 l 1,32,-1
 589 289 l 1,33,-1
 589 240 l 1,34,-1
 543 240 l 1,35,-1
 543 78 l 2,36,37
 543 22 543 22 468 -26 c 0,38,39
 396 -72 396 -72 320 -72 c 2,40,-1
 311 -72 l 2,41,42
 235 -72 235 -72 128 -14 c 0,43,44
 115 -7 115 -7 22 86 c 0,45,46
 0 108 0 108 -8 128 c 0,47,48
 -18 150 -18 150 -8 155 c 0,49,50
 -4 157 -4 157 0 157 c 3,51,52
 9 157 9 157 22 148 c 1,53,-1
 130 43 l 1,54,55
 207 -8 207 -8 263 -14 c 0,56,57
 282 -16 282 -16 300 -16 c 3,58,59
 377 -16 377 -16 423 12 c 0,60,61
 487 52 487 52 487 107 c 2,62,-1
 487 240 l 1,63,-1
 401 240 l 5,0,1
304 138 m 0,64,65
 341 160 341 160 341 199 c 3,66,67
 341 204 341 204 339.5 220 c 128,-1,68
 338 236 338 236 338 240 c 1,69,-1
 243 240 l 2,70,71
 196 240 196 240 186 215 c 0,72,73
 184 210 184 210 184 197.5 c 3,74,75
 184 188 184 188 192 173.5 c 0,76,77
 197 165 197 165 218 150 c 0,78,79
 243 132 243 132 257 132 c 3,80,81
 292 132 292 132 304 138 c 0,64,65
268 366 m 1,82,-1
 268 290 l 1,83,-1
 337 290 l 1,84,-1
 337 366 l 1,85,-1
 268 366 l 1,82,-1
EndSplineSet
LCarets2: 2 0 0
Ligature2: "'vatu' Vattu Variants subtable" u11324 uE205
EndChar

StartChar: uE110
Encoding: 57616 57616 33
Width: 869
Flags: MW
LayerCount: 2
Fore
SplineSet
498 113 m 2,0,1
 498 83 498 83 517 68 c 0,2,3
 533 52 533 52 553 52 c 3,4,5
 569 52 569 52 583 64 c 0,6,7
 602 77 602 77 602 101 c 2,8,-1
 602 361 l 1,9,-1
 498 361 l 1,10,-1
 498 113 l 2,0,1
37 -64 m 0,11,12
 10 -26 10 -26 10 -17 c 0,13,14
 10 -13 10 -13 13 -14 c 2,15,-1
 56 -30.5 l 2,16,17
 71 -37 71 -37 104 -48 c 0,18,19
 261 -103 261 -103 283 -107 c 0,20,21
 367 -122 367 -122 439 -122 c 3,22,23
 576 -122 576 -122 674 -64 c 0,24,25
 731 -30 731 -30 731 22 c 2,26,-1
 731 361 l 1,27,-1
 671 361 l 1,28,-1
 671 98 l 2,29,30
 671 33 671 33 602 10 c 0,31,32
 571 0 571 0 557 0 c 3,33,34
 524 0 524 0 491 22 c 0,35,36
 444 54 444 54 444 122 c 2,37,-1
 444 361 l 1,38,-1
 402 361 l 2,39,40
 368 361 368 361 354 348.5 c 0,41,42
 341 337 341 337 337 311 c 0,43,44
 336 304 336 304 336 275 c 2,45,-1
 336 134 l 2,46,47
 336 92 336 92 315.5 60.5 c 0,48,49
 296 31 296 31 268 16 c 0,50,51
 239 0 239 0 207 0 c 3,52,53
 177 0 177 0 147 15 c 0,54,55
 82 48 82 48 82 130 c 2,56,-1
 82 387 l 2,57,58
 82 395 82 395 89 399.5 c 128,-1,59
 96 404 96 404 105.5 404 c 131,-1,60
 115 404 115 404 123.5 399.5 c 128,-1,61
 132 395 132 395 132 387 c 2,62,-1
 132 134 l 2,63,64
 132 91 132 91 155 70.5 c 128,-1,65
 178 50 178 50 206 50 c 131,-1,66
 234 50 234 50 255 70 c 0,67,68
 273 88 273 88 273 123 c 2,69,-1
 273 261 l 2,70,71
 273 309 273 309 282 338 c 0,72,73
 293 372 293 372 320.5 390 c 0,74,75
 350 409 350 409 405 409 c 2,76,-1
 813 409 l 2,77,78
 820 409 820 409 829.5 398.5 c 128,-1,79
 839 388 839 388 830.545898438 374.072753906 c 128,-1,80
 822 360 822 360 817 360 c 2,81,-1
 782 360 l 1,82,-1
 782 -3 l 2,83,84
 782 -74.5552644506 782 -74.5552644506 647 -142 c 0,85,86
 575 -178 575 -178 461 -178 c 2,87,-1
 428 -178 l 2,88,89
 322 -178 322 -178 245 -155 c 0,90,91
 157 -129 157 -129 51 -76 c 0,92,93
 43 -72 43 -72 37 -64 c 0,11,12
EndSplineSet
LCarets2: 2 0 0
Ligature2: "'vatu' Vattu Variants subtable" u11336 uE205
EndChar

StartChar: uE111
Encoding: 57617 57617 34
Width: 890
Flags: MW
LayerCount: 2
Fore
SplineSet
139 51 m 1,0,1
 139 35 139 35 110.5 35 c 131,-1,2
 82 35 82 35 82 51 c 2,3,-1
 82 386 l 2,4,5
 82 396 82 396 95 401 c 1,6,7
 101 409 101 409 113 410 c 5,8,-1
 366 410 l 6,9,10
 376 410 376 410 381.5 402.5 c 128,-1,11
 387 395 387 395 387 387 c 259,12,13
 387 379 387 379 381.5 372 c 128,-1,14
 376 365 376 365 366 365 c 2,15,-1
 292 365 l 1,16,-1
 292 268 l 1,17,18
 319 278 319 278 351 278 c 2,19,20
 362 278 l 2,21,22
 456 278 456 278 487 226 c 24,23,24
 499 206 499 206 499 167 c 3,25,26
 499 141 499 141 491 124 c 24,27,28
 477 95 477 95 477 79 c 3,29,30
 477 57 477 57 488 46 c 0,31,32
 493 41 493 41 504 41 c 3,33,34
 506 41 506 41 523 43 c 24,35,36
 536 45 536 45 550 54 c 0,37,38
 590 81 590 81 590 120 c 2,39,40
 590 126 l 2,41,42
 590 162 590 162 571 181 c 0,43,44
 568 184 568 184 583 196.5 c 128,-1,45
 598 209 598 209 609 204 c 0,46,47
 627 194 627 194 640 165 c 0,48,49
 649 144 649 144 657.5 118.5 c 0,50,51
 671 77 671 77 677 69 c 0,52,53
 700 43 700 43 726 43 c 3,54,55
 751.019992006 43 751.019992006 43 769 72 c 0,56,57
 784 95 784 95 784 138 c 3,58,59
 784 162.705882353 784 162.705882353 778 192 c 24,60,61
 770 232 770 232 736 248 c 0,62,63
 722 255 722 255 703 255 c 3,64,65
 682.272727273 255 682.272727273 255 670 258 c 24,66,67
 651 263 651 263 661.5 280.5 c 0,68,69
 670 295 670 295 693 295 c 3,70,71
 742.010203019 295 742.010203019 295 793 254 c 0,72,73
 839 217 839 217 840 137 c 3,74,75
 840 127 840 127 839 118 c 0,76,77
 834 80 834 80 819 54 c 24,78,79
 794.919447463 16.1877113523 794.919447463 16.1877113523 758 5 c 0,80,81
 743 0 743 0 729 0 c 3,82,83
 708 0 708 0 685 10 c 0,84,85
 647 26 647 26 621 66 c 1,86,87
 604 38 604 38 578 19.5 c 128,-1,88
 552 1 552 1 520 0 c 2,89,-1
 513 0 l 2,90,91
 468 0 468 0 446 14 c 0,92,93
 422 29 422 29 413 57 c 0,94,95
 410 66 410 66 410 75 c 3,96,97
 410 95 410 95 426 116 c 0,98,99
 440 135 440 135 440 164 c 3,100,101
 440 196 440 196 418 214 c 0,102,103
 398 230 398 230 372 236 c 0,104,105
 364 238 364 238 355 238 c 3,106,107
 341 238 341 238 322 230 c 0,108,109
 292 218 292 218 292 185 c 26,110,-1
 292 157 l 2,111,112
 292 143 292 143 279.5 139.5 c 0,113,114
 268 136 268 136 254.5 135.5 c 0,115,116
 241 136 241 136 230.5 144 c 0,117,118
 220 151 220 151 220 162 c 2,119,-1
 220 365 l 1,120,-1
 138 365 l 1,121,-1
 138 51 l 1,122,-1
 139 51 l 1,0,1
EndSplineSet
Position2: "Single Position lookup 0-1" dx=0 dy=0 dh=-410 dv=0
LCarets2: 2 0 0
Ligature2: "'akhn' Akhanda subtable" u11328 u1134D u11327
EndChar

StartChar: uE112
Encoding: 57618 57618 35
Width: 659
Flags: MW
LayerCount: 2
Fore
SplineSet
114 54 m 1,0,1
 114 38 114 38 85.5 38 c 128,-1,2
 57 38 57 38 57 54 c 2,3,-1
 57 384 l 6,4,5
 57 394 57 394 70 399 c 5,6,7
 76 407 76 407 88 408 c 5,8,-1
 341 408 l 6,9,10
 351 408 351 408 356.5 400.5 c 132,-1,11
 362 393 362 393 362 385 c 135,-1,12
 362 377 362 377 356.5 370 c 132,-1,13
 351 363 351 363 341 363 c 6,14,-1
 267 363 l 5,15,-1
 267 271 l 1,16,17
 299 282 299 282 330 282 c 3,18,19
 363 282 363 282 403.5 266.5 c 0,20,21
 439 253 439 253 460.5 225 c 128,-1,22
 482 197 482 197 482 167 c 3,23,24
 482 95 482 95 406 49 c 1,25,-1
 550 49 l 1,26,-1
 550 258 l 2,27,28
 550 283 550 283 575 283 c 3,29,30
 603 283 603 283 603 262 c 2,31,-1
 603 0 l 1,32,-1
 194 0 l 2,33,34
 176 0 176 0 175 22 c 0,35,36
 175 49 175 49 192 49 c 2,37,-1
 210 49 l 2,38,39
 341 49 341 49 395 117 c 0,40,41
 412 138 412 138 412 165 c 3,42,43
 412 188 412 188 392.5 211 c 0,44,45
 373 233 373 233 347 239 c 0,46,47
 339 241 339 241 330 241 c 3,48,49
 318 241 318 241 298 233 c 0,50,51
 267 221 267 221 267 188 c 2,52,-1
 267 160 l 2,53,54
 267 148 267 148 254.5 142.5 c 0,55,56
 246 139 246 139 229.5 138.5 c 0,57,58
 219 138 219 138 205.5 147 c 0,59,60
 195 154 195 154 195 165 c 2,61,-1
 195 363 l 5,62,-1
 113 363 l 5,63,-1
 113 54 l 1,64,-1
 114 54 l 1,0,1
EndSplineSet
Position2: "Single Position lookup 0-1" dx=0 dy=0 dh=-240 dv=0
LCarets2: 2 0 0
Ligature2: "'akhn' Akhanda subtable" u11328 u1134D u11335
EndChar

StartChar: uE113
Encoding: 57619 57619 36
Width: 834
Flags: MW
LayerCount: 2
Fore
SplineSet
547 194 m 3,0,1
 547 199.333007812 547 199.333007812 546 211 c 2,2,-1
 543 246 l 1,3,-1
 433 246 l 2,4,5
 426 246 426 246 405 210 c 0,6,7
 400 202 400 202 400 190 c 27,8,9
 400 172 400 172 410 157 c 24,10,11
 426 132 426 132 443 125 c 0,12,13
 450 122 450 122 464 122 c 3,14,15
 480 122 480 122 503 126 c 24,16,17
 547 134 547 134 547 194 c 3,0,1
463 376 m 1,18,-1
 463 293 l 1,19,-1
 543 293 l 1,20,-1
 543 376 l 1,21,-1
 463 376 l 1,18,-1
357 397 m 3,22,23
 357 374 357 374 321 374 c 2,24,-1
 306 374 l 1,25,-1
 306 293 l 1,26,-1
 405 293 l 1,27,-1
 405 401 l 2,28,29
 405 410 405 410 417.5 415 c 0,30,31
 432 421 432 421 445 421 c 2,32,-1
 624 421 l 2,33,34
 641 421 641 421 650 413 c 0,35,36
 660 405 660 405 660 396 c 3,37,38
 660 390 660 390 654 383 c 0,39,40
 647 376 647 376 632 376 c 2,41,-1
 617 376 l 1,42,-1
 617 293 l 1,43,44
 629 293 l 2,45,46
 702 293 702 293 743 247 c 0,47,48
 794 189 794 189 794 134 c 3,49,50
 794 39 794 39 697 10 c 0,51,52
 663 0 663 0 579 0 c 2,53,54
 408 0 l 2,55,56
 320 0 320 0 310 -11 c 0,57,58
 308 -13 308 -13 308 -16 c 3,59,60
 308 -27 308 -27 333 -46 c 0,61,62
 341 -52 341 -52 341 -60 c 3,63,64
 341 -67 341 -67 328 -81 c 0,65,66
 320 -90 320 -90 305.5 -91.5 c 0,67,68
 300 -92 300 -92 283.5 -86.5 c 0,69,70
 266 -82 266 -82 258 -66 c 4,71,72
 249 -47 249 -47 249 -27 c 3,73,74
 249 -20 249 -20 251 -13 c 0,75,76
 256 1 256 1 270 11 c 0,77,78
 308 40 308 40 409 40 c 2,79,-1
 545 40 l 2,80,81
 676 40 676 40 717 91 c 0,82,83
 734 112 734 112 734 145 c 2,84,-1
 734 156 l 2,85,86
 734 188 734 188 704 218 c 0,87,88
 695 227 695 227 668 239 c 0,89,90
 652 246 652 246 623 246 c 2,91,-1
 617 246 l 1,92,93
 622 210 622 210 622 195 c 3,94,95
 622 191 622 191 622 187 c 3,96,97
 622 122 622 122 579 94 c 0,98,99
 550 75 550 75 504 75 c 3,100,101
 428 75 428 75 417 81 c 0,102,103
 349 118 349 118 349 160 c 3,104,105
 349 233 349 233 383 246 c 1,106,-1
 306 246 l 1,107,-1
 306 184 l 2,108,109
 306 65 306 65 264 43 c 0,110,111
 256 39 256 39 247 39 c 3,112,113
 236 39 236 39 226 43 c 0,114,115
 206 53 206 53 193 73 c 1,116,117
 178 41 178 41 148 41 c 3,118,119
 97 41 97 41 60 99 c 0,120,121
 41 129 41 129 41 163 c 2,122,-1
 41 171 l 2,123,124
 41 245 41 245 129 285 c 1,125,-1
 129 398 l 2,126,127
 129 404 129 404 132.5 407 c 128,-1,128
 136 410 136 410 141 411 c 1,129,130
 144 420 144 420 153 420 c 2,131,-1
 325 420 l 2,132,133
 340 420 340 420 348.5 412.5 c 128,-1,134
 357 405 357 405 357 397 c 3,22,23
207 152 m 24,135,136
 214 95 214 95 228 95 c 0,137,138
 234 95 234 95 240 115 c 0,139,140
 246 134 246 134 246 147 c 2,141,-1
 246 246 l 1,142,-1
 153 246 l 1,143,144
 113 228 113 228 99 204 c 0,145,146
 87 182 87 182 87 161 c 3,147,148
 87 138 87 138 102 117 c 0,149,150
 113 102 113 102 128.5 97 c 128,-1,151
 144 92 144 92 157 106 c 0,152,153
 168 119 168 119 168 152 c 2,154,-1
 168 168 l 2,155,156
 168 195 168 195 183.5 195 c 3,157,158
 201 195 201 195 202.5 189.5 c 0,159,160
 203 187 203 187 207 152 c 24,135,136
177 374 m 1,161,-1
 177 293 l 1,162,-1
 246 293 l 1,163,-1
 246 374 l 1,164,-1
 177 374 l 1,161,-1
EndSplineSet
LCarets2: 2 0 0
Ligature2: "'akhn' Akhanda subtable" u11315 u1134D u11324
EndChar

StartChar: uE114
Encoding: 57620 57620 37
Width: 854
Flags: MW
LayerCount: 2
Fore
SplineSet
583 63 m 1,0,1
 621.414634146 6.03961325396e-14 621.414634146 6.03961325396e-14 683 0 c 0,2,3
 733.152777778 0 733.152777778 0 766.5 49 c 0,4,5
 792 86 792 86 792 128 c 128,-1,6
 792 170 792 170 781 205 c 0,7,8
 768.181299151 251.28184347 768.181299151 251.28184347 723 269 c 0,9,10
 698 279 698 279 680.5 279 c 128,-1,11
 663 279 663 279 648 276 c 128,-1,12
 633 273 633 273 619.5 256 c 128,-1,13
 606 239 606 239 606 214 c 2,14,-1
 606 210 l 2,15,16
 606 193 606 193 620.5 176.5 c 128,-1,17
 635 160 635 160 656.496875488 149.75 c 128,-1,18
 677.993750976 139.5 677.993750976 139.5 698 139.5 c 128,-1,19
 718.006249024 139.5 718.006249024 139.5 734 151 c 1,20,-1
 734 140 l 2,21,22
 734 94 734 94 719 68 c 128,-1,23
 704 42 704 42 681 42 c 128,-1,24
 658 42 658 42 635 66 c 0,25,26
 600 100 600 100 600 146 c 0,27,28
 600 151 600 151 598 156 c 24,29,30
 589 178 589 178 565 193 c 0,31,32
 557 198 557 198 541.5 186.5 c 128,-1,33
 526 175 526 175 530 171 c 0,34,35
 548 153 548 153 548 125 c 0,36,37
 548 54.6 548 54.6 490 43 c 24,38,39
 480 41 480 41 473 41 c 0,40,41
 446 41 446 41 446 66 c 0,42,43
 446 120 446 120 472 172 c 16,44,45
 475 178 475 178 475 189 c 128,-1,46
 475 200 475 200 460 220 c 128,-1,47
 445 240 445 240 410.5 254 c 128,-1,48
 376 268 376 268 343 268 c 2,49,-1
 333 268 l 2,50,51
 301 268 301 268 273 257 c 1,52,-1
 273 354 l 1,53,-1
 347 354 l 2,54,55
 357 354 357 354 362.5 361 c 128,-1,56
 368 368 368 368 368 376 c 128,-1,57
 368 384 368 384 362.5 391.5 c 128,-1,58
 357 399 357 399 347 399 c 2,59,-1
 94 399 l 2,60,61
 82 399 82 399 76 390 c 1,62,63
 63 385 63 385 63 375 c 2,64,-1
 63 40 l 2,65,66
 63 24 63 24 91 24 c 128,-1,67
 119 24 119 24 119 40 c 2,68,-1
 119 354 l 1,69,-1
 201 354 l 1,70,-1
 201 151 l 2,71,72
 201 142 201 142 211.495371957 133.25 c 128,-1,73
 221.990743914 124.5 221.990743914 124.5 235.5 124.5 c 128,-1,74
 249.009256086 124.5 249.009256086 124.5 260.5 128 c 0,75,76
 272 133 272 133 273 149 c 5,77,-1
 273 174 l 2,78,79
 273 208 273 208 303 220 c 0,80,81
 320 227 320 227 334.5 227 c 0,82,83
 371.774193548 227 371.774193548 227 391.387096774 208 c 128,-1,84
 411 189 411 189 411 166 c 0,85,86
 411 159 411 159 392 112 c 0,87,88
 386 97 386 97 386 76.5 c 128,-1,89
 386 56 386 56 390 43 c 128,-1,90
 394 30 394 30 416.5 15 c 128,-1,91
 439 0 439 0 481 0 c 2,92,-1
 487 0 l 2,93,94
 542 0 542 0 583 63 c 1,0,1
716 226 m 0,95,96
 724 215 724 215 718 197 c 0,97,98
 712 178 712 178 686 177 c 1,99,-1
 681 177 l 2,100,101
 658 177 658 177 652 186 c 0,102,103
 644 196 644 196 644 212 c 0,104,105
 644 226 644 226 654.5 234.5 c 0,106,107
 664.992648648 242.5 664.992648648 242.5 682 242.5 c 0,108,109
 705.005434141 242.5 705.005434141 242.5 716 226 c 0,95,96
EndSplineSet
Position2: "Single Position lookup 0-1" dx=0 dy=0 dh=-410 dv=0
LCarets2: 2 0 0
Ligature2: "'akhn' Akhanda subtable" u11328 u1134D u11325
EndChar

StartChar: uE115
Encoding: 57621 57621 38
Width: 854
Flags: MW
LayerCount: 2
Fore
SplineSet
214 165 m 1024,0,-1
117 191 m 3,2,3
 117 133.921107229 117 133.921107229 150 118 c 0,4,5
 163 111 163 111 179 111 c 3,6,7
 209 111 209 111 218 137 c 0,8,9
 219 140 219 140 219 143 c 3,10,11
 219 154 219 154 211 170 c 0,12,13
 201 190 201 190 184 202.5 c 0,14,15
 167 216 167 216 152.5 216.5 c 0,16,17
 135 216 135 216 128.5 211 c 0,18,19
 117 203.041594579 117 203.041594579 117 191 c 3,2,3
735 113 m 1,20,-1
 735 226 l 1,21,22
 710 208 710 208 630 200 c 1,23,-1
 586 113 l 1,24,-1
 735 113 l 1,20,-1
433 238 m 3,25,26
 433 146 433 146 384 113 c 1,27,-1
 526 113 l 1,28,-1
 570 200 l 1,29,30
 525 205 525 205 509.5 230 c 128,-1,31
 494 255 494 255 494 307 c 2,32,-1
 494 312 l 2,33,34
 494 340 494 340 509 359 c 0,35,36
 532 390 532 390 569 390 c 3,37,38
 576 390 576 390 583 389 c 0,39,40
 630 382 630 382 651 328 c 0,41,42
 661 302 661 302 653 262 c 26,43,-1
 649 242 l 1,44,45
 683 251 683 251 726 285 c 0,46,47
 735 292 735 292 735 293 c 0,48,49
 735 303 735 303 756.5 303 c 131,-1,50
 778 303 778 303 783.5 298.5 c 0,51,52
 791 292 791 292 791 286 c 2,53,-1
 791 72 l 1,54,-1
 565 72 l 1,55,-1
 520 -16 l 24,56,-1
 795 -16 l 2,57,58
 809 -16 809 -16 809 -38 c 131,-1,59
 809 -60 809 -60 795 -60 c 2,60,-1
 653 -60 l 1,61,-1
 653 -110 l 2,62,63
 653 -128 653 -128 627.5 -128 c 131,-1,64
 602 -128 602 -128 602 -110 c 2,65,-1
 602 -60 l 1,66,-1
 460 -60 l 2,67,68
 437.363636364 -60 437.363636364 -60 443 -49 c 2,69,-1
 505 72 l 1,70,-1
 290 72 l 5,71,-1
 290 113 l 1,72,-1
 311 113 l 2,73,74
 340.811320755 113 340.811320755 113 352.5 142.5 c 0,75,76
 363 169 363 169 363 221 c 131,-1,77
 363 273 363 273 348 296 c 0,78,79
 316 349 316 349 262 349 c 2,80,-1
 254 349 l 2,81,82
 229 349 229 349 208 340 c 0,83,84
 180 328 180 328 160.5 308 c 128,-1,85
 141 288 141 288 126 246 c 1,86,87
 138 249 138 249 149 249 c 3,88,89
 167 249 167 249 184 242 c 0,90,91
 232 223 232 223 253 181 c 0,92,93
 264 159 264 159 264 144 c 3,94,95
 264 137 264 137 262 130 c 0,96,97
 246 81 246 81 184 73 c 0,98,99
 176 72 176 72 168 72 c 3,100,101
 118 72 118 72 85 122 c 0,102,103
 69 147 69 147 69 197 c 2,104,-1
 69 203 l 2,105,106
 69 312 69 312 164 369 c 0,107,108
 205 394 205 394 248 394 c 2,109,-1
 260 394 l 2,110,111
 349 394 349 394 402 327 c 0,112,113
 433 288 433 288 433 238 c 3,25,26
600 262 m 24,114,115
 603 271 603 271 603 283 c 3,116,117
 603 309.076809621 603 309.076809621 596 326 c 0,118,119
 588 350 588 350 577 355 c 256,120,121
 566 360 566 360 555 347.5 c 0,122,123
 540 331 540 331 540 305 c 27,124,125
 540 277 540 277 554.5 257.5 c 0,126,127
 567 242 567 242 590 239 c 1,128,-1
 600 262 l 24,114,115
EndSplineSet
Position2: "Single Position lookup 0-1" dx=0 dy=0 dh=-50 dv=0
LCarets2: 2 0 0
Ligature2: "'akhn' Akhanda subtable" u11337 u1134D u1131F
EndChar

StartChar: uE116
Encoding: 57622 57622 39
Width: 1228
Flags: MW
LayerCount: 2
Fore
SplineSet
474 347 m 1,0,-1
 474 272 l 1,1,-1
 553 272 l 1,2,-1
 553 347 l 1,3,-1
 474 347 l 1,0,-1
834 111 m 0,4,5
 825 149 825 149 804.5 167.5 c 0,6,7
 779 190 779 190 743 203 c 1,8,9
 727 174 727 174 727 128 c 131,-1,10
 727 82 727 82 746 62 c 0,11,12
 764 42 764 42 788 42 c 3,13,14
 808 42 808 42 822 55.5 c 128,-1,15
 836 69 836 69 836 90 c 0,16,17
 836 100 836 100 834 111 c 0,4,5
216 200 m 2,18,-1
 216 203 l 2,19,20
 216 231 216 231 198 244 c 0,21,22
 183.142578125 256 183.142578125 256 160 256 c 3,23,24
 139 256 139 256 122 242.5 c 0,25,26
 106 230 106 230 106 203 c 2,27,-1
 106 200 l 2,28,29
 106 180 106 180 123 168 c 0,30,31
 143 154 143 154 161 154 c 2,32,-1
 166 154 l 2,33,34
 184 154 184 154 199 164 c 0,35,36
 216 174 216 174 216 200 c 2,18,-1
517 70 m 0,37,38
 551 78 551 78 556 118 c 0,39,40
 557 128 557 128 557 140 c 131,-1,41
 557 152 557 152 556 166 c 0,42,43
 554 192 554 192 553 217 c 1,44,-1
 451 217 l 1,45,46
 411 203 411 203 398 175 c 0,47,48
 390 159 390 159 390 143 c 3,49,50
 390 131 390 131 394 120 c 0,51,52
 404 94 404 94 436 78 c 0,53,54
 454.980007994 68 454.980007994 68 480 68 c 3,55,56
 506.915114463 68 506.915114463 68 517 70 c 0,37,38
517 0 m 3,57,58
 446 0 446 0 402.5 25.5 c 0,59,60
 358 51 358 51 342 88 c 0,61,62
 332 111 332 111 332 137 c 3,63,64
 332 151 332 151 336 166 c 0,65,66
 346 207 346 207 382 237 c 1,67,68
 365 274 365 274 329.5 303.5 c 128,-1,69
 294 333 294 333 255 346 c 0,70,71
 232 354 232 354 211 354 c 3,72,73
 195 354 195 354 179 350 c 0,74,75
 142 340 142 340 121 300 c 1,76,77
 139 304 139 304 156 304 c 3,78,79
 191 304 191 304 222 287 c 0,80,81
 272 260 272 260 272 203 c 2,82,-1
 272 200 l 2,83,84
 272 137 272 137 212 108 c 0,85,86
 185 95 185 95 153 95 c 3,87,88
 125 95 125 95 98 106 c 0,89,90
 37 133 37 133 37 200 c 2,91,-1
 37 206 l 2,92,93
 37 327 37 327 125 376 c 0,94,95
 165 398 165 398 205 398 c 2,96,-1
 219 398 l 2,97,98
 258 398 258 398 290 388 c 0,99,100
 381 359 381 359 419 295 c 1,101,-1
 419 383 l 2,102,103
 419 395 419 395 430 398 c 0,104,105
 450 402 450 402 457 402 c 2,106,-1
 649 402 l 2,107,108
 667 402 667 402 676 392 c 0,109,110
 683 383 683 383 683 373.5 c 131,-1,111
 683 364 683 364 673.5 355.5 c 0,112,113
 665 347 665 347 651 347 c 2,114,-1
 623 347 l 1,115,-1
 623 270 l 1,116,117
 672 266 672 266 714 257 c 1,118,119
 764 318 764 318 844 327 c 0,120,121
 862 329 862 329 880 329 c 3,122,123
 940 329 940 329 986 300 c 0,124,125
 1056 255 1056 255 1056 178 c 2,126,127
 1056 165 l 2,128,129
 1056 91 1056 91 1001 48 c 1,130,-1
 1123 48 l 1,131,-1
 1123 379 l 2,132,133
 1123 387 1123 387 1133.5 395 c 0,134,135
 1142.80196097 404 1142.80196097 404 1153 404 c 135,-1,136
 1163.19803903 404 1163.19803903 404 1172 401.5 c 0,137,138
 1181 397 1181 397 1181 387 c 2,139,-1
 1181 0 l 1,140,-1
 907 0 l 1,141,-1
 907 48 l 1,142,143
 934 48 934 48 949.5 64.5 c 0,144,145
 966 80 966 80 972 102 c 0,146,147
 980 129 980 129 980 151 c 2,148,-1
 980 177 l 2,149,150
 980 221 980 221 954.5 248.5 c 128,-1,151
 929 276 929 276 896 284 c 0,152,153
 881 288 881 288 866 288 c 3,154,155
 848 288 848 288 828 282 c 0,156,157
 792 272 792 272 766 240 c 1,158,159
 847 201 847 201 873 123 c 24,160,161
 879 105 879 105 879 89 c 3,162,163
 879 76 879 76 875 64 c 0,164,165
 866 35 866 35 845.5 19.5 c 0,166,167
 826 5 826 5 798 1 c 0,168,169
 792 0 792 0 785 0 c 3,170,171
 764 0 764 0 744 9 c 0,172,173
 721 20 721 20 698 51 c 0,174,175
 674 84 674 84 674 130 c 3,176,177
 674 180 674 180 690 217 c 1,178,179
 658 223 658 223 631 223 c 2,180,-1
 623 223 l 1,181,182
 625 196 625 196 628 158 c 0,183,184
 629 148 629 148 629 137 c 3,185,186
 629 110 629 110 623 84 c 0,187,188
 615 48 615 48 591.5 24 c 128,-1,189
 568 0 568 0 517 0 c 3,57,58
EndSplineSet
LCarets2: 4 0 0 0 0
Ligature2: "'akhn' Akhanda subtable" u11328 u1134D u11324 u1134D u11335
EndChar

StartChar: uE200
Encoding: 57856 57856 40
Width: 404
Flags: MW
LayerCount: 2
Fore
SplineSet
61 54 m 6,0,-1
 177 54 l 1,1,2
 178 76 178 76 190.5 132 c 128,-1,3
 203 188 203 188 208.5 207.5 c 152,-1,4
 214 227 214 227 242 315 c 0,5,6
 254 352 254 352 253.5 398 c 128,-1,7
 253 444 253 444 231 477.5 c 128,-1,8
 209 511 209 511 164 542 c 25,9,-1
 132 549 l 25,10,11
 124 556 124 556 124 566 c 0,12,13
 123 589 123 589 139 590 c 0,14,15
 142 590 142 590 178 576 c 0,16,17
 216 562 216 562 240.5 540.5 c 128,-1,18
 265 519 265 519 283 485.5 c 128,-1,19
 301 452 301 452 301 408 c 128,-1,20
 301 364 301 364 296 331 c 0,21,22
 291 297 291 297 269.5 225 c 128,-1,23
 248 153 248 153 244 122.5 c 128,-1,24
 240 92 240 92 232 53 c 1,25,26
 284 50 284 50 316 31 c 0,27,28
 374 -3.17857142857 374 -3.17857142857 374 -74 c 0,29,30
 374 -141.266666667 374 -141.266666667 322 -169 c 0,31,32
 307 -177 307 -177 285 -177 c 0,33,34
 277 -177 277 -177 269 -176 c 8,35,36
 236 -172 236 -172 221.5 -160 c 128,-1,37
 207 -148 207 -148 196 -124 c 0,38,39
 177 -83 177 -83 177 2 c 1,40,-1
 55 2 l 2,41,42
 32 2 32 2 19 11.5 c 128,-1,43
 6 21 6 21 6 30 c 128,-1,44
 6 39 6 39 20.5 46.5 c 128,-1,45
 35 54 35 54 61 54 c 6,0,-1
288 -124 m 1,46,47
 310 -124 310 -124 322 -109 c 0,48,49
 330 -98 330 -98 330 -84 c 0,50,51
 330 -78 330 -78 328 -72 c 0,52,53
 324 -50 324 -50 299 -29 c 128,-1,54
 274 -8 274 -8 225 0 c 1,55,56
 225 -48 225 -48 230 -83 c 128,-1,57
 235 -118 235 -118 263 -121 c 2,58,-1
 288 -124 l 1,46,47
EndSplineSet
Validated: 33
Ligature2: "Ligature Substitution post repha rakara ya subtable" u11330 u1134D
Substitution2: "Accent marker rearrangement single substitution 67-1" u11301
Substitution2: "Accent marker rearrangement single substitution 48-1" u1CF4
Substitution2: "Accent marker rearrangement single substitution 47-1" u0952
Substitution2: "Accent marker rearrangement single substitution 46-1" u0951
PairPos2: "'dist' Distance lookup intra-post-base marker 2-2" u11344 dx=0 dy=0 dh=20 dv=0 dx=0 dy=-100 dh=0 dv=0
Substitution2: "Vowel marker rearrangement single substitution 7-1" u1134D
Substitution2: "Vowel marker rearrangement single substitution 6-1" u11340
Substitution2: "Vowel marker rearrangement single substitution 3-1" u1133F
LCarets2: 1 0
EndChar

StartChar: uE201
Encoding: 57857 57857 41
Width: 407
Flags: MW
LayerCount: 2
Fore
SplineSet
159 478 m 1,0,1
 159 510 159 510 186 510 c 0,2,3
 218 510 218 510 225 499 c 0,4,5
 364 313 364 313 366 104 c 0,6,7
 366 5 366 5 354 -57 c 152,-1,8
 342 -119 342 -119 314 -153.5 c 128,-1,9
 286 -188 286 -188 256 -200 c 0,10,11
 234 -209 234 -209 213 -209 c 0,12,13
 205 -209 205 -209 196 -208 c 0,14,15
 167 -203 167 -203 145 -185 c 128,-1,16
 123 -167 123 -167 123 -138 c 128,-1,17
 123 -109 123 -109 135 -74 c 25,18,-1
 151 -51 l 25,19,20
 165 -22 165 -22 165 2 c 128,-1,21
 165 26 165 26 152 41 c 128,-1,22
 139 56 139 56 119 62 c 0,23,24
 112 64 112 64 105 63 c 0,25,26
 92 63 92 63 78 57 c 1,27,-1
 72 33 l 1,28,29
 63 26 63 26 49.5 26 c 128,-1,30
 36 26 36 26 34 35 c 0,31,32
 30 51 30 51 29 52 c 0,33,34
 29 60 29 60 49 72 c 0,35,36
 79 90 79 90 109.5 90 c 128,-1,37
 140 90 140 90 160 80 c 0,38,39
 208 58 208 58 208 7 c 0,40,41
 208 -20 208 -20 197 -56 c 16,42,43
 190 -79 190 -79 190 -98 c 0,44,45
 190 -108 190 -108 192 -116 c 0,46,47
 198 -140 198 -140 216 -147 c 0,48,49
 220 -149 220 -149 225 -149 c 0,50,51
 239 -149 239 -149 256 -135 c 0,52,53
 306 -96 306 -96 306 80 c 4,54,55
 306 192 306 192 299 244.5 c 128,-1,56
 292 297 292 297 264.5 360 c 128,-1,57
 237 423 237 423 196 452 c 2,58,-1
 159 478 l 1,0,1
EndSplineSet
Validated: 1
Ligature2: "Ligature Substitution post repha rakara ya subtable" u1134D u1132F
Substitution2: "Accent marker rearrangement single substitution 68-1" u11301
Substitution2: "Accent marker rearrangement single substitution 51-1" u1CF4
Substitution2: "Accent marker rearrangement single substitution 50-1" u0952
Substitution2: "Accent marker rearrangement single substitution 49-1" u0951
Substitution2: "Vowel marker rearrangement single substitution 4-1" u11340
Substitution2: "Vowel marker rearrangement single substitution 1-1" u1133F
LCarets2: 1 0
EndChar

StartChar: uE203
Encoding: 57859 57859 42
Width: 234
Flags: MW
LayerCount: 2
Fore
SplineSet
-25 -243 m 4,0,1
 -8 -243 -8 -243 12 -240 c 4,2,3
 148 -220 148 -220 148 -2 c 6,4,-1
 148 147 l 1,5,-1
 190 147 l 2,6,7
 200 147 200 147 206.5 155.5 c 128,-1,8
 213 164 213 164 213 174 c 256,9,10
 213 184 213 184 207 192.5 c 128,-1,11
 201 201 201 201 190 201 c 2,12,-1
 43 201 l 2,13,14
 31 201 31 201 25 192.5 c 128,-1,15
 19 184 19 184 19 174 c 256,16,17
 19 164 19 164 25.5 155.5 c 128,-1,18
 32 147 32 147 43 147 c 2,19,-1
 90 147 l 1,20,-1
 90 -2 l 6,21,22
 90 -74 90 -74 84 -114 c 5,23,24
 59 -200 59 -200 -5 -203 c 4,25,26
 -30 -204 -30 -204 -38 -204 c 28,27,28
 -43 -204 -43 -204 -90 -204 c 4,29,30
 -147 -204 -147 -204 -164.5 -203.5 c 4,31,32
 -229 -203 -229 -203 -239 -202 c 4,33,34
 -383 -188 -383 -188 -405.5 -183 c 4,35,36
 -547 -149 -547 -149 -571 -149 c 4,37,38
 -602 -149 -602 -149 -602 -169 c 4,39,40
 -602 -184 -602 -184 -580 -191 c 4,41,42
 -577 -192 -577 -192 -520 -204 c 4,43,44
 -397 -228 -397 -228 -360.970703125 -231.102539062 c 28,45,46
 -277 -238 -277 -238 -277.41015625 -238.8515625 c 6,47,-1
 -169 -242 l 28,48,49
 -167 -243 -167 -243 -25 -243 c 4,0,1
EndSplineSet
EndChar

StartChar: uE204
Encoding: 57860 57860 43
Width: 235
Flags: MW
LayerCount: 2
Fore
SplineSet
-5 -381 m 6,0,1
 74.1229324076 -379.782724117 74.1229324076 -379.782724117 117 -304 c 4,2,3
 149 -248 149 -248 149 -186 c 6,4,-1
 149 147 l 1,5,-1
 191 147 l 2,6,7
 202 147 202 147 208 155.5 c 128,-1,8
 214 164 214 164 214 174 c 256,9,10
 214 184 214 184 208 192.5 c 128,-1,11
 202 201 202 201 191 201 c 2,12,-1
 44 201 l 2,13,14
 32 201 32 201 26 192.5 c 128,-1,15
 20 184 20 184 20 174 c 256,16,17
 20 164 20 164 26.5 155.5 c 128,-1,18
 33 147 33 147 44 147 c 2,19,-1
 91 147 l 1,20,-1
 91 -186 l 6,21,22
 91 -250 91 -250 73 -276.5 c 4,23,24
 67 -286 67 -286 33 -321.75 c 4,25,26
 26 -329 26 -329 -12 -336.5 c 4,27,28
 -20 -338 -20 -338 -66.5 -337.25 c 4,29,30
 -251 -333 -251 -333 -374 -312 c 4,31,32
 -589 -276 -589 -276 -639 -276 c 4,33,34
 -650 -276 -650 -276 -659.5 -286.5 c 132,-1,35
 -669 -297 -669 -297 -665.5 -306.5 c 132,-1,36
 -662 -316 -662 -316 -618.5 -329.5 c 4,37,38
 -553 -350 -553 -350 -404.5 -363 c 4,39,40
 -343 -369 l 4,41,-1
 -252 -376 l 4,42,43
 -252 -379.164835165 -252 -379.164835165 -166 -382 c 28,44,45
 -151 -383 -151 -383 -70 -382 c 28,46,47
 -6 -382 -6 -382 -5 -381 c 6,0,1
EndSplineSet
LCarets2: 1 0
EndChar

StartChar: uE280
Encoding: 57984 57984 44
Width: 308
Flags: MW
LayerCount: 2
Fore
SplineSet
116 108 m 1,0,-1
 100 113 l 2,1,2
 97 113 97 113 89 108 c 128,-1,3
 81 103 81 103 81 95 c 0,4,5
 81 71 81 71 102 62 c 2,6,-1
 119 54 l 1,7,-1
 142 50 l 1,8,9
 147 48 147 48 173 52.5 c 128,-1,10
 199 57 199 57 212 77 c 128,-1,11
 225 97 225 97 225.5 112.5 c 128,-1,12
 226 128 226 128 226 130 c 128,-1,13
 226 132 226 132 224.5 144.5 c 128,-1,14
 223 157 223 157 217 173 c 128,-1,15
 211 189 211 189 189.5 204 c 128,-1,16
 168 219 168 219 137 219 c 2,17,-1
 79 219 l 2,18,19
 74 219 74 219 70 227 c 128,-1,20
 66 235 66 235 66 243 c 0,21,22
 66 263 66 263 98 263 c 2,23,24
 124 263 124 263 150 263 c 2,25,26
 178 263 178 263 191 295 c 0,27,28
 197 308 197 308 197 327.5 c 128,-1,29
 197 347 197 347 188.5 359 c 128,-1,30
 180 371 180 371 170.5 375.5 c 128,-1,31
 161 380 161 380 154 380 c 128,-1,32
 147 380 147 380 136.5 378.5 c 128,-1,33
 126 377 126 377 116 367 c 128,-1,34
 106 357 106 357 106 351 c 128,-1,35
 106 345 106 345 107 340 c 1,36,-1
 79 312 l 1,37,38
 70 338 70 338 70 358 c 128,-1,39
 70 378 70 378 91.5 403 c 128,-1,40
 113 428 113 428 134 428 c 2,41,-1
 160 428 l 2,42,43
 203 428 203 428 228 375 c 0,44,45
 238 356 238 356 238 322.5 c 128,-1,46
 238 289 238 289 230.5 274 c 128,-1,47
 223 259 223 259 209 248 c 1,48,49
 253 235 253 235 271 183 c 0,50,51
 278 163 278 163 278 127.5 c 128,-1,52
 278 92 278 92 265 65 c 0,53,54
 234 0 234 0 152 0 c 2,55,-1
 146 0 l 2,56,57
 125 0 125 0 108.5 4.5 c 128,-1,58
 92 9 92 9 71.5 26.5 c 128,-1,59
 51 44 51 44 42 58.5 c 128,-1,60
 33 73 33 73 33 103 c 128,-1,61
 33 133 33 133 64 149 c 0,62,63
 83 160 83 160 99 160 c 128,-1,64
 115 160 115 160 132 152 c 1,65,66
 142 142 142 142 142 133 c 0,67,68
 142 114 142 114 123 109 c 0,69,70
 121 108 121 108 116 108 c 1,0,-1
EndSplineSet
EndChar

StartChar: uE400
Encoding: 58368 58368 98
Width: 508
Flags: MW
LayerCount: 2
Fore
SplineSet
304 384 m 0,0,1
 304 414 304 414 288 414 c 2,2,-1
 112 414 l 2,3,4
 101 414 101 414 90 407.5 c 128,-1,5
 79 401 79 401 79 381 c 2,6,-1
 79 265 l 1,7,8
 46 252 46 252 27.5 226 c 0,9,10
 8 200 8 200 4 171 c 0,11,12
 2 161 2 161 3 151 c 0,13,14
 2 132 2 132 8 112 c 0,15,16
 27 46 27 46 95 16 c 0,17,18
 131 0 131 0 175.5 0 c 128,-1,19
 220 0 220 0 242.5 25.5 c 128,-1,20
 265 51 265 51 268 79.5 c 128,-1,21
 271 108 271 108 271 217 c 1,22,23
 274 217 274 217 277 217 c 0,24,25
 303 218 303 218 325 210 c 0,26,27
 350 202 350 202 370 193 c 1,28,29
 358 176 358 176 355.5 157.5 c 128,-1,30
 353 139 353 139 350 127 c 128,-1,31
 347 115 347 115 347 88 c 128,-1,32
 347 61 347 61 354.5 44 c 128,-1,33
 362 27 362 27 377 13.5 c 128,-1,34
 392 0 392 0 410 0 c 0,35,36
 480 0 480 0 479 105 c 0,37,38
 479 155 479 155 440 202 c 0,39,40
 430 214 430 214 424 223 c 1,41,42
 426 228 426 228 428 234.5 c 128,-1,43
 430 241 430 241 433 249.5 c 128,-1,44
 436 258 436 258 438 268 c 128,-1,45
 440 278 440 278 446 308 c 0,46,47
 449 322 449 322 449 335 c 0,48,49
 449 352 449 352 445 366 c 0,50,51
 432 414 432 414 392 414 c 0,52,53
 356 414 356 414 356 390 c 4,54,55
 356 374 356 374 370 371 c 24,56,57
 394 366 394 366 398 364 c 0,58,59
 410 354 410 354 410 337 c 0,60,61
 410 309 410 309 389 243 c 1,62,63
 336 263 336 263 270 268 c 1,64,-1
 270 356 l 1,65,-1
 283 356 l 2,66,67
 293 356 293 356 298.5 365 c 128,-1,68
 304 374 304 374 304 384 c 0,0,1
203 121 m 2,69,70
 203 71 203 71 170 69 c 0,71,72
 119 69 119 69 88 88.5 c 128,-1,73
 57 108 57 108 52 128 c 0,74,75
 50 134 50 134 50 142 c 0,76,77
 50 159 50 159 58 182 c 0,78,79
 70 215 70 215 106 215 c 2,80,-1
 203 215 l 1,81,-1
 203 121 l 2,69,70
131 356 m 1,82,-1
 204 356 l 1,83,-1
 204 269 l 1,84,-1
 131 269 l 1,85,-1
 131 356 l 1,82,-1
404 171 m 1,86,87
 425 150 425 150 431 133.5 c 128,-1,88
 437 117 437 117 437 91 c 128,-1,89
 437 65 437 65 433 55.5 c 128,-1,90
 429 46 429 46 421 42 c 128,-1,91
 413 38 413 38 404 42.5 c 128,-1,92
 395 47 395 47 391 62 c 128,-1,93
 387 77 387 77 387 104 c 128,-1,94
 387 131 387 131 404 171 c 1,86,87
EndSplineSet
Validated: 41
LCarets2: 1 0
Ligature2: "'haln' Halant Forms subtable" u11324 u1134D
EndChar

StartChar: uE401
Encoding: 58369 58369 99
Width: 512
Flags: MW
LayerCount: 2
Fore
SplineSet
224 256 m 1,0,1
 264 279 264 279 303 279 c 0,2,3
 322 279 322 279 341 274 c 1,4,5
 348 284 348 284 352 296 c 2,6,-1
 359 341 l 2,7,8
 358 355 358 355 350 361 c 128,-1,9
 342 367 342 367 317 371 c 0,10,11
 303 373 303 373 303.5 386.5 c 128,-1,12
 304 400 304 400 313 407 c 128,-1,13
 322 414 322 414 340 414 c 0,14,15
 382 414 382 414 393 366 c 16,16,17
 397 350 397 350 397 334 c 0,18,19
 397 297 397 297 376 260 c 1,20,21
 399 246 399 246 419 214.5 c 128,-1,22
 439 183 439 183 439 152 c 128,-1,23
 439 121 439 121 436.5 95.5 c 128,-1,24
 434 70 434 70 424 48 c 0,25,26
 401 0 401 0 347 0 c 1,27,28
 327 0 327 0 310 17 c 128,-1,29
 293 34 293 34 287 63 c 0,30,31
 284 80 284 80 284 98 c 0,32,33
 284 156 284 156 319 230 c 1,34,35
 299 239 299 239 281 239 c 0,36,37
 270 240 270 240 259 236 c 0,38,39
 226 225 226 225 226 176 c 0,40,41
 226 169 226 169 202 168 c 0,42,43
 193 168 193 168 185 168 c 0,44,45
 174 168 174 168 169 169 c 0,46,47
 161 171 161 171 158.5 172.5 c 128,-1,48
 156 174 156 174 156 185 c 2,49,-1
 156 366 l 1,50,-1
 80 366 l 1,51,-1
 80 97 l 2,52,53
 80 89 80 89 71.5 84.5 c 128,-1,54
 63 80 63 80 53 80 c 256,55,56
 43 80 43 80 35 84.5 c 128,-1,57
 27 89 27 89 27 97 c 2,58,-1
 27 378 l 2,59,60
 27 412 27 412 51 412 c 6,61,-1
 241 412 l 6,62,63
 251 412 251 412 256.5 404.5 c 128,-1,64
 262 397 262 397 262 388.5 c 128,-1,65
 262 380 262 380 256.5 373 c 128,-1,66
 251 366 251 366 241 366 c 2,67,-1
 224 366 l 1,68,-1
 224 256 l 1,0,1
388 122 m 258,69,-1
 388 150 l 2,70,71
 388 162 388 162 378 179 c 128,-1,72
 368 196 368 196 355 208 c 1,73,74
 326 130 326 130 326 89 c 0,75,76
 326 53 326 53 348 46 c 1,77,78
 388 46 388 46 388 122 c 258,69,-1
EndSplineSet
Validated: 1
LCarets2: 1 0
Ligature2: "'haln' Halant Forms subtable" u11328 u1134D
EndChar

StartChar: uE402
Encoding: 58370 58370 100
Width: 561
Flags: MW
LayerCount: 2
Fore
SplineSet
399 79 m 0,0,1
 399 109 399 109 355 109 c 0,2,3
 314 108 314 108 288 100 c 0,4,5
 274 96 274 96 274 86 c 0,6,7
 274 35 274 35 348 35 c 0,8,9
 399 35 399 35 399 79 c 0,0,1
406 396 m 0,10,11
 504 364 504 364 504 290 c 0,12,13
 504 223 504 223 380 166 c 0,14,15
 328 139 l 5,16,17
 338 139 338 139 348 139 c 0,18,19
 392 139 392 139 416.5 122 c 128,-1,20
 441 105 441 105 441 80 c 0,21,22
 440 36 440 36 396 15 c 0,23,24
 366 0 366 0 334 -0 c 128,-1,25
 302 0 302 0 264.5 18 c 128,-1,26
 227 36 227 36 227 66.5 c 128,-1,27
 227 97 227 97 231 103 c 128,-1,28
 235 109 235 109 237 113 c 1,29,30
 171 133 171 133 100 195 c 128,-1,31
 29 257 29 257 29 339 c 2,32,-1
 29 439 l 1,33,-1
 72 439 l 1,34,-1
 72 342 l 2,35,36
 72 275 72 275 135.5 217.5 c 128,-1,37
 199 160 199 160 265 144 c 1,38,39
 292 163 292 163 324.5 180 c 128,-1,40
 357 197 357 197 386 214 c 0,41,42
 454 252 454 252 454 305 c 0,43,44
 454 350 454 350 355 366 c 0,45,46
 336 369 336 369 318 369 c 0,47,48
 261 369 261 369 237 354 c 1,49,50
 263 354 263 354 302 324 c 0,51,52
 323 308 323 308 323 283 c 128,-1,53
 323 258 323 258 305.5 239.5 c 128,-1,54
 288 221 288 221 249.5 221 c 128,-1,55
 211 221 211 221 179 242.5 c 128,-1,56
 147 264 147 264 147 286 c 24,57,58
 147 327 147 327 174 356 c 0,59,60
 224 410 224 410 323 410 c 0,61,62
 363 410 363 410 406 396 c 0,10,11
238 263 m 0,63,64
 272 263 272 263 272 284 c 0,65,66
 272 298 272 298 258 312 c 128,-1,67
 244 326 244 326 228 326 c 0,68,69
 210 326 210 326 206 320 c 128,-1,70
 202 314 202 314 200 303 c 0,71,72
 201 263 201 263 238 263 c 0,63,64
EndSplineSet
Ligature2: "'haln' Halant Forms subtable" u1132E u1134D
LCarets2: 1 0
EndChar

StartChar: uE403
Encoding: 58371 58371 101
Width: 716
Flags: MW
LayerCount: 2
Fore
SplineSet
592 209 m 1,0,1
 565 144 565 144 565 113 c 2,2,-1
 565 83 l 2,3,4
 565 48 565 48 584 47 c 1,5,6
 624 47 624 47 624 123 c 2,7,-1
 624 144 l 2,8,9
 624 181 624 181 592 209 c 1,0,1
486 262 m 1,10,-1
 549 265 l 1,11,12
 572 265 572 265 574 264 c 1,13,14
 580 275 l 1,15,16
 586 284 586 284 588 296 c 2,17,-1
 596 341 l 2,18,19
 595 355 595 355 587 361 c 128,-1,20
 579 367 579 367 554 371 c 0,21,22
 540 373 540 373 540.5 386.5 c 128,-1,23
 541 400 541 400 550 407 c 0,24,25
 558 414 558 414 576 414 c 0,26,27
 618 413 618 413 630 367 c 0,28,29
 633 355 633 355 633 341 c 0,30,31
 633 305 633 305 610 259 c 1,32,33
 678 222 678 222 678 144 c 2,34,-1
 678 114 l 2,35,36
 678 85 678 85 660 50 c 0,37,38
 634 0 634 0 588 0 c 0,39,40
 562 0 562 0 547 18 c 0,41,42
 522 48 522 48 522 104 c 2,43,-1
 522 134 l 2,44,45
 522 181 522 181 556 231 c 1,46,47
 542 229 542 229 529 229 c 0,48,49
 502 229 502 229 486 196 c 25,50,-1
 486 178 l 2,51,52
 486 167 486 167 474 161.5 c 128,-1,53
 462 156 462 156 448 156 c 128,-1,54
 434 156 434 156 422 161.5 c 128,-1,55
 410 167 410 167 410 178 c 2,56,-1
 410 366 l 1,57,-1
 328 366 l 1,58,-1
 328 143 l 2,59,60
 328 130 328 130 298 130 c 128,-1,61
 268 130 268 130 268 145 c 2,62,-1
 268 173 l 2,63,64
 268 274 268 274 211 331 c 0,65,66
 175 367 175 367 130 367 c 0,67,68
 91 367 91 367 67 336 c 0,69,70
 50 315 50 315 50 280 c 1,71,72
 74 293 74 293 105 293 c 0,73,74
 167 293 167 293 197 251 c 0,75,76
 214 227 214 227 214 201 c 0,77,78
 214 154 214 154 161 132 c 0,79,80
 136 121 136 121 110 121 c 0,81,82
 56 121 56 121 20 156 c 0,83,84
 7 168 7 168 2 200 c 0,85,86
 1 206 1 206 1 254 c 128,-1,87
 1 302 1 302 2 308 c 0,88,89
 8 343 8 343 32 371.5 c 128,-1,90
 56 400 56 400 79 405 c 128,-1,91
 102 410 102 410 120 410 c 0,92,93
 202 410 202 410 268 337 c 1,94,-1
 268 393 l 2,95,96
 268 409 268 409 275 410 c 25,97,98
 277 414 277 414 298 414 c 2,99,-1
 494 414 l 2,100,101
 504 414 504 414 509 406 c 128,-1,102
 514 398 514 398 514 389.5 c 128,-1,103
 514 381 514 381 509 373.5 c 128,-1,104
 504 366 504 366 494 366 c 2,105,-1
 486 366 l 1,106,-1
 486 262 l 1,10,-1
139 170.5 m 128,-1,108
 152 182 152 182 152 203.5 c 128,-1,109
 152 225 152 225 138 241 c 128,-1,110
 124 257 124 257 108 257 c 128,-1,111
 92 257 92 257 78 245 c 128,-1,112
 64 233 64 233 64 208 c 128,-1,113
 64 183 64 183 78 171 c 128,-1,114
 92 159 92 159 109 159 c 128,-1,107
 126 159 126 159 139 170.5 c 128,-1,108
EndSplineSet
Validated: 1
LCarets2: 1 0
Ligature2: "'haln' Halant Forms subtable" uE101 u1134D
EndChar

StartChar: u11302
Encoding: 70402 70402 102
Width: 366
Flags: MW
LayerCount: 2
Fore
SplineSet
345 208 m 0,0,1
 345 176 345 176 322 151.5 c 128,-1,2
 299 127 299 127 264.5 115 c 0,3,4
 230 102 230 102 190 102 c 0,5,6
 188 102 188 102 187 102 c 0,7,8
 150 102 150 102 116 114 c 128,-1,9
 82 126 82 126 58.5 150.5 c 0,10,11
 35 176 35 176 35 208 c 0,12,13
 35 265 35 265 82 293.5 c 128,-1,14
 129 322 129 322 192 322 c 128,-1,15
 255 322 255 322 300 294.5 c 128,-1,16
 345 267 345 267 345 208 c 0,0,1
269 212 m 128,-1,18
 269 244 269 244 245.5 259 c 128,-1,19
 222 274 222 274 191.5 274 c 128,-1,20
 161 274 161 274 136.5 259 c 128,-1,21
 112 244 112 244 112 212 c 128,-1,22
 112 180 112 180 136.5 164 c 128,-1,23
 161 148 161 148 190.5 148 c 128,-1,24
 220 148 220 148 244.5 164 c 128,-1,17
 269 180 269 180 269 212 c 128,-1,18
EndSplineSet
Validated: 1
Substitution2: "Accent marker rearrangement single substitution 36-1" u1CF4
Substitution2: "Accent marker rearrangement single substitution 35-1" u0952
Substitution2: "Accent marker rearrangement single substitution 34-1" u0951
EndChar

StartChar: u11303
Encoding: 70403 70403 103
Width: 372
Flags: MW
LayerCount: 2
Fore
SplineSet
68 288 m 1,0,-1
 68 294 l 2,1,2
 68 335 68 335 104 359 c 0,3,4
 137 381 137 381 184 381 c 0,5,6
 262 380 262 380 291 332 c 0,7,8
 301 316 301 316 302 294 c 1,9,-1
 302 292 l 1,10,-1
 301 288 l 1,11,12
 300 256 300 256 264 238 c 0,13,14
 232 222 232 222 184 222 c 256,15,16
 110 222 110 222 79 259 c 0,17,18
 69 271 69 271 68 288 c 1,0,-1
68 110 m 2,19,-1
 68 113 l 1,20,21
 72 159 72 159 144 173 c 0,22,23
 164 177 164 177 185.5 177 c 128,-1,24
 207 177 207 177 227.5 173 c 128,-1,25
 248 169 248 169 264 161 c 0,26,27
 300 144 300 144 302 112 c 1,28,-1
 302 110 l 2,29,30
 302 68 302 68 266 42 c 0,31,32
 232 19 232 19 184 18 c 0,33,34
 138 18 138 18 104 42 c 0,35,36
 68 68 68 68 68 110 c 2,19,-1
225 289 m 1,37,-1
 225 294 l 1,38,39
 224 316 224 316 212 326 c 128,-1,40
 200 336 200 336 185.5 336 c 128,-1,41
 171 336 171 336 158.5 325.5 c 128,-1,42
 146 315 146 315 146 294 c 2,43,-1
 146 292 l 2,44,45
 146 281 146 281 158 274.5 c 128,-1,46
 170 268 170 268 184.5 267.5 c 128,-1,47
 199 267 199 267 211 272.5 c 128,-1,48
 223 278 223 278 225 289 c 1,37,-1
225 106 m 1,49,-1
 225 112 l 1,50,51
 221 131 221 131 185 131 c 1,52,53
 171 131 171 131 159 126 c 128,-1,54
 147 121 147 121 146 112 c 1,55,-1
 146 110 l 2,56,57
 146 87 146 87 158 75 c 128,-1,58
 170 63 170 63 184.5 63 c 128,-1,59
 199 63 199 63 211.5 74 c 128,-1,60
 224 85 224 85 225 106 c 1,49,-1
EndSplineSet
Validated: 1
Substitution2: "Accent marker rearrangement single substitution 39-1" u1CF4
Substitution2: "Accent marker rearrangement single substitution 38-1" u0952
Substitution2: "Accent marker rearrangement single substitution 37-1" u0951
EndChar

StartChar: u11305
Encoding: 70405 70405 104
Width: 613
Flags: MW
LayerCount: 2
Fore
SplineSet
197 357 m 1,0,-1
 197 258 l 1,1,-1
 279 258 l 1,2,-1
 279 357 l 1,3,-1
 197 357 l 1,0,-1
279 211 m 1,4,-1
 171 211 l 1,5,6
 125 201 125 201 104 176 c 0,7,8
 89 158 89 158 89 139 c 3,9,10
 89 132 89 132 90 125 c 0,11,12
 98 99 98 99 134.5 79 c 128,-1,13
 171 59 171 59 241 59 c 3,14,15
 270 59 270 59 278 88 c 0,16,17
 280 95 280 95 279 153 c 0,18,19
 279 177 279 177 279 211 c 1,4,-1
242 0 m 2,20,-1
 238 0 l 2,21,22
 124 0 124 0 72 54 c 0,23,24
 36 91 36 91 35 132 c 0,25,26
 35 149 35 149 41 166 c 0,27,28
 50 194 50 194 74 217 c 128,-1,29
 98 240 98 240 135 251 c 1,30,-1
 135 381 l 2,31,32
 135 403 135 403 166 403 c 2,33,-1
 354 403 l 2,34,35
 364 403 364 403 370 396 c 128,-1,36
 376 389 376 389 376 380.5 c 131,-1,37
 376 372 376 372 370.5 364.5 c 128,-1,38
 365 357 365 357 354 357 c 1,39,-1
 354 258 l 1,40,-1
 509 258 l 1,41,-1
 509 306 l 2,42,43
 509 317 509 317 518.5 323.5 c 128,-1,44
 528 330 528 330 540 330 c 2,45,46
 544 330 l 2,47,48
 572 330 572 330 572 309 c 2,49,-1
 572 17 l 2,50,51
 572 10 572 10 560 6 c 0,52,53
 544 0 544 0 522 0 c 3,54,55
 495 0 495 0 457 8 c 0,56,57
 398 20 398 20 398 117 c 2,58,-1
 398 211 l 1,59,-1
 354 211 l 1,60,-1
 354 116 l 2,61,62
 354 42 354 42 296 13 c 0,63,64
 270 0 270 0 242 0 c 2,20,-1
509 211 m 1,65,-1
 447 211 l 1,66,-1
 447 81 l 2,67,68
 447 55 447 55 456 46.5 c 0,69,70
 469 34 469 34 492 34 c 2,71,-1
 509 34 l 1,72,-1
 509 211 l 1,65,-1
EndSplineSet
EndChar

StartChar: u11306
Encoding: 70406 70406 105
Width: 798
Flags: MW
LayerCount: 2
Fore
SplineSet
261 362 m 1,0,-1
 261 261 l 1,1,-1
 341 261 l 1,2,-1
 341 362 l 1,3,-1
 261 362 l 1,0,-1
497 214 m 1,4,-1
 497 119 l 2,5,6
 497 79 497 79 526 48 c 0,7,8
 541 33 541 33 548 33 c 0,9,10
 556 33 556 33 556 49 c 2,11,-1
 556 214 l 1,12,-1
 497 214 l 1,4,-1
234 214 m 2,13,14
 188 214 188 214 169 179 c 0,15,16
 154 160 154 160 154 141 c 3,17,18
 154 134 154 134 156 128 c 0,19,20
 163 102 163 102 199.5 81 c 128,-1,21
 236 60 236 60 302 60 c 2,22,-1
 306 60 l 2,23,24
 322 60 322 60 331 69 c 0,25,26
 341 79 341 79 341 93 c 26,27,-1
 341 214 l 1,28,-1
 234 214 l 2,13,14
615 206 m 1,29,-1
 615 50 l 2,30,31
 615 27 615 27 600 12 c 0,32,33
 588 0 588 0 565 -0 c 2,34,-1
 554 0 l 2,35,36
 529 0 529 0 506 18 c 0,37,38
 459 52 459 52 459 119 c 2,39,-1
 459 214 l 1,40,-1
 417 214 l 1,41,-1
 417 175 l 2,42,43
 417 66 417 66 403 42 c 0,44,45
 377 0 377 0 311 0 c 131,-1,46
 245 0 245 0 202.5 17 c 128,-1,47
 160 34 160 34 136.5 58 c 0,48,49
 112 82 112 82 106 112 c 0,50,51
 104 124 104 124 104 136 c 3,52,53
 104 153 104 153 109 169 c 0,54,55
 118 197 118 197 141.5 220 c 128,-1,56
 165 243 165 243 202 254 c 1,57,-1
 202 393 l 2,58,59
 202 409 202 409 231 409 c 2,60,-1
 441 409 l 2,61,62
 461 409 461 409 461 382 c 0,63,64
 461 362 461 362 435 362 c 2,65,-1
 417 362 l 1,66,-1
 417 261 l 1,67,-1
 556 261 l 1,68,-1
 556 324 l 2,69,70
 556 336 556 336 566 342 c 128,-1,71
 576 348 576 348 585.5 348.5 c 128,-1,72
 595 349 595 349 605 344 c 128,-1,73
 615 339 615 339 615 327 c 2,74,-1
 615 253 l 1,75,76
 718 230 718 230 754 156 c 0,77,78
 765 133 765 133 765 118 c 3,79,80
 765 8 765 8 662 -49 c 0,81,82
 575 -97 575 -97 435 -97 c 135,-1,83
 295 -97 295 -97 174.5 -59 c 128,-1,84
 54 -21 54 -21 23 30 c 1,85,-1
 22 31 l 1,86,-1
 79 31 l 1,87,88
 79 13 79 13 107.5 -5 c 128,-1,89
 136 -23 136 -23 181.5 -36 c 128,-1,90
 227 -49 227 -49 284 -57 c 128,-1,91
 341 -65 341 -65 400 -65 c 135,-1,92
 459 -65 459 -65 514 -55 c 0,93,94
 626 -34 626 -34 664 32 c 0,95,96
 680 60 680 60 680 121 c 3,97,98
 680 135 680 135 666 161.5 c 128,-1,99
 652 188 652 188 615 206 c 1,29,-1
EndSplineSet
EndChar

StartChar: u11307
Encoding: 70407 70407 106
Width: 613
Flags: MW
LayerCount: 2
Fore
SplineSet
106 237 m 3,0,1
 106 222 106 222 114.5 212 c 0,2,3
 122.875856205 200.5 122.875856205 200.5 132 200.5 c 3,4,5
 139.265521911 200.5 139.265521911 200.5 149 207.5 c 0,6,7
 158 215 158 215 158 238 c 2,8,-1
 158 243 l 18,9,10
 158 262 158 262 134 262 c 3,11,12
 124 262 124 262 115 255.5 c 128,-1,13
 106 249 106 249 106 237 c 3,0,1
548 47 m 0,14,15
 558 47 558 47 563.5 40.5 c 128,-1,16
 569 34 569 34 569 25.5 c 131,-1,17
 569 17 569 17 563.5 8.5 c 128,-1,18
 558 0 558 0 548 0 c 2,19,-1
 233.5 0 l 0,20,21
 170 0 170 0 139 6.5 c 0,22,23
 108 14 108 14 88 22 c 0,24,25
 50 38 50 38 50.5 62.5 c 0,26,27
 50 87 50 87 73.5 106.5 c 0,28,29
 95.7058823529 125.745098039 95.7058823529 125.745098039 125 129 c 2,30,-1
 278 146 l 2,31,32
 327 151 327 151 373 167 c 0,33,34
 420 183 420 183 444 206 c 128,-1,35
 468 229 468 229 468 267.5 c 131,-1,36
 468 306 468 306 449 332.5 c 0,37,38
 429 362 429 362 406 362 c 2,39,-1
 402 362 l 2,40,41
 385 362 385 362 360.5 339 c 0,42,43
 333 313 333 313 333 255 c 2,44,-1
 333 213 l 2,45,46
 333 185 333 185 296 185 c 3,47,48
 283 185 283 185 271.5 191 c 128,-1,49
 260 197 260 197 260 208 c 3,50,51
 260 266 260 266 242 302 c 128,-1,52
 224 338 224 338 200 350 c 0,53,54
 188 356 188 356 176 357 c 0,55,56
 164 357 164 357 151 350 c 0,57,58
 127 337 127 337 115 299 c 1,59,60
 124 300 124 300 132 300 c 3,61,62
 172 300 172 300 198 270 c 0,63,64
 204 263 204 263 207.5 251.5 c 0,65,66
 210 244 210 244 210 237 c 3,67,68
 210 183 210 183 165 168 c 0,69,70
 150 163 150 163 135 163 c 3,71,72
 109 163 109 163 83 178 c 0,73,74
 44 201 44 201 44 238 c 3,75,76
 44 307 44 307 73.5 348 c 0,77,78
 103 388 103 388 141 398 c 0,79,80
 157 402 157 402 174 402 c 3,81,82
 198 402 198 402 224 392 c 0,83,84
 267 376 267 376 296 335 c 1,85,86
 327 388 327 388 392 400 c 0,87,88
 403 402 403 402 412 402 c 3,89,90
 459 402 459 402 496 372 c 0,91,92
 518 354 518 354 534 326 c 0,93,94
 551 296 551 296 551 260 c 3,95,96
 551 213 551 213 512 178 c 0,97,98
 471 142 471 142 421 130 c 0,99,100
 327 106 327 106 293 104 c 0,101,102
 221 99 221 99 162 96 c 0,103,104
 126 94 126 94 112 84 c 0,105,106
 99 74 99 74 102 63 c 0,107,108
 107 43 107 43 163 43 c 0,109,110
 183.890128558 44.3827849199 183.890128558 44.3827849199 213 46 c 24,111,112
 238 47 238 47 261 47 c 6,113,114
 548 47 l 0,14,15
EndSplineSet
EndChar

StartChar: u11308
Encoding: 70408 70408 107
Width: 736
Flags: MW
LayerCount: 2
Fore
SplineSet
86 203 m 6,0,-1
 86 201 l 6,1,2
 86 181 86 181 94.5 174.5 c 132,-1,3
 103 168 103 168 113.5 170.5 c 4,4,5
 124 174 124 174 132 182 c 4,6,7
 139 189 139 189 139 200 c 6,8,-1
 139 206 l 6,9,10
 139 218 139 218 131.5 225 c 132,-1,11
 124 232 124 232 114 232 c 132,-1,12
 104 232 104 232 96 226 c 4,13,14
 86 218 86 218 86 203 c 6,0,-1
557 204 m 135,-1,16
 557 236 557 236 577 252.5 c 132,-1,17
 597 269 597 269 621 269 c 263,18,19
 645 269 645 269 664 253 c 132,-1,20
 683 237 683 237 683 204.5 c 135,-1,21
 683 172 683 172 664.5 155.5 c 132,-1,22
 646 139 646 139 623 139 c 7,23,24
 600 140 600 140 580 156 c 4,25,15
 557 172 557 172 557 204 c 135,-1,16
180 204 m 7,26,27
 180 166 180 166 157 152 c 4,28,29
 135 138 135 138 111 138 c 6,30,31
 108 138 l 6,32,33
 82 139 82 139 60 156 c 4,34,35
 41 171 41 171 41 197 c 6,36,-1
 41 204 l 6,37,38
 41 234 41 234 62 250 c 4,39,40
 82 264 82 264 108 266 c 6,41,42
 110 266 l 6,43,44
 136 265 136 265 155 252 c 4,45,46
 180 236 180 236 180 204 c 7,26,27
418 41 m 7,47,48
 446 41 446 41 446 59 c 6,49,-1
 446 362 l 5,50,-1
 394 362 l 5,51,-1
 394 51 l 6,52,53
 394 47 394 47 401.5 44 c 132,-1,54
 409 41 409 41 418 41 c 7,47,48
521 54 m 6,55,56
 521 28 521 28 484 9 c 4,57,58
 464 0 464 0 439 0 c 7,59,60
 433 0 433 0 426 1 c 4,61,62
 395 4 395 4 369.5 19 c 132,-1,63
 344 34 344 34 344 53 c 6,64,-1
 344 362 l 5,65,-1
 257 362 l 5,66,-1
 257 20 l 6,67,68
 257 0 257 0 234 0 c 4,69,70
 223 0 223 0 213.5 4.5 c 132,-1,71
 204 9 204 9 204 18 c 6,72,-1
 204 377 l 5,73,74
 200 387 200 387 205.5 398 c 132,-1,75
 211 409 211 409 225 409 c 6,76,-1
 594 409 l 6,77,78
 613 409 613 409 613 385.5 c 135,-1,79
 613 362 613 362 594 362 c 6,80,-1
 521 362 l 5,81,-1
 521 54 l 6,55,56
592 205 m 7,82,83
 592 189 592 189 601 180 c 132,-1,84
 610 171 610 171 621 171 c 135,-1,85
 632 171 632 171 641 179 c 132,-1,86
 650 187 650 187 650 202 c 135,-1,87
 650 217 650 217 640.5 225.5 c 132,-1,88
 631 234 631 234 620.5 236 c 132,-1,89
 610 238 610 238 601 230.5 c 132,-1,90
 592 223 592 223 592 205 c 7,82,83
EndSplineSet
EndChar

StartChar: u11309
Encoding: 70409 70409 108
Width: 613
Flags: MW
LayerCount: 2
Fore
SplineSet
202 96 m 2,0,-1
 194 96 l 2,1,2
 162 96 162 96 144 85 c 0,3,4
 124 74 124 74 124 63.5 c 131,-1,5
 124 53 124 53 140 48 c 0,6,7
 148 46 148 46 158 46 c 131,-1,8
 168 46 168 46 180 48 c 0,9,10
 203 53 203 53 206 53 c 2,11,-1
 560 53 l 2,12,13
 572 53 572 53 579 45 c 128,-1,14
 586 37 586 37 586 27 c 259,15,16
 586 17 586 17 579 8.5 c 128,-1,17
 572 0 572 0 560 0 c 2,18,-1
 200 0 l 2,19,20
 103 0 103 0 82 28 c 0,21,22
 72 41 72 41 72 55 c 3,23,24
 72 76 72 76 92 98 c 0,25,26
 129 141 129 141 196 141 c 2,27,-1
 201 141 l 2,28,29
 300 141 300 141 319 216 c 0,30,31
 323 232 323 232 323 246 c 3,32,33
 323 265 323 265 314 286 c 0,34,35
 302 314 302 314 270 334 c 0,36,37
 239 353 239 353 208 353 c 30,38,-1
 199 353 l 2,39,40
 172 353 172 353 151 341 c 1,41,42
 158 341 l 1,43,44
 214 341 214 341 244 292 c 0,45,46
 254 276 254 276 254 252 c 131,-1,47
 254 228 254 228 245 212 c 0,48,49
 237 196 237 196 223 184 c 0,50,51
 195 162 195 162 156 162 c 259,52,53
 94 162 94 162 64 212 c 0,54,55
 53 230 53 230 53 250 c 2,56,-1
 53 256 l 2,57,58
 53 297 53 297 78 329 c 0,59,60
 106 364 106 364 146 382 c 0,61,62
 196 405 196 405 246 405 c 3,63,64
 286 405 286 405 322 388 c 0,65,66
 363 369 363 369 388 328 c 0,67,68
 411 291 411 291 411 232 c 3,69,70
 411 225 411 225 411 218 c 0,71,72
 411 203 411 203 398.5 182 c 128,-1,73
 386 161 386 161 361 142 c 0,74,75
 300 96 300 96 202 96 c 2,0,-1
108 250 m 3,76,77
 108 222 108 222 122 210 c 0,78,79
 134 198 134 198 150 198 c 0,80,-1
 151 198 l 0,81,82
 168 198 168 198 182.5 211.5 c 128,-1,83
 197 225 197 225 197 252 c 3,84,85
 197 276 197 276 183 288 c 0,86,87
 170 300 170 300 154 299 c 3,88,89
 142 299 142 299 125 287 c 128,-1,90
 108 275 108 275 108 250 c 3,76,77
EndSplineSet
EndChar

StartChar: u1130A
Encoding: 70410 70410 109
Width: 736
Flags: MW
LayerCount: 2
Fore
SplineSet
633 53 m 6,0,1
 642 53 642 53 646 45 c 4,2,3
 651 34 651 34 651 28 c 7,4,5
 651 20 651 20 646 10 c 4,6,7
 642 0 642 0 633 0 c 6,8,-1
 141 0 l 6,9,10
 84 0 84 0 62 27 c 4,11,12
 50 41 50 41 50 59 c 7,13,14
 50 80 50 80 64 98 c 4,15,16
 92 137 92 137 156 137 c 6,17,-1
 166 137 l 6,18,19
 207 137 207 137 234 168 c 4,20,21
 254 190 254 190 254 219 c 7,22,23
 254 291 254 291 228 325 c 4,24,25
 202 359 202 359 174 359 c 7,26,27
 147 359 147 359 130 346 c 5,28,29
 164 346 164 346 190 321 c 4,30,31
 216 296 216 296 217 252 c 4,32,33
 217 208 217 208 192 185 c 4,34,35
 167 161 167 161 130 161 c 7,36,37
 76 161 76 161 50 212 c 4,38,39
 39 234 39 234 39 252 c 7,40,41
 39 297 39 297 60 331 c 4,42,43
 103 402 103 402 178 402 c 6,44,-1
 183 402 l 6,45,46
 270 402 270 402 297 326 c 4,47,48
 318 265 318 265 318 222 c 6,49,-1
 318 221 l 6,50,51
 318 209 318 209 310 185 c 4,52,53
 302 160 302 160 284 140 c 4,54,55
 247 100 247 100 185 100 c 6,56,-1
 159 100 l 6,57,58
 130 100 130 100 114 90 c 4,59,60
 98 80 98 80 96 69 c 4,61,62
 94 57 94 57 108 52 c 4,63,64
 117 49 117 49 123 49 c 4,65,66
 146 53 146 53 153 53 c 6,67,-1
 633 53 l 6,0,1
104 293 m 4,68,69
 93 280 93 280 93 254 c 7,70,71
 93 228 93 228 104 214 c 4,72,73
 116 201 116 201 130 201 c 7,74,75
 144 201 144 201 155 214 c 4,76,77
 167 228 167 228 167 254 c 7,78,79
 167 280 167 280 155 293 c 4,80,81
 144 306 144 306 130 306 c 7,82,83
 116 306 116 306 104 293 c 4,68,69
EndSplineSet
Refer: 164 70487 S 0.6 0 0 0.6 318 84 2
EndChar

StartChar: u1130B
Encoding: 70411 70411 110
Width: 614
Flags: MW
LayerCount: 2
Fore
SplineSet
202 326 m 0,0,1
 210 336 210 336 210 348 c 128,-1,3
 210 360 210 360 198 368 c 128,-1,4
 186 376 186 376 165 380 c 0,5,6
 157 381 157 381 150 382 c 0,7,8
 138 382 138 382 128 378 c 0,9,10
 117 374 117 374 118 355 c 0,11,12
 118 348 118 348 120 338 c 0,13,14
 124 316 124 316 158 310 c 0,15,16
 163 309 163 309 167 309 c 0,17,18
 187 310 187 310 202 326 c 0,0,1
439 369 m 0,19,20
 425 362 425 362 425 348 c 0,21,22
 426 334 426 334 434 324 c 0,23,24
 448 308 448 308 466 309 c 0,25,26
 470 309 470 309 475 310 c 0,27,28
 498 315 498 315 502 322 c 16,29,30
 512 341 512 341 512 353 c 0,31,32
 512 368 512 368 500 374 c 0,33,34
 487 380 487 380 474 379 c 0,35,36
 457 379 457 379 439 369 c 0,19,20
314 52 m 1,37,38
 271 0 271 0 207 0 c 0,39,40
 136 0 136 0 94 43 c 0,41,42
 76 62 76 62 68 86 c 0,43,44
 65 96 65 96 65 106 c 0,45,46
 66 120 66 120 72 134 c 0,47,48
 82 158 82 158 116.5 178.5 c 128,-1,49
 151 199 151 199 208 212 c 1,50,51
 162 225 162 225 127 250 c 0,52,53
 59 299 59 299 59 349 c 0,54,55
 58 391 58 391 114 405 c 0,56,57
 133 410 133 410 154 410 c 0,58,59
 184 410 184 410 216 399 c 0,60,61
 272 380 272 380 271 349 c 0,62,63
 271 316 271 316 238 298 c 0,64,65
 209 282 209 282 165 282 c 1,66,67
 217 236 217 236 311 236 c 0,68,69
 407 236 407 236 465 282 c 1,70,71
 425 282 425 282 403 294 c 0,72,73
 363 317 363 317 363 349 c 0,74,75
 364 364 364 364 380 378 c 0,76,77
 413 405 413 405 470 409 c 0,78,79
 478 410 478 410 484 410 c 0,80,81
 505 410 505 410 521 405 c 0,82,83
 562 392 562 392 562 341 c 0,84,85
 562 331 562 331 560 319 c 0,86,87
 555 282 555 282 515.5 253.5 c 128,-1,88
 476 225 476 225 427 211 c 1,89,90
 518 191 518 191 546 136 c 0,91,92
 554 120 554 120 555 103 c 0,93,94
 554 74 554 74 532 46 c 0,95,96
 494 0 494 0 426.5 0 c 128,-1,97
 359 0 359 0 314 52 c 1,37,38
281 133 m 1,98,-1
 281 138 l 2,99,100
 281 147 281 147 292 152 c 128,-1,101
 303 157 303 157 316 157 c 128,-1,102
 329 157 329 157 341 152 c 128,-1,103
 353 147 353 147 354 138 c 1,104,-1
 354 133 l 2,105,106
 354 74 354 74 392 51 c 0,107,108
 406 43 406 43 431 43 c 128,-1,109
 456 43 456 43 472 52.5 c 128,-1,110
 488 62 488 62 496 76 c 0,111,112
 501 85 501 85 501 95 c 0,113,114
 501 101 501 101 500 107 c 0,115,116
 490 144 490 144 414 167 c 0,117,118
 366 183 366 183 315 182.5 c 128,-1,119
 264 182 264 182 211 167 c 0,120,121
 137 144 137 144 130 107 c 0,122,123
 129 102 129 102 129 97 c 0,124,125
 129 70 129 70 161 54 c 0,126,127
 179 46 179 46 203 45.5 c 128,-1,128
 227 45 227 45 240.5 53 c 128,-1,129
 254 61 254 61 262 74 c 0,130,131
 279 101 279 101 281 133 c 1,98,-1
EndSplineSet
EndChar

StartChar: u1130C
Encoding: 70412 70412 111
Width: 765
Flags: MW
LayerCount: 2
Fore
SplineSet
696 361 m 5,0,-1
 744 361 l 1,1,-1
 744 409 l 1,2,-1
 338 409 l 1,3,-1
 338 314 l 1,4,5
 330 329 330 329 318 349 c 0,6,7
 296 390 296 390 240 405 c 0,8,9
 225 409 225 409 209 408 c 0,10,11
 192 407 192 407 174 403 c 0,12,13
 140 395 140 395 117 372.5 c 128,-1,14
 94 350 94 350 80 321 c 0,15,16
 51 261 51 261 51 187 c 131,-1,17
 51 113 51 113 79 61 c 0,18,19
 113 0 113 0 170 0 c 2,20,-1
 179 0 l 2,21,22
 202 0 202 0 220.5 20.5 c 128,-1,23
 239 41 239 41 248 73 c 0,24,25
 256 99 256 99 256 128 c 2,26,-1
 256 137 l 2,27,28
 256 168 256 168 238.5 198 c 0,29,30
 223 225 223 225 192 239 c 0,31,32
 175 247 175 247 151 247 c 0,33,34
 133 247 133 247 111 242 c 1,35,36
 119 288 119 288 135 313 c 128,-1,37
 151 338 151 338 184 346 c 1,38,-1
 221 346 l 1,39,40
 259 333 259 333 297 283 c 0,41,42
 336 231 336 231 336 190 c 2,43,-1
 336 0 l 1,44,-1
 401 0 l 1,45,-1
 401 361 l 1,46,-1
 498 361 l 1,47,-1
 498 76 l 2,48,49
 498 63 498 63 524.5 36.5 c 0,50,51
 548 13 548 13 570 5 c 0,52,53
 584 0 584 0 598 0 c 3,54,55
 626 0 626 0 652 20 c 0,56,57
 673 36 673 36 684.5 62.5 c 128,-1,58
 696 89 696 89 696 107 c 2,59,-1
 696 361 l 5,0,-1
633 361 m 1,60,-1
 633 110 l 2,61,62
 633.635642127 45 633.635642127 45 605 45 c 3,63,64
 598.358280913 45 598.358280913 45 579.5 55 c 0,65,66
 559 67 559 67 559 95 c 2,67,-1
 559 361 l 1,68,-1
 633 361 l 1,60,-1
111 186 m 24,69,70
 117.169921875 192.64453125 117.169921875 192.64453125 125 196 c 24,71,72
 138.333007812 201 138.333007812 201 151 201 c 3,73,74
 180 201 180 201 197 173 c 0,75,76
 210 151 210 151 210 124 c 3,77,78
 210 109 210 109 206 92 c 0,79,80
 195 45 195 45 168 45 c 3,81,82
 131.944335938 45 131.944335938 45 111 83 c 0,83,84
 96 108 96 108 96 139 c 3,85,86
 96 158.599609375 96 158.599609375 99 168 c 24,87,88
 101 176 101 176 111 186 c 24,69,70
EndSplineSet
EndChar

StartChar: u1130F
Encoding: 70415 70415 112
Width: 1104
Flags: MW
LayerCount: 2
Fore
SplineSet
96 152 m 4,0,1
 96 116 96 116 112 79 c 4,2,3
 124 54 124 54 137 47.5 c 132,-1,4
 150 41 150 41 160.5 50 c 132,-1,5
 171 59 171 59 172 78 c 6,6,7
 172 94 l 6,8,9
 172 109 172 109 163 128 c 132,-1,10
 154 147 154 147 141.5 158 c 132,-1,11
 129 169 129 169 116 168 c 4,12,13
 97 167 97 167 96 152 c 4,0,1
782 315 m 5,14,15
 725 269 725 269 725 176 c 6,16,-1
 725 175 l 6,17,18
 726 108 726 108 742 74 c 4,19,20
 758 41 758 41 777 40 c 4,21,-1
 778 40 l 4,22,23
 798 40 798 40 814.5 74 c 132,-1,24
 831 108 831 108 831 175 c 4,25,26
 831 270 831 270 782 315 c 5,14,15
1081 377 m 132,-1,28
 1081 354 1081 354 1064 354 c 6,29,-1
 1026 354 l 5,30,-1
 1026 26 l 6,31,32
 1026 16 1026 16 1016 8 c 132,-1,34
 1006 0 1006 0 992 0 c 4,35,36
 956 0 956 0 956 26 c 6,37,-1
 956 354 l 5,38,-1
 932 354 l 28,39,-1
 837 342 l 5,40,41
 897 274 897 274 897 175 c 6,42,-1
 897 172 l 6,43,44
 897 116 897 116 879 76.5 c 132,-1,45
 861 37 861 37 836 18 c 4,46,47
 812 -1 812 -1 784 -1 c 4,48,-1
 782 -0 l 4,49,50
 754 0 754 0 728 20 c 4,51,52
 671 64 671 64 671 174 c 7,53,54
 671 279 671 279 741 341 c 5,55,56
 715 348 715 348 698 348 c 6,57,-1
 696 348 l 6,58,59
 641 348 641 348 607 290 c 4,60,61
 570 227 570 227 570 160 c 4,62,63
 570 156 570 156 570 152 c 4,64,65
 570 87 570 87 600 52 c 5,66,67
 611 50 611 50 614 38 c 4,68,69
 616 32 616 32 616 22 c 7,70,71
 616 0 616 0 592 0 c 6,72,-1
 260 0 l 6,73,74
 256 0 256 0 252 6 c 6,75,-1
 249 11 l 6,76,77
 247 14 247 14 247 20 c 6,78,-1
 247 27 l 6,79,80
 247 34 247 34 250 38 c 6,81,-1
 256 45 l 6,82,83
 259 49 259 49 266 49 c 6,84,-1
 268 49 l 6,85,86
 274 49 274 49 288 63 c 132,-1,87
 302 77 302 77 316 98 c 4,88,89
 348 148 348 148 348 196 c 4,90,91
 348 199 348 199 348 201 c 4,92,93
 348 246 348 246 333 276 c 4,94,95
 316 308 316 308 292 327 c 4,96,97
 272 342 272 342 238 349 c 4,98,99
 233 350 233 350 227 350 c 4,100,101
 203 350 203 350 180 338 c 4,102,103
 152 324 152 324 128 292 c 132,-1,104
 104 260 104 260 93 208 c 5,105,106
 98 209 98 209 103 209 c 4,107,108
 138 209 138 209 180 174 c 4,109,110
 226 134 226 134 226 93 c 7,111,112
 226 66 226 66 211 38 c 4,113,114
 192 0 192 0 152.5 0 c 132,-1,115
 113 0 113 0 88 28 c 4,116,117
 38 84 38 84 38 183 c 7,118,119
 38 193 38 193 39 204 c 28,120,121
 59 343 59 343 158 390 c 4,122,123
 194 407 194 407 233 407 c 4,124,125
 241 407 241 407 249 406 c 4,126,127
 297 402 297 402 337.5 377 c 132,-1,128
 378 352 378 352 404.5 308 c 132,-1,129
 431 264 431 264 431 212 c 4,130,131
 431 122 431 122 350 49 c 5,132,-1
 539 49 l 5,133,134
 514 91 514 91 514 163 c 4,135,136
 514 168 514 168 514 174 c 4,137,138
 518 325 518 325 612 381 c 4,139,140
 649 403 649 403 698 408 c 5,141,142
 753 408 753 408 799 377 c 5,143,144
 852 400 852 400 932 400 c 6,145,-1
 1064 400 l 6,146,27
 1081 400 1081 400 1081 377 c 132,-1,28
EndSplineSet
EndChar

StartChar: u11313
Encoding: 70419 70419 114
Width: 735
Flags: MW
LayerCount: 2
Fore
SplineSet
518 -99 m 2,0,1
 518 -121 518 -121 489 -121 c 128,-1,2
 460 -121 460 -121 460 -99 c 2,3,-1
 460 0 l 1,4,-1
 291 0 l 2,5,6
 285.6 0 285.6 0 282 6 c 2,7,-1
 279 11 l 2,8,9
 278 13 278 13 278 18 c 2,10,-1
 278 30 l 2,11,12
 278 40 278 40 284 42.5 c 6,13,-1
 291 45.5 l 6,14,15
 292 46 292 46 294 46 c 2,16,-1
 303 46 l 2,17,18
 380 46 380 46 431 84 c 0,19,20
 480 120 480 120 486 184 c 1,21,22
 485 220 485 220 479 249 c 0,23,24
 472 278 472 278 452 298 c 0,25,26
 409 341 409 341 295 345 c 0,27,28
 233 347 233 347 176 312 c 0,29,30
 122 279 122 279 97 208 c 1,31,32
 115 214 115 214 131 214 c 0,33,34
 159 214 159 214 184 198 c 0,35,36
 228 170 228 170 228 113 c 0,37,38
 228 72 228 72 200.5 51.5 c 0,39,40
 171 30 171 30 138 30 c 2,41,-1
 135 30 l 2,42,43
 102 30 102 30 74 48 c 0,44,45
 46 65 46 65 37 101 c 0,46,47
 35 109 35 109 35 113 c 0,48,49
 35 232 35 232 98 312 c 0,50,51
 171 404 171 404 295 406 c 0,52,53
 495 408 495 408 561 296 c 0,54,55
 584 257 584 257 584 198 c 0,56,57
 584 191 584 191 584 184 c 0,58,59
 584 133 584 133 530 81 c 0,60,61
 510 62 510 62 483 46 c 1,62,-1
 631 46 l 2,63,64
 644 46 644 46 652 39 c 128,-1,65
 660 32 660 32 661.5 23 c 128,-1,66
 663 14 663 14 655 7 c 128,-1,67
 647 0 647 0 631 0 c 2,68,-1
 518 0 l 1,69,-1
 518 -99 l 2,0,1
98 158 m 0,70,71
 82 144 82 144 82 116 c 128,-1,72
 82 88 82 88 98 75.5 c 128,-1,73
 114 63 114 63 132 63 c 128,-1,74
 150 63 150 63 166 75.5 c 128,-1,75
 182 88 182 88 182 115 c 128,-1,76
 182 142 182 142 166.5 157 c 0,77,78
 149 173 149 173 131 173 c 131,-1,79
 112.972243623 173 112.972243623 173 98 158 c 0,70,71
EndSplineSet
EndChar

StartChar: u11315
Encoding: 70421 70421 116
Width: 562
Flags: MW
LayerCount: 2
Fore
SplineSet
380 32 m 0,0,1
 372 41 372 41 366 64 c 0,2,3
 362 81 362 81 362 99 c 3,4,5
 362 106 362 106 363 113 c 0,6,7
 367 169 367 169 392 212 c 1,8,-1
 313 212 l 1,9,-1
 313 149 l 2,10,11
 313 81 313 81 302 50 c 0,12,13
 290 13 290 13 270 4 c 0,14,15
 261 0 261 0 253 -0 c 3,16,17
 244 0 244 0 234 4 c 0,18,19
 214 14 214 14 198 35 c 1,20,21
 179 -0 179 -0 150 0 c 3,22,23
 130 0 130 0 104 16 c 0,24,25
 80 32 80 32 62 62 c 0,26,27
 42 95 42 95 41 131 c 0,28,29
 41 162 41 162 60 194 c 0,30,31
 80 228 80 228 132 252 c 1,32,-1
 132 388 l 2,33,34
 132 402 132 402 148 407 c 24,35,36
 160 411 160 411 181 411 c 2,37,-1
 360 411 l 6,38,39
 375 411 375 411 384 403.5 c 132,-1,40
 393 396 393 396 393 387 c 135,-1,41
 393 378 393 378 384 371 c 132,-1,42
 375 364 375 364 356 364 c 6,43,-1
 313 364 l 1,44,-1
 313 260 l 1,45,46
 369 260 369 260 426 260 c 256,47,48
 496 260 496 260 520 192 c 0,49,50
 531 160 531 160 531 127 c 3,51,52
 531 95 531 95 523 68 c 0,53,54
 504 0 504 0 448 0 c 3,55,56
 408 0 408 0 380 32 c 0,0,1
252 212 m 1,57,-1
 156 212 l 24,58,59
 116 194 116 194 102 169 c 0,60,61
 89 147 89 147 89 126 c 3,62,63
 89 99 89 99 104.5 79 c 0,64,65
 118 62 118 62 133 58 c 128,-1,66
 148 54 148 54 160 68 c 0,67,68
 175 84 175 84 175 104 c 2,69,70
 175 143.5 l 2,71,72
 175 150 175 150 185 156 c 0,73,74
 195 163 195 163 204 154.5 c 0,75,76
 209 150 209 150 209 145 c 2,77,-1
 209 104.5 l 2,78,79
 209 86 209 86 221 69 c 0,80,81
 229 58 229 58 234 58 c 3,82,83
 252 58 252 58 252 122 c 2,84,-1
 252 212 l 1,57,-1
402 98 m 3,85,86
 402 74 402 74 409 63 c 24,87,88
 425 38 425 38 445 40 c 128,-1,89
 465 42 465 42 479 67 c 0,90,91
 493 91 493 91 496 114 c 0,92,93
 497 121 497 121 497 128 c 3,94,95
 497 146 497 146 491 166 c 0,96,97
 481 198 481 198 463.5 207 c 128,-1,98
 446 216 446 216 440 210 c 24,99,100
 402 171 402 171 402 108 c 0,101,102
 402 103 402 103 402 98 c 3,85,86
181 364 m 1,103,-1
 181 260 l 1,104,-1
 252 260 l 1,105,-1
 252 364 l 1,106,-1
 181 364 l 1,103,-1
EndSplineSet
EndChar

StartChar: u11316
Encoding: 70422 70422 117
Width: 982
Flags: MW
LayerCount: 2
Fore
SplineSet
408 48 m 0,0,1
 416 68 416 68 437 79 c 128,-1,2
 458 90 458 90 485 99.5 c 128,-1,3
 512 109 512 109 534 120 c 128,-1,4
 556 131 556 131 578 155 c 0,5,6
 602 182 602 182 597 203 c 0,7,8
 596 207 596 207 596 212 c 0,9,10
 592 245 592 245 559.5 281 c 128,-1,11
 527 317 527 317 479.5 333 c 0,12,13
 426 350 426 350 376 350 c 0,14,15
 370 350 370 350 365 351 c 0,16,17
 316 351 316 351 269 339 c 0,18,19
 217 326 217 326 174 297 c 128,-1,20
 131 268 131 268 111 222 c 1,21,22
 125 225 125 225 140 225 c 0,23,24
 163 226 163 226 189 218 c 0,25,26
 284 189 284 189 279 116 c 0,27,28
 278 102 278 102 276 88 c 0,29,30
 270 54 270 54 248.5 33 c 0,31,32
 227 11 227 11 196 4 c 0,33,34
 182 1 182 1 168 1 c 0,35,36
 117 1 117 1 77 51 c 0,37,38
 38 100 38 100 38 155.5 c 128,-1,39
 38 211 38 211 65 257.5 c 128,-1,40
 92 304 92 304 137 336 c 128,-1,41
 182 368 182 368 240 385 c 128,-1,42
 298 402 298 402 359 406 c 0,43,44
 376 407 376 407 393 407 c 0,45,46
 438 408 438 408 480 400 c 0,47,48
 605 378 605 378 665 301 c 0,49,50
 701 256 701 256 701 208 c 0,51,52
 697 132 697 132 594 88 c 6,53,54
 505 50 l 25,55,-1
 866 50 l 1,56,-1
 866 383 l 2,57,58
 866 394 866 394 877 399 c 128,-1,59
 888 404 888 404 900 404 c 256,60,61
 912 404 912 404 923 398.5 c 128,-1,62
 934 393 934 393 934 382 c 2,63,-1
 934 26 l 2,64,65
 934 14 934 14 923 8 c 1,66,-1
 901 1 l 1,67,-1
 413 1 l 1,68,69
 405 17 405 17 405 31 c 0,70,71
 405 40 405 40 408 48 c 0,0,1
114 94 m 0,72,73
 138 48 138 48 176 47 c 0,74,75
 179 48 179 48 181 48 c 0,76,77
 199 50 199 50 211.5 61.5 c 0,78,79
 224 72 224 72 228 92 c 0,80,81
 229 99 229 99 229 105 c 0,82,83
 229 145 229 145 182 173 c 0,84,85
 158 188 158 188 138 188 c 0,86,87
 126 188 126 188 115 182 c 0,88,89
 96 172 96 172 96 150 c 128,-1,90
 96 128 96 128 114 94 c 0,72,73
EndSplineSet
EndChar

StartChar: u11317
Encoding: 70423 70423 118
Width: 570
Flags: MW
LayerCount: 2
Fore
SplineSet
398 336 m 4,0,1
 388 322 388 322 377 281.5 c 132,-1,2
 366 241 366 241 365 207.5 c 132,-1,3
 364 174 364 174 347 155 c 132,-1,4
 330 136 330 136 305 132 c 4,5,6
 298 131 298 131 291 130 c 0,7,8
 272 130 272 130 251 138 c 4,9,10
 222 150 222 150 198 180 c 4,11,12
 143 250 143 250 143 382 c 0,13,14
 143 386 143 386 143 390 c 5,15,-1
 144 390 l 5,16,17
 144 398 144 398 153.5 402.5 c 132,-1,18
 163 407 163 407 175 407 c 132,-1,19
 187 407 187 407 196.5 402.5 c 132,-1,20
 206 398 206 398 206 390 c 4,21,22
 206 297 206 297 221 247.5 c 132,-1,23
 236 198 236 198 254 180 c 4,24,25
 266 168 266 168 276 169 c 0,26,27
 281 169 281 169 286 172 c 4,28,29
 301 181 301 181 301 206 c 6,30,-1
 301 210 l 5,31,32
 318 361 318 361 380 396 c 4,33,34
 397 405 397 405 414 405 c 0,35,36
 424 405 424 405 434 402 c 4,37,38
 462 393 462 393 486.5 370 c 4,39,40
 510 346 510 346 520 320 c 4,41,42
 529 292 529 292 530 258 c 0,43,44
 530 227 530 227 522 190 c 4,45,46
 514 150 514 150 486 110 c 4,47,48
 422 16 422 16 292 1 c 5,49,-1
 55 1 l 6,50,51
 43 1 43 1 37 8.5 c 132,-1,52
 31 16 31 16 30.5 25 c 132,-1,53
 30 34 30 34 35.5 41.5 c 132,-1,54
 41 49 41 49 53 49 c 6,55,-1
 293 49 l 6,56,57
 367 49 367 49 410 116 c 4,58,59
 450 179 450 179 451 261 c 4,60,61
 451 316 451 316 434 338 c 4,62,63
 426 349 426 349 417 349 c 0,64,65
 407 349 407 349 398 336 c 4,0,1
EndSplineSet
Validated: 1
EndChar

StartChar: u11318
Encoding: 70424 70424 119
Width: 919
Flags: MW
LayerCount: 2
Fore
SplineSet
116 92 m 4,0,1
 138 47 138 47 170 47 c 4,2,3
 173 47 173 47 176 47 c 4,4,5
 192 49 192 49 203 61 c 132,-1,6
 214 73 214 73 217 95 c 4,7,8
 218 100 218 100 218 106 c 4,9,10
 218 145 218 145 173 171 c 4,11,12
 151 184 151 184 134 184 c 4,13,14
 124 185 124 185 116 179 c 4,15,16
 100 169 100 169 100 147 c 4,17,18
 100 126 100 126 116 92 c 4,0,1
395 44 m 5,19,-1
 579 44 l 5,20,-1
 579 383 l 6,21,22
 579 394 579 394 589 399.5 c 132,-1,23
 599 405 599 405 610.5 405 c 132,-1,24
 622 405 622 405 632.5 399.5 c 132,-1,25
 643 394 643 394 643 383 c 6,26,-1
 643 44 l 5,27,28
 692 44 692 44 726 44 c 132,-1,29
 760 44 760 44 784 43 c 5,30,-1
 784 381 l 6,31,32
 784 403 784 403 824 403 c 4,33,34
 826 403 826 403 829 404 c 4,35,36
 864 404 864 404 864 383 c 6,37,-1
 864 27 l 5,38,39
 859 10 859 10 847.5 5 c 132,-1,40
 836 0 836 0 821 0 c 6,41,-1
 321 0 l 5,42,-1
 321 44 l 5,43,44
 369 46 369 46 384 149 c 4,45,46
 388 177 388 177 388 214.5 c 132,-1,47
 388 252 388 252 370 284.5 c 132,-1,48
 352 317 352 317 324.5 335 c 4,49,50
 312.456054688 343.321289062 312.456054688 343.321289062 264 355 c 4,51,52
 259 356 259 356 254 356 c 4,53,54
 226 355 226 355 198 343 c 4,55,56
 128 311 128 311 105 215 c 5,57,58
 120 221 120 221 140 221 c 4,59,60
 183 221 183 221 219 195 c 4,61,62
 265 161 265 161 265 111 c 4,63,64
 265 99 265 99 262 86 c 4,65,66
 255 53 255 53 233.5 31.5 c 4,67,68
 214 12 214 12 182 3 c 4,69,70
 171 0 171 0 160 0 c 4,71,72
 142 -1 142 -1 124 7 c 4,73,74
 96 19 96 19 73 54 c 4,75,76
 48 92 48 92 48 158 c 4,77,78
 48 161 48 161 48 164 c 4,79,80
 48 229 48 229 78 284 c 4,81,82
 109 341 109 341 155.5 370 c 4,83,84
 198 397 198 397 256 403 c 4,85,86
 265 404 265 404 274 404 c 4,87,88
 318 405 318 405 356 387 c 4,89,90
 402 365 402 365 435.5 317.5 c 132,-1,91
 469 270 469 270 469 214 c 4,92,93
 469 105 469 105 395 44 c 5,19,-1
EndSplineSet
EndChar

StartChar: u11319
Encoding: 70425 70425 120
Width: 607
Flags: MW
LayerCount: 2
Fore
SplineSet
548 1 m 2,0,-1
 356 1 l 1,1,-1
 356 -128 l 1,2,3
 344 -144 344 -144 330 -144 c 0,4,5
 318 -144 318 -144 305 -133 c 1,6,-1
 305 1 l 1,7,-1
 216 1 l 2,8,9
 93 2 93 2 60 40 c 0,10,11
 51 50 51 50 51 68 c 128,-1,12
 51 86 51 86 73.5 105.5 c 128,-1,13
 96 125 96 125 125 128 c 2,14,-1
 146 130 l 1,15,16
 249 141 249 141 292 147 c 0,17,18
 336 154 336 154 378 168 c 0,19,20
 468 198 468 198 468 263 c 0,21,22
 468 305 468 305 449 331.5 c 128,-1,23
 430 358 430 358 406 360 c 0,24,25
 404 360 404 360 402 361 c 0,26,27
 380 362 380 362 362 338 c 0,28,29
 342 312 342 312 333 253 c 1,30,-1
 333 212 l 2,31,32
 333 184 333 184 296 184 c 0,33,34
 283 184 283 184 271.5 190 c 128,-1,35
 260 196 260 196 260 207 c 0,36,37
 260 265 260 265 242 301 c 0,38,39
 224 338 224 338 200 350 c 0,40,41
 188 356 188 356 176 356 c 128,-1,42
 164 356 164 356 151 349 c 0,43,44
 127 336 127 336 115 298 c 1,45,46
 124 299 124 299 132 299 c 0,47,48
 175 299 175 299 198 269 c 0,49,50
 210 254 210 254 210 236 c 0,51,52
 210 182 210 182 166 168 c 0,53,54
 150 163 150 163 135 163 c 0,55,56
 108 164 108 164 83 178 c 0,57,58
 44 201 44 201 44 235 c 0,59,60
 44 306 44 306 74 347 c 0,61,62
 102 384 102 384 141 396 c 0,63,64
 157 401 157 401 174 401 c 0,65,66
 198 402 198 402 224 392 c 0,67,68
 267 376 267 376 296 334 c 1,69,70
 318 386 318 386 384 398 c 0,71,72
 405 402 405 402 423 401 c 0,73,74
 530 401 530 401 532 265 c 1,75,76
 532 164 532 164 421 128 c 0,77,78
 364 110 364 110 293 102 c 1,79,-1
 142 93 l 2,80,81
 124 92 124 92 111.5 82.5 c 128,-1,82
 99 73 99 73 102 62 c 0,83,84
 108 42 108 42 166 42 c 0,85,86
 188 42 188 42 217 45 c 9,87,88
 216 47 216 47 548 47 c 0,89,90
 558 47 558 47 563.5 40 c 128,-1,91
 569 33 569 33 569 24.5 c 128,-1,92
 569 16 569 16 563.5 8.5 c 128,-1,93
 558 1 558 1 548 1 c 2,0,-1
114.5 254 m 0,94,95
 106 248 106 248 105 233 c 128,-1,96
 104 218 104 218 114 210 c 0,97,98
 125 200 125 200 136 199 c 0,99,100
 143 200 143 200 150 204 c 0,101,102
 159 210 159 210 159 231 c 0,103,104
 159 261 159 261 134 261 c 0,105,106
 134 260 134 260 132 260 c 0,107,108
 124 260 124 260 114.5 254 c 0,94,95
EndSplineSet
PairPos2: "'dist' Distance lookup for overhang 2-1" uE32E dx=0 dy=0 dh=0 dv=0 dx=0 dy=-120 dh=0 dv=0
PairPos2: "'dist' Distance lookup for overhang 2-1" uE318 dx=0 dy=0 dh=0 dv=0 dx=0 dy=-120 dh=0 dv=0
PairPos2: "'dist' Distance lookup for overhang 2-1" uE317 dx=0 dy=0 dh=0 dv=0 dx=0 dy=-120 dh=0 dv=0
PairPos2: "'dist' Distance lookup for overhang 2-1" uE316 dx=0 dy=0 dh=0 dv=0 dx=0 dy=-120 dh=0 dv=0
PairPos2: "'dist' Distance lookup for overhang 2-1" uE315 dx=0 dy=0 dh=0 dv=0 dx=0 dy=-120 dh=0 dv=0
EndChar

StartChar: u1131A
Encoding: 70426 70426 121
Width: 832
Flags: MW
LayerCount: 2
Fore
SplineSet
781 1 m 1,0,1
 415 1 415 1 48 1 c 1,2,-1
 48 42 l 1,3,4
 96 40 96 40 137 40 c 0,5,6
 326 40 326 40 380 88 c 0,7,8
 417 121 417 121 417 158 c 0,9,10
 417 188 417 188 394 220 c 0,11,12
 377 244 377 244 342 258 c 0,13,14
 311 270 311 270 284 270 c 0,15,16
 245 270 245 270 215 245 c 1,17,18
 222 246 222 246 229 246 c 0,19,20
 271 246 271 246 304 224 c 0,21,22
 342 200 342 200 342 157 c 0,23,24
 342 110 342 110 306 85 c 0,25,26
 272 61 272 61 230 61 c 128,-1,27
 188 61 188 61 155 84 c 0,28,29
 123 107 123 107 121 153 c 1,30,-1
 121 162 l 1,31,32
 128 223 128 223 158 260 c 0,33,34
 188 298 188 298 228 314 c 0,35,36
 262 328 262 328 300 327 c 0,37,38
 307 327 307 327 314 327 c 0,39,40
 359 324 359 324 398.5 303.5 c 0,41,42
 438 284 438 284 462 246 c 0,43,44
 484 213 484 213 484 166 c 0,45,46
 484 160 484 160 484 154 c 0,47,48
 479 78 479 78 416 42 c 1,49,50
 671 42 671 42 697 41 c 1,51,-1
 697 353 l 2,52,53
 697 381 697 381 710 391.5 c 128,-1,54
 723 402 723 402 739.5 401.5 c 128,-1,55
 756 401 756 401 768.5 389 c 128,-1,56
 781 377 781 377 781 356 c 2,57,-1
 781 1 l 1,0,1
179 155 m 1,58,-1
 178 155 l 1,59,60
 178 133 178 133 194.5 121.5 c 0,61,62
 210 110 210 110 230 110 c 0,63,64
 231 110 231 110 232 109 c 0,65,66
 250 109 250 109 266 120 c 128,-1,67
 282 131 282 131 283 155 c 1,68,-1
 282 155 l 1,69,70
 282 178 282 178 266 188 c 0,71,72
 252 197 252 197 234 196 c 0,73,74
 232 196 232 196 230 196 c 0,75,76
 210 195 210 195 194.5 184 c 128,-1,77
 179 173 179 173 179 155 c 1,58,-1
EndSplineSet
EndChar

StartChar: u1131B
Encoding: 70427 70427 122
Width: 830
Flags: MW
LayerCount: 2
Fore
SplineSet
52 48 m 1,0,-1
 191 48 l 2,1,2
 312 48 312 48 353 66.5 c 128,-1,3
 394 85 394 85 412 106 c 0,4,5
 434 126 434 126 434 164 c 131,-1,6
 434 202 434 202 410 230 c 0,7,8
 388 258 388 258 356 272 c 0,9,10
 333 282 333 282 306 282 c 0,11,12
 298 282 298 282 290 281 c 0,13,14
 256 277 256 277 230 251 c 1,15,16
 238 252 238 252 245 252 c 0,17,18
 286 252 286 252 316 232 c 0,19,20
 334 220 334 220 346 202 c 0,21,22
 357 184 357 184 357 163 c 3,23,24
 357 114 357 114 322 90 c 0,25,26
 288 67 288 67 245 67 c 131,-1,27
 202 67 202 67 169 90.5 c 128,-1,28
 136 114 136 114 136 159 c 3,29,30
 136 218 136 218 174 255 c 0,31,32
 241 320 241 320 309 320 c 2,33,-1
 326 320 l 2,34,35
 422 318 422 318 472 248 c 0,36,37
 501 209 501 209 501 173 c 2,38,-1
 501 160 l 18,39,40
 501 125 501 125 482 95.5 c 128,-1,41
 463 66 463 66 431 48 c 1,42,-1
 583 48 l 1,43,-1
 583 316 l 2,44,45
 583 405 583 405 681 405 c 3,46,47
 771 405 771 405 771 330 c 2,48,-1
 771 0 l 1,49,-1
 52 0 l 1,50,-1
 52 48 l 1,0,-1
714 311 m 2,51,52
 714 318 714 318 702 330 c 0,53,54
 692 340 692 340 680 340 c 3,55,56
 666 340 666 340 654 333 c 0,57,58
 641 325 641 325 641 303 c 2,59,-1
 641 48 l 1,60,-1
 714 48 l 1,61,-1
 714 311 l 2,51,52
210 190 m 0,62,63
 194 179 194 179 194 159 c 131,-1,64
 194 139 194 139 210.5 127 c 128,-1,65
 227 115 227 115 247 115 c 3,66,67
 266 115 266 115 281 126 c 0,68,69
 297 137 297 137 297 161 c 19,70,71
 297 184 297 184 281 194 c 0,72,73
 267 202 267 202 249 202 c 3,74,75
 227 202 227 202 210 190 c 0,62,63
EndSplineSet
EndChar

StartChar: u1131C
Encoding: 70428 70428 123
Width: 722
Flags: MW
LayerCount: 2
Fore
SplineSet
414 -17 m 2,0,-1
 341 -81 l 2,1,2
 310 -108 310 -108 241 -108 c 0,3,4
 232 -108 232 -108 222 -108 c 1,5,6
 135 -108 135 -108 87 -58 c 0,7,8
 68 -38 68 -38 62 -9 c 0,9,10
 61 -4 61 -4 61 1 c 0,11,12
 61 23 61 23 75 45 c 0,13,14
 132 136 132 136 265 138 c 0,15,16
 436 140 436 140 513.5 168.5 c 128,-1,17
 591 197 591 197 592 258 c 0,18,19
 592 280 592 280 576 299.5 c 128,-1,20
 560 319 560 319 538 330 c 0,21,22
 513 342 513 342 491 342 c 0,23,24
 468 342 468 342 446 329 c 0,25,26
 401 301 401 301 401 230 c 0,27,28
 401 223 401 223 401 215 c 0,29,30
 401 199 401 199 379 199 c 0,31,32
 374 199 374 199 369 200 c 0,33,34
 337 204 337 204 337 219 c 0,35,36
 337 272 337 272 316 307.5 c 0,37,38
 295 342 295 342 266 358 c 0,39,40
 244 370 244 370 220 370 c 0,41,42
 212 370 212 370 205 369 c 0,43,44
 173 364 173 364 152 338 c 1,45,46
 203 335 203 335 228 281 c 0,47,48
 236 264 236 264 236 252 c 0,49,50
 236 190 236 190 188 172 c 0,51,52
 171 166 171 166 154 166 c 0,53,54
 130 166 130 166 106 176 c 0,55,56
 86 184 86 184 67.5 204.5 c 128,-1,57
 49 225 49 225 49 246 c 0,58,59
 49 336 49 336 111 378 c 0,60,61
 154 408 154 408 205 408 c 0,62,63
 228 408 228 408 252 402 c 0,64,65
 330 384 330 384 373 321 c 1,66,67
 401 392 401 392 474 407 c 0,68,69
 489 410 489 410 504 410 c 0,70,71
 558 410 558 410 606 374 c 0,72,73
 671 329.164296097 671 329.164296097 671 253 c 3,74,75
 671 151.955455367 671 151.955455367 480 110 c 0,76,77
 387 89 387 89 326 88 c 128,-1,78
 265 87 265 87 264 87 c 0,79,80
 200 74 200 74 165 50 c 0,81,82
 128 25 128 25 128 5 c 0,83,84
 128 -14 128 -14 152 -30 c 0,85,86
 177 -46 177 -46 222 -56 c 1,87,88
 305 -56 305 -56 361 0 c 1,89,90
 446 75 446 75 482 79 c 0,91,92
 511 82 511 82 535 82 c 0,93,94
 686 82 686 82 686 -12 c 4,95,96
 686 -15 686 -15 686 -19 c 0,97,98
 686 -108 686 -108 495 -108 c 0,99,100
 482 -108 482 -108 474 -101.5 c 128,-1,101
 466 -95 466 -95 465.5 -88 c 128,-1,102
 465 -81 465 -81 470.5 -75 c 128,-1,103
 476 -69 476 -69 492.5 -69 c 128,-1,104
 509 -69 509 -69 539.5 -66.5 c 128,-1,105
 570 -64 570 -64 588 -47.5 c 128,-1,106
 606 -31 606 -31 607.5 -16.5 c 128,-1,107
 609 -2 609 -2 597 12 c 128,-1,108
 585 26 585 26 563 34 c 0,109,110
 545 40 545 40 525 40 c 0,111,112
 479 40 479 40 414 -17 c 2,0,-1
124 278.5 m 128,-1,114
 116 267 116 267 116 250 c 128,-1,115
 116 233 116 233 123.5 224.5 c 128,-1,116
 131 216 131 216 140.5 214.5 c 128,-1,117
 150 213 150 213 159 219.5 c 128,-1,118
 168 226 168 226 171 242 c 1,119,-1
 171 246 l 2,120,121
 171 265 171 265 162.5 276.5 c 128,-1,122
 154 288 154 288 143 289 c 128,-1,113
 132 290 132 290 124 278.5 c 128,-1,114
EndSplineSet
PairPos2: "'dist' Distance lookup for overhang 2-1" uE31D dx=0 dy=0 dh=0 dv=0 dx=0 dy=-100 dh=0 dv=0
PairPos2: "'dist' Distance lookup for overhang 2-1" uE31C dx=0 dy=0 dh=0 dv=0 dx=0 dy=-100 dh=0 dv=0
EndChar

StartChar: u1131D
Encoding: 70429 70429 124
Width: 760
Flags: MW
LayerCount: 2
Fore
SplineSet
538 66 m 1,0,-1
 546 65 l 1,1,2
 588 67 588 67 616 90 c 0,3,4
 644 114 644 114 654 150 c 0,5,6
 659 167 659 167 660 186 c 0,7,8
 660 206 660 206 654 228 c 0,9,10
 642 270 642 270 605 312 c 1,11,-1
 595 328 l 1,12,13
 596 352 596 352 612 354 c 0,14,15
 614 354 614 354 615 354 c 0,16,17
 629 354 629 354 640 340 c 0,18,19
 688 283 688 283 704 221 c 0,20,21
 712 189 712 189 712 160 c 0,22,23
 712 134 712 134 704 110 c 0,24,25
 690 60 690 60 649.5 30.5 c 128,-1,26
 609 1 609 1 540.5 1 c 128,-1,27
 472 1 472 1 434.5 47 c 128,-1,28
 397 93 397 93 395 163 c 1,29,-1
 358 163 l 1,30,-1
 358 36 l 2,31,32
 358 16 358 16 354 8.5 c 128,-1,33
 350 1 350 1 333 1 c 2,34,-1
 215 1 l 2,35,36
 192 1 192 1 186.5 8.5 c 128,-1,37
 181 16 181 16 181 36 c 2,38,-1
 181 184 l 2,39,40
 181 194 181 194 187.5 200.5 c 128,-1,41
 194 207 194 207 203 207 c 2,42,-1
 285 207 l 1,43,-1
 285 365 l 1,44,-1
 128 365 l 1,45,-1
 128 24 l 18,46,47
 128 13 128 13 119.5 7 c 128,-1,48
 111 1 111 1 102 1 c 0,49,50
 100 1 100 1 98 1 c 0,51,52
 70 1 70 1 70 26 c 2,53,-1
 70 383 l 2,54,55
 70 395 70 395 77.5 404.5 c 128,-1,56
 85 414 85 414 101 414 c 2,57,-1
 389 414 l 2,58,59
 402 414 402 414 409.5 406 c 128,-1,60
 417 398 417 398 417 389 c 256,61,62
 417 380 417 380 410.5 372.5 c 128,-1,63
 404 365 404 365 392 365 c 2,64,-1
 358 365 l 1,65,-1
 358 207 l 1,66,-1
 398 207 l 1,67,68
 409 288 409 288 454 331 c 2,69,-1
 475 351 l 2,70,71
 481 357 481 357 490.5 356.5 c 128,-1,72
 500 356 500 356 507 352 c 0,73,74
 524 340 524 340 513 329 c 0,75,76
 474 290 474 290 456 244 c 0,77,78
 442 207 442 207 441 174 c 0,79,80
 441 166 441 166 442 158 c 0,81,82
 446 118 446 118 470.5 92 c 128,-1,83
 495 66 495 66 538 66 c 1,0,-1
241 52 m 1,84,-1
 285 52 l 1,85,-1
 285 163 l 1,86,-1
 241 163 l 1,87,-1
 241 52 l 1,84,-1
EndSplineSet
EndChar

StartChar: u1131E
Encoding: 70430 70430 125
Width: 762
Flags: MW
LayerCount: 2
Fore
SplineSet
431 0 m 2,0,-1
 429 0 l 2,1,2
 308 0 308 0 222 36 c 0,3,4
 176 56 176 56 146 88 c 0,5,6
 118 118 118 118 119 162 c 0,7,8
 119 165 119 165 119 168 c 0,9,10
 119 184 119 184 137 182 c 0,11,12
 156 181 156 181 156 166 c 0,13,14
 156 110 156 110 214 78 c 0,15,16
 285 38 285 38 430 37 c 0,17,18
 436 37 436 37 437 36 c 0,19,20
 542 38 542 38 599 90 c 0,21,22
 624 112 624 112 632 138 c 0,23,24
 636 151 636 151 636 164 c 128,-1,25
 636 177 636 177 632 189 c 0,26,27
 624 213 624 213 597.5 231.5 c 128,-1,28
 571 250 571 250 529 256 c 1,29,-1
 529 214 l 2,30,31
 530 170 530 170 514 142 c 0,32,33
 491 100 491 100 434 100 c 2,34,-1
 430 100 l 2,35,36
 352 100 352 100 311 125.5 c 0,37,38
 270 152 270 152 262 184 c 0,39,40
 260 193 260 193 259 202 c 0,41,42
 258 225 258 225 274 248 c 0,43,44
 296 280 296 280 342 294 c 1,45,46
 337 316 337 316 314.5 335.5 c 0,47,48
 292 356 292 356 260 368 c 0,49,50
 221 383 221 383 187 383 c 0,51,52
 154 383 154 383 125 369 c 1,53,54
 166 366 166 366 186 342 c 0,55,56
 205 319 205 319 205 293 c 0,57,58
 206 264 206 264 182 241 c 0,59,60
 160 219 160 219 111 219 c 128,-1,61
 62 219 62 219 36 253 c 0,62,63
 19 275 19 275 20 297 c 0,64,65
 20 318 20 318 36 337 c 0,66,67
 69 376 69 376 110.5 394 c 128,-1,68
 152 412 152 412 194 414 c 0,69,70
 199 414 199 414 204 414 c 0,71,72
 282 414 282 414 343 369 c 1,73,-1
 343 412 l 1,74,-1
 566 412 l 1,75,76
 569 412 569 412 572 412 c 0,77,78
 590 412 590 412 598 406 c 0,79,80
 608 400 608 400 607.5 392 c 128,-1,81
 607 384 607 384 595 377.5 c 128,-1,82
 583 371 583 371 560 371 c 2,83,-1
 529 371 l 1,84,-1
 529 299 l 1,85,86
 597 294 597 294 638.5 270 c 128,-1,87
 680 246 680 246 696 212 c 0,88,89
 707 190 707 190 707 167 c 0,90,91
 707 154 707 154 704 142 c 0,92,93
 695 104 695 104 662 72.5 c 128,-1,94
 629 41 629 41 571 20.5 c 128,-1,95
 513 0 513 0 431 0 c 2,0,-1
373 264 m 2,96,97
 338 264 338 264 319 240 c 0,98,99
 304 221 304 221 304 205 c 0,100,101
 304 200 304 200 306 196 c 0,102,103
 312 177 312 177 342.5 161.5 c 128,-1,104
 373 146 373 146 431 146 c 2,105,-1
 434 146 l 2,106,107
 450 146 450 146 457 156.5 c 128,-1,108
 464 167 464 167 464 177 c 2,109,-1
 464 264 l 1,110,-1
 373 264 l 2,96,97
153.5 321 m 128,-1,112
 141 333 141 333 114.5 333 c 128,-1,113
 88 333 88 333 74.5 321 c 128,-1,114
 61 309 61 309 61 294.5 c 128,-1,115
 61 280 61 280 74.5 268 c 128,-1,116
 88 256 88 256 114.5 256 c 128,-1,117
 141 256 141 256 153.5 268 c 128,-1,118
 166 280 166 280 166 294.5 c 128,-1,111
 166 309 166 309 153.5 321 c 128,-1,112
465 372 m 1,119,120
 396 373 396 373 395 373 c 1,121,-1
 395 300 l 1,122,-1
 465 300 l 1,123,-1
 465 372 l 1,119,120
EndSplineSet
EndChar

StartChar: u1131F
Encoding: 70431 70431 126
Width: 660
Flags: MW
LayerCount: 2
Fore
SplineSet
614 25 m 128,-1,1
 614 0 614 0 595 0 c 2,2,-1
 363 0 l 1,3,-1
 363 -67 l 2,4,5
 363 -91 363 -91 328 -91 c 0,6,7
 315 -91 315 -91 305 -85 c 128,-1,8
 295 -79 295 -79 295 -67 c 2,9,-1
 295 0 l 1,10,-1
 64 0 l 2,11,12
 49 0 49 0 39.5 7.5 c 128,-1,13
 30 15 30 15 30 26 c 2,14,-1
 30 386 l 2,15,16
 30 397 30 397 40 403 c 128,-1,17
 50 409 50 409 63 409 c 128,-1,18
 76 409 76 409 86 403 c 128,-1,19
 96 397 96 397 96 386 c 2,20,-1
 96 50 l 1,21,-1
 595 50 l 2,22,0
 614 50 614 50 614 25 c 128,-1,1
EndSplineSet
Validated: 1
Position2: "Single Position lookup 0-1" dx=0 dy=0 dh=-160 dv=0
EndChar

StartChar: u11320
Encoding: 70432 70432 127
Width: 624
Flags: MW
LayerCount: 2
Fore
SplineSet
183 382 m 0,0,1
 234 402 234 402 304 402 c 7,2,3
 434 402 434 402 506 342.5 c 128,-1,4
 578 283 578 283 578 200 c 256,5,6
 578 118 578 118 503.5 59 c 128,-1,7
 429 0 429 0 303.5 0 c 128,-1,8
 178 0 178 0 108 59 c 128,-1,9
 38 118 38 118 38 196 c 256,10,11
 38 326 38 326 183 382 c 0,0,1
307 339 m 0,12,13
 224 336 224 336 177 290 c 0,14,15
 131 244 131 244 131 194 c 128,-1,16
 131 144 131 144 175.5 106.5 c 128,-1,17
 220 69 220 69 297 69 c 2,18,-1
 300 69 l 2,19,20
 360 69 360 69 400 89 c 0,21,22
 484 130 484 130 485 202 c 0,23,24
 485 270 485 270 405 314 c 0,25,26
 362 339 362 339 307 339 c 0,12,13
EndSplineSet
EndChar

StartChar: u11321
Encoding: 70433 70433 128
Width: 735
Flags: MW
LayerCount: 2
Fore
SplineSet
139 330 m 5,0,-1
 125 340 l 5,1,2
 113 324 113 324 113 301 c 0,3,4
 113 290 113 290 116 279 c 5,5,6
 120 278 120 278 123 278 c 0,7,8
 138 278 138 278 144 294 c 4,9,10
 147 302 147 302 148 309 c 0,11,12
 148 320 148 320 139 330 c 5,0,-1
343 176 m 6,13,-1
 355 176 l 6,14,15
 388 176 388 176 391 157 c 4,16,17
 397 119 397 119 421.5 95 c 4,18,19
 446 70 446 70 470 64 c 4,20,21
 480 61 480 61 491 62 c 0,22,23
 506 62 506 62 524 67 c 4,24,25
 554 76 554 76 582.5 101 c 4,26,27
 610 126 610 126 612 148 c 4,28,29
 616 203 616 203 617 227 c 0,30,31
 617 235 617 235 616 240 c 4,32,33
 613 287 613 287 582 321.5 c 132,-1,34
 551 356 551 356 485 368 c 4,35,36
 418 380 418 380 410 382 c 4,37,38
 404 382 404 382 403 389.5 c 132,-1,39
 402 397 402 397 412 403 c 4,40,41
 424 410 424 410 447 410 c 0,42,43
 474 410 474 410 516 399 c 4,44,45
 554 389 554 389 595.5 364.5 c 4,46,47
 638 340 638 340 654 314 c 4,48,49
 690 252 690 252 690 215.5 c 132,-1,50
 690 179 690 179 674.5 139 c 4,51,52
 660 99 660 99 634 68 c 4,53,54
 579 1 579 1 502 1 c 0,55,56
 501 1 501 1 500 1 c 4,57,58
 422 2 422 2 360 97 c 5,59,60
 324 26 324 26 248 8 c 4,61,62
 222 2 222 2 199 2 c 0,63,64
 154 2 154 2 118 25 c 4,65,66
 92 42 92 42 78 70 c 4,67,68
 68 90 68 90 67 114 c 0,69,70
 67 124 67 124 69 135 c 5,71,-1
 76 148 l 6,72,73
 88 170 88 170 117.5 191 c 132,-1,74
 147 212 147 212 190.5 238 c 132,-1,75
 234 264 234 264 240 272 c 20,76,77
 258 295 258 295 258 313 c 0,78,79
 258 342 258 342 216 362 c 4,80,81
 201 369 201 369 184 369 c 0,82,83
 182 369 182 369 180 369 c 4,84,85
 160 368 160 368 142 357 c 5,86,87
 172 358 172 358 178 308 c 4,88,89
 178 305 178 305 178 301 c 0,90,91
 178 280 178 280 162 260 c 4,92,93
 148 241 148 241 134 241 c 0,94,95
 130 241 130 241 127 242 c 4,96,97
 68 260 68 260 68 326 c 0,98,99
 68 332 68 332 69 339 c 4,100,101
 71 364 71 364 106.5 386 c 132,-1,102
 142 408 142 408 180 410 c 4,103,104
 186 410 186 410 190 411 c 0,105,106
 221 410 221 410 248 398 c 4,107,108
 279 384 279 384 295 352 c 4,109,110
 309 325 309 325 309 302 c 0,111,112
 309 281 309 281 297 264 c 4,113,114
 284 243 284 243 203 205.5 c 132,-1,115
 122 168 122 168 122 128 c 4,116,117
 122 70 122 70 174 58 c 4,118,119
 211 50 211 50 239 49 c 0,120,121
 282 50 282 50 302 70 c 4,122,-1
 330 166 l 5,123,124
 340 176 340 176 343 176 c 6,13,-1
EndSplineSet
Validated: 33
EndChar

StartChar: u11322
Encoding: 70434 70434 129
Width: 736
Flags: MW
LayerCount: 2
Fore
SplineSet
481 0 m 3,0,1
 399 0 399 0 345 63 c 1,2,3
 324 34 324 34 286 17 c 128,-1,4
 248 0 248 0 210.5 0 c 131,-1,5
 173 0 173 0 145 15.5 c 0,6,7
 112 34 112 34 96 72 c 0,8,9
 86 96 86 96 86 119 c 3,10,11
 86 155 86 155 114 172 c 0,12,13
 188 216 188 216 206 232.5 c 128,-1,14
 224.164383562 249.150684932 224.164383562 249.150684932 228 276 c 2,15,-1
 231 297 l 26,16,17
 233 310 233 310 218.44140625 333.08984375 c 128,-1,18
 204 356 204 356 196 359 c 128,-1,19
 188 362 188 362 178.5 362 c 131,-1,20
 169 362 169 362 154 358 c 1,21,22
 181 338 181 338 181 303 c 2,23,-1
 181 298 l 2,24,25
 181 280 181 280 162 260.5 c 0,26,27
 149 248 149 248 133 242 c 24,28,29
 121 237 121 237 103 242 c 0,30,31
 68 251 68 251 61 268 c 0,32,33
 52 291 52 291 52 302.5 c 3,34,35
 52 320 52 320 59 336 c 0,36,37
 73 372 73 372 102.5 390 c 128,-1,38
 132 408 132 408 164 408 c 7,39,40
 237 408 237 408 274 356 c 0,41,42
 290 334 290 334 289 298 c 0,43,44
 289 294 289 294 289 290 c 8,45,46
 287 248 287 248 260.5 218 c 128,-1,47
 234 188 234 188 166 155 c 0,48,49
 138 141 138 141 138 132 c 18,50,-1
 138 123 l 2,51,52
 138 86 138 86 165.5 60 c 0,53,54
 186 41 186 41 215 41 c 3,55,56
 243 41 243 41 276 72 c 0,57,58
 293 88 293 88 317 157 c 0,59,60
 324 177 324 177 344 177 c 3,61,62
 366 177 366 177 369 158 c 0,63,64
 382 81 382 81 427 57 c 0,65,66
 457 41 457 41 478 40.5 c 0,67,68
 491 40 491 40 506 44 c 0,69,70
 544 54 544 54 574 98 c 128,-1,71
 604 142 604 142 604 236 c 3,72,73
 604 362 604 362 493 362 c 0,74,75
 475 362 475 362 456 357 c 1,76,77
 496 354 496 354 508 336.5 c 128,-1,78
 520 319 520 319 520 307.5 c 3,79,80
 520 272 520 272 497.5 250.346153846 c 0,81,82
 475 229 475 229 447 228 c 0,83,84
 425 228 425 228 407 239 c 2,85,-1
 389 250 l 2,86,87
 375 259 375 259 375 299.5 c 131,-1,88
 375 340 375 340 386 353 c 0,89,90
 434 409 434 409 493 409 c 19,91,92
 616 409 616 409 660 306 c 0,93,94
 671 280 671 280 671 259.5 c 128,-1,95
 671 239 671 239 663.5 185.5 c 128,-1,96
 656 132 656 132 652 122 c 0,97,98
 617 36 617 36 542 12 c 0,99,100
 505 0 505 0 481 0 c 3,0,1
424 333 m 24,101,102
 409 323.625 409 323.625 409 308 c 0,103,104
 409 278 409 278 437 273 c 0,105,106
 452.359351737 269.632793114 452.359351737 269.632793114 460 276 c 0,107,108
 476 288 476 288 477 303 c 0,109,110
 477 310 477 310 473 318 c 0,111,112
 468.833333333 326.928571429 468.833333333 326.928571429 449 333 c 24,113,114
 432 338 432 338 424 333 c 24,101,102
102 270 m 1,115,116
 118 264 118 264 130 272 c 0,117,118
 146 282 146 282 146 300 c 0,119,120
 146 314 146 314 144 319 c 0,121,122
 135 342 135 342 115.5 342 c 131,-1,123
 96 342 96 342 89 315 c 0,124,125
 87 307 87 307 87 300 c 3,126,127
 87 283 87 283 102 270 c 1,115,116
EndSplineSet
EndChar

StartChar: u11323
Encoding: 70435 70435 130
Width: 967
Flags: MW
LayerCount: 2
Fore
SplineSet
622 307 m 1,0,1
 583 252 583 252 583 170 c 0,2,3
 583 114 583 114 596.5 81 c 128,-1,4
 610 48 610 48 627.5 48 c 128,-1,5
 645 48 645 48 659.5 80 c 128,-1,6
 674 112 674 112 674 164 c 0,7,8
 674 254 674 254 622 307 c 1,0,1
375 306 m 1,9,10
 360 280 360 280 343 249 c 0,11,12
 326 219 326 219 325 166 c 0,13,14
 325 108 325 108 341 72 c 0,15,16
 356 41 356 41 374 41 c 0,17,18
 375 41 375 41 376 41 c 0,19,20
 395 43 395 43 411.5 79 c 128,-1,21
 428 115 428 115 428 168 c 128,-1,22
 428 221 428 221 408 252 c 1,23,24
 394 283 394 283 375 306 c 1,9,10
108 153 m 128,-1,26
 96 141 96 141 96 110.5 c 128,-1,27
 96 80 96 80 108 61.5 c 128,-1,28
 120 43 120 43 135 40 c 128,-1,29
 150 37 150 37 161.5 48.5 c 128,-1,30
 173 60 173 60 173 91 c 128,-1,31
 173 122 173 122 161.5 143.5 c 128,-1,32
 150 165 150 165 135 165 c 128,-1,25
 120 165 120 165 108 153 c 128,-1,26
270 178 m 0,33,34
 270 280 270 280 330 344 c 1,35,36
 297 367 297 367 261 367 c 0,37,38
 224 367 224 367 192 349 c 0,39,40
 120 309 120 309 99 196 c 1,41,42
 113 200 113 200 127 200 c 0,43,44
 157 200 157 200 184 180 c 0,45,46
 227 148 227 148 227 85 c 0,47,48
 227 55 227 55 213.5 35.5 c 128,-1,49
 200 16 200 16 179.5 8 c 128,-1,50
 159 0 159 0 135 0 c 0,51,52
 110 0 110 0 90 14 c 0,53,54
 38 50 38 50 39 116 c 0,55,56
 39 220 39 220 72.5 285 c 128,-1,57
 106 350 106 350 156.5 380.5 c 128,-1,58
 207 411 207 411 265.5 411 c 128,-1,59
 324 411 324 411 374 379 c 1,60,61
 429 411 429 411 495 411 c 128,-1,62
 561 411 561 411 620 380 c 1,63,64
 673 410 673 410 726 410 c 26,65,-1
 922 410 l 1,66,-1
 922 359 l 1,67,-1
 859 359 l 1,68,-1
 859 0 l 1,69,70
 826 0 826 0 793 0 c 1,71,-1
 793 359 l 1,72,-1
 725 359 l 2,73,74
 697 359 697 359 669 346 c 1,75,76
 706 313 706 313 721.5 275 c 128,-1,77
 737 237 737 237 737 176.5 c 128,-1,78
 737 116 737 116 722 76 c 128,-1,79
 707 36 707 36 683.5 18 c 128,-1,80
 660 0 660 0 634 0 c 0,81,82
 584 0 584 0 542 84 c 0,83,84
 524 123 524 123 524 178 c 0,85,86
 524 279 524 279 575 342 c 1,87,88
 540 360 540 360 498 362 c 0,89,90
 494 362 494 362 490 362 c 0,91,92
 453 362 453 362 420 343 c 1,93,94
 446 318 446 318 467.5 277 c 128,-1,95
 489 236 489 236 489 180.5 c 128,-1,96
 489 125 489 125 473 84 c 128,-1,97
 457 43 457 43 433 21.5 c 128,-1,98
 409 0 409 0 380 0 c 128,-1,99
 351 0 351 0 327 19.5 c 128,-1,100
 303 39 303 39 286.5 78.5 c 128,-1,101
 270 118 270 118 270 178 c 0,33,34
EndSplineSet
EndChar

StartChar: u11324
Encoding: 70436 70436 131
Width: 671
Flags: MW
LayerCount: 2
Fore
SplineSet
229 393 m 2,0,1
 229 413 229 413 269 413 c 2,2,-1
 448 413 l 2,3,4
 465 413 465 413 474 405.5 c 128,-1,5
 483 398 483 398 484 390 c 128,-1,6
 485 382 485 382 477.5 375 c 128,-1,7
 470 368 470 368 456 368 c 2,8,-1
 441 368 l 1,9,-1
 441 297 l 1,10,11
 447 297 447 297 453 297 c 0,12,13
 519 298 519 298 569 242 c 0,14,15
 592 216 592 216 606 184 c 4,16,17
 618 156 618 156 618 137 c 0,18,19
 618 134 618 134 618 132 c 4,20,21
 614 82 614 82 586 52 c 0,22,23
 538 0 538 0 436 0 c 2,24,-1
 182 0 l 2,25,26
 94 0 94 0 84 -12 c 0,27,28
 79 -18 79 -18 87.5 -28 c 128,-1,29
 96 -38 96 -38 106 -46.5 c 128,-1,30
 116 -55 116 -55 113.5 -65 c 128,-1,31
 111 -75 111 -75 102 -82.5 c 128,-1,32
 93 -90 93 -90 80 -92.5 c 128,-1,33
 67 -95 67 -95 57.5 -88 c 128,-1,34
 48 -81 48 -81 38 -68.5 c 128,-1,35
 28 -56 28 -56 24.5 -42.5 c 128,-1,36
 21 -29 21 -29 25 -15 c 0,37,38
 34 16 34 16 96 30 c 0,39,40
 140 41 140 41 214 40 c 0,41,42
 220 40 220 40 226 40 c 0,43,44
 309 39 309 39 350.5 39 c 128,-1,45
 392 39 392 39 429 42.5 c 128,-1,46
 466 46 466 46 495 58 c 0,47,48
 558 83 558 83 558 143 c 2,49,-1
 558 154 l 2,50,51
 558 190 558 190 528 218 c 0,52,53
 492 250 492 250 447 250 c 0,54,55
 445 250 445 250 442 250 c 1,56,57
 444 226 444 226 446 196 c 0,58,59
 446 192 446 192 446 187 c 0,60,61
 446 161 446 161 438 138 c 0,62,63
 416 73 416 73 328 73 c 9,64,65
 242 73 242 73 191 99.5 c 128,-1,66
 140 126 140 126 126 162 c 0,67,68
 121 175 121 175 121 189 c 0,69,70
 121 212 121 212 137 236 c 0,71,72
 162 272 162 272 229 293 c 1,73,-1
 229 393 l 2,0,1
327 124 m 16,74,75
 370 124 370 124 370 192 c 0,76,77
 370 200 370 200 370 208 c 0,78,79
 368 230 368 230 367 253 c 1,80,-1
 257 253 l 1,81,82
 208 242 208 242 186 220 c 0,83,84
 169 203 169 203 169 186 c 0,85,86
 169 180 169 180 171 174 c 0,87,88
 189 124 189 124 327 124 c 16,74,75
287 368 m 1,89,-1
 287 299 l 1,90,-1
 367 299 l 1,91,-1
 367 368 l 1,92,-1
 287 368 l 1,89,-1
EndSplineSet
Validated: 33
EndChar

StartChar: u11325
Encoding: 70437 70437 132
Width: 768
Flags: MW
LayerCount: 2
Fore
SplineSet
651 169 m 1,0,1
 605 129 605 129 549.5 129 c 128,-1,2
 494 129 494 129 456 178 c 0,3,4
 428 214 428 214 428.5 264.5 c 128,-1,5
 429 315 429 315 452 348 c 0,6,7
 492 407 492 407 575 407 c 0,8,9
 675 407 675 407 714 331 c 0,10,11
 736 289 736 289 735 244 c 0,12,13
 735 118 735 118 649 52 c 0,14,15
 580 0 580 0 488 -0 c 0,16,17
 430 0 430 0 378 22 c 128,-1,18
 326 44 326 44 292 79 c 1,19,20
 260 0 260 0 186 0 c 0,21,22
 97 0 97 0 51 98 c 0,23,24
 36 130 36 130 36 170 c 2,25,-1
 36 389 l 6,26,27
 36 407 36 407 66 407 c 128,-1,28
 96 407 96 407 96 389 c 2,29,-1
 96 170 l 2,30,31
 96 117 96 117 120 84 c 128,-1,32
 144 51 144 51 168.5 51 c 128,-1,33
 193 51 193 51 209.5 68.5 c 128,-1,34
 226 86 226 86 226 150 c 2,35,-1
 226 384 l 2,36,37
 226 395 226 395 237.5 401 c 128,-1,38
 249 407 249 407 264.5 407 c 128,-1,39
 280 407 280 407 292 401 c 128,-1,40
 304 395 304 395 304 384 c 2,41,-1
 304 175 l 1,42,43
 328 101 328 101 406 71 c 0,44,45
 440 58 440 58 477 58 c 128,-1,46
 514 58 514 58 548 70 c 0,47,48
 622 98 622 98 651 169 c 1,0,1
510 210 m 0,49,50
 530 177 530 177 576.5 177 c 128,-1,51
 623 177 623 177 654 208 c 0,52,53
 656 210 656 210 656 220 c 0,54,55
 656 297 656 297 632 323 c 0,56,57
 600 358 600 358 571 358 c 128,-1,58
 542 358 542 358 518 336.5 c 128,-1,59
 494 315 494 315 494 274.5 c 128,-1,60
 494 234 494 234 510 210 c 0,49,50
EndSplineSet
EndChar

StartChar: u11326
Encoding: 70438 70438 133
Width: 512
Flags: MW
LayerCount: 2
Fore
SplineSet
165.5 290 m 128,-1,1
 153 302 153 302 140.5 302 c 128,-1,2
 128 302 128 302 113.5 293 c 128,-1,3
 99 284 99 284 99 260.5 c 128,-1,4
 99 237 99 237 111 217.5 c 0,5,6
 122 198 122 198 138 198 c 0,7,-1
 139 197 l 0,8,9
 154 197 154 197 166 212 c 128,-1,10
 178 227 178 227 178 252.5 c 128,-1,0
 178 278 178 278 165.5 290 c 128,-1,1
343 -82 m 2,11,12
 343 -106 343 -106 310 -106 c 0,13,14
 298 -106 298 -106 288 -101 c 128,-1,15
 278 -96 278 -96 278 -86 c 2,16,-1
 278 0 l 1,17,-1
 218 0 l 2,18,19
 138 0 138 0 105 17 c 0,20,21
 73 33 73 33 73 53 c 0,22,23
 73 112 73 112 199 124 c 0,24,25
 242 128 242 128 266.5 140 c 128,-1,26
 291 152 291 152 313.5 170.5 c 128,-1,27
 336 189 336 189 340 199 c 0,28,29
 347 219 347 219 347 242 c 0,30,31
 346 266 346 266 338 296 c 0,32,33
 330 322 330 322 293 339.5 c 128,-1,34
 256 357 256 357 219 357 c 128,-1,35
 182 357 182 357 154 343 c 1,36,37
 184 339 184 339 207.5 317 c 128,-1,38
 231 295 231 295 231 258 c 128,-1,39
 231 221 231 221 218 200.5 c 128,-1,40
 205 180 205 180 184.5 169.5 c 128,-1,41
 164 159 164 159 140 159 c 128,-1,42
 116 159 116 159 95.5 168 c 128,-1,43
 75 177 75 177 62 200 c 128,-1,44
 49 223 49 223 49 268 c 128,-1,45
 49 313 49 313 79 347.5 c 128,-1,46
 109 382 109 382 151 394 c 0,47,48
 186 404 186 404 225 404 c 0,49,50
 233 404 233 404 242 404 c 0,51,52
 291 402 291 402 334.5 383.5 c 0,53,54
 378 364 378 364 406 326 c 0,55,56
 429 293 429 293 429 237 c 0,57,58
 429 227 429 227 428 216 c 0,59,60
 427 200 427 200 412 178 c 0,61,62
 377 126 377 126 300 98 c 0,63,64
 263 85 263 85 224.5 84.5 c 128,-1,65
 186 84 186 84 156 76 c 0,66,67
 123 67 123 67 123 58.5 c 128,-1,68
 123 50 123 50 220 50 c 10,69,-1
 444 50 l 6,70,71
 473 50 473 50 473 26 c 0,72,73
 473 17 473 17 466 8.5 c 128,-1,74
 459 0 459 0 444 0 c 2,75,-1
 343 0 l 1,76,-1
 343 -82 l 2,11,12
EndSplineSet
Validated: 1
PairPos2: "'dist' Distance lookup for overhang 2-1" uE32E dx=0 dy=0 dh=0 dv=0 dx=0 dy=-80 dh=0 dv=0
PairPos2: "'dist' Distance lookup for overhang 2-1" uE32D dx=0 dy=0 dh=0 dv=0 dx=0 dy=-80 dh=0 dv=0
PairPos2: "'dist' Distance lookup for overhang 2-1" uE32C dx=0 dy=0 dh=0 dv=0 dx=0 dy=-80 dh=0 dv=0
PairPos2: "'dist' Distance lookup for overhang 2-1" uE326 dx=0 dy=0 dh=0 dv=0 dx=0 dy=-80 dh=0 dv=0
PairPos2: "'dist' Distance lookup for overhang 2-1" uE318 dx=0 dy=0 dh=0 dv=0 dx=0 dy=-80 dh=0 dv=0
PairPos2: "'dist' Distance lookup for overhang 2-1" uE317 dx=0 dy=0 dh=0 dv=0 dx=0 dy=-80 dh=0 dv=0
EndChar

StartChar: u11327
Encoding: 70439 70439 134
Width: 768
Flags: MW
LayerCount: 2
Fore
SplineSet
67 166 m 2,0,-1
 67 378 l 2,1,2
 67 391 67 391 77 399 c 128,-1,3
 87 407 87 407 97.5 407 c 128,-1,4
 108 407 108 407 117 399.5 c 128,-1,5
 126 392 126 392 126 378 c 2,6,-1
 126 166 l 2,7,8
 126 121 126 121 151 87 c 128,-1,9
 176 53 176 53 200 53 c 0,10,11
 251 55 251 55 251 153 c 2,12,-1
 251 380 l 2,13,14
 251 393 251 393 262 400 c 128,-1,15
 273 407 273 407 286.5 407 c 132,-1,16
 300 407 300 407 312 400 c 128,-1,17
 324 393 324 393 324 380 c 2,18,-1
 324 172 l 2,19,20
 324 134 324 134 365 104 c 0,21,22
 407 74 407 74 430 68 c 0,23,24
 451 62 451 62 492 62 c 0,25,26
 494 62 494 62 498 62 c 0,27,28
 582 63 582 63 633 138 c 0,29,30
 660 178 660 178 660 216 c 0,31,32
 660 287 660 287 601 333 c 1,33,34
 570 363 570 363 523 363 c 16,35,36
 496 363 496 363 496 388 c 0,37,38
 496 407 496 407 530 407 c 0,39,40
 596 407 596 407 656 351 c 0,41,42
 682 326 682 326 704 286 c 128,-1,43
 726 246 726 246 726 225 c 0,44,45
 726 170 726 170 703 124 c 0,46,47
 658 33 658 33 565 10 c 0,48,49
 524 0 524 0 477.5 0 c 128,-1,50
 431 0 431 0 388 20 c 128,-1,51
 345 40 345 40 314 74 c 1,52,53
 303 45 303 45 278.5 22.5 c 128,-1,54
 254 0 254 0 208 0 c 128,-1,55
 162 0 162 0 118 38 c 0,56,57
 67 82 67 82 67 166 c 2,0,-1
EndSplineSet
EndChar

StartChar: u11328
Encoding: 70440 70440 135
Width: 742
Flags: MW
LayerCount: 2
Fore
SplineSet
295 90 m 0,0,1
 330 90 330 90 330 121 c 2,2,-1
 330 352 l 1,3,-1
 422 352 l 1,4,5
 422 261 422 261 422 193 c 128,-1,6
 422 125 422 125 433.5 106.5 c 128,-1,7
 445 88 445 88 461.5 88 c 128,-1,8
 478 88 478 88 490 105.5 c 128,-1,9
 502 123 502 123 502 163 c 2,10,-1
 502 186 l 18,11,12
 502 220 502 220 578 220 c 0,13,14
 624 220 624 220 624 139 c 0,15,16
 624 95 624 95 598.5 70.5 c 128,-1,17
 573 46 573 46 503 46 c 2,18,-1
 95 46 l 1,19,20
 54 45 54 45 30 13 c 0,21,22
 14 -9 14 -9 14 -34.5 c 128,-1,23
 14 -60 14 -60 23 -87.5 c 128,-1,24
 32 -115 32 -115 38 -121 c 128,-1,25
 44 -127 44 -127 54.5 -127 c 128,-1,26
 65 -127 65 -127 73 -112.5 c 152,-1,27
 81 -98 81 -98 81 -89 c 128,-1,28
 81 -80 81 -80 75.5 -69 c 128,-1,29
 70 -58 70 -58 65 -46 c 0,30,31
 62 -39 62 -39 62 -34 c 0,32,33
 62 -18 62 -18 85 -8 c 0,34,35
 107 0 107 0 140 0 c 2,36,-1
 503 0 l 2,37,38
 600 0 600 0 654 43 c 128,-1,39
 708 86 708 86 708 139 c 0,40,41
 708 210 708 210 638 248 c 0,42,43
 608 264 608 264 571.5 264.5 c 128,-1,44
 535 265 535 265 503 252 c 1,45,-1
 503 352 l 1,46,-1
 585 352 l 2,47,48
 597 352 597 352 603 359.5 c 128,-1,49
 609 367 609 367 609 375.5 c 128,-1,50
 609 384 609 384 603 391 c 128,-1,51
 597 398 597 398 585 398 c 2,52,-1
 298 398 l 2,53,54
 269 398 269 398 264.5 395.5 c 152,-1,55
 260 393 260 393 260 374 c 2,56,-1
 260 121 l 2,57,58
 260 109 260 109 270.5 99.5 c 128,-1,59
 281 90 281 90 295 90 c 0,0,1
EndSplineSet
EndChar

StartChar: u1132A
Encoding: 70442 70442 136
Width: 864
Flags: MW
LayerCount: 2
Fore
SplineSet
816 27 m 2,0,1
 816 0 816 0 769 0 c 2,2,-1
 302 0 l 1,3,-1
 291 26 l 1,4,5
 294 36 294 36 300 42 c 24,6,7
 332 71 332 71 343.5 84.5 c 128,-1,8
 355 98 355 98 366 121.5 c 128,-1,9
 377 145 377 145 377 205.5 c 128,-1,10
 377 266 377 266 341 304.5 c 0,11,12
 302 345 302 345 262 345 c 3,13,14
 221 345 221 345 178 315 c 24,15,16
 138.905528236 290.275110513 138.905528236 290.275110513 111 214 c 1,17,18
 130 222 130 222 147 222 c 0,19,20
 159 222 159 222 170 218 c 0,21,22
 221 201 221 201 241 155 c 0,23,24
 252 129 252 129 252 104 c 0,25,26
 252 94 252 94 250 84 c 0,27,28
 244 50 244 50 219 25 c 128,-1,29
 194 0 194 0 168 0 c 0,30,31
 100 0 100 0 67 54 c 0,32,33
 45 90 45 90 45 156 c 0,34,35
 45.9838882138 275.050473871 45.9838882138 275.050473871 152 370 c 0,36,37
 190 404 190 404 243.5 404 c 3,38,39
 294 404 294 404 352 380 c 0,40,41
 395 362 395 362 431 314.5 c 0,42,43
 468 266 468 266 468 210 c 0,44,45
 468 103 468 103 399 43 c 1,46,-1
 736 43 l 1,47,-1
 736 382 l 2,48,49
 736 392 736 392 748.5 398 c 128,-1,50
 761 404 761 404 776 404 c 256,51,52
 791 404 791 404 803.5 398 c 128,-1,53
 816 392 816 392 816 382 c 2,54,-1
 816 27 l 2,0,1
99 149 m 3,55,56
 99 75.6651515308 99 75.6651515308 140 54 c 0,57,58
 153.990743914 44.5 153.990743914 44.5 167.5 44.5 c 131,-1,59
 181.009256086 44.5 181.009256086 44.5 192.5 57.5 c 0,60,61
 204 70 204 70 207 91 c 0,62,63
 208 96 208 96 208 102 c 0,64,65
 208 118 208 118 200 134 c 8,66,67
 190 155 190 155 170 167.5 c 128,-1,68
 150 180 150 180 135.5 180 c 128,-1,69
 121 180 121 180 109.5 169.5 c 0,70,71
 99 159.049875621 99 159.049875621 99 149 c 3,55,56
EndSplineSet
EndChar

StartChar: u1132B
Encoding: 70443 70443 137
Width: 866
Flags: MW
LayerCount: 2
Fore
SplineSet
598 45 m 1,0,-1
 598 284 l 2,1,2
 598 364 598 364 652 394 c 0,3,4
 677 408 677 408 707 408 c 131,-1,5
 737 408 737 408 762.5 395 c 0,6,7
 786 383 786 383 805.5 357.5 c 0,8,9
 823 334 823 334 823 303 c 2,10,-1
 823 29 l 2,11,12
 823 15 823 15 805 7.5 c 128,-1,13
 787 0 787 0 767 0 c 2,14,-1
 253 0 l 1,15,-1
 253 45 l 1,16,17
 294 45 294 45 326 100 c 128,-1,19
 358 155 358 155 358 205 c 0,20,21
 358 251 358 251 338 285 c 0,22,23
 298 353 298 353 232 354 c 0,24,25
 162 354 162 354 112 300 c 0,26,27
 86 272 86 272 74 228 c 1,28,29
 87 232 87 232 101 232 c 0,30,31
 124 232 124 232 148 222 c 0,32,33
 187 206 187 206 214 155 c 16,34,35
 225 134 225 134 225 112 c 0,36,37
 225 100 225 100 222 88 c 0,38,39
 214 52 214 52 193.5 30.5 c 0,40,41
 173 8 173 8 145 2 c 0,42,43
 135 0 135 0 124 0 c 0,44,45
 78 0 78 0 41 52 c 0,46,47
 14 89 14 89 14 141 c 0,48,49
 14 238 14 238 50.5 295 c 128,-1,50
 87 352 87 352 134 380 c 128,-1,51
 181 408 181 408 234 408 c 0,52,53
 352 408 352 408 406 321 c 0,54,55
 436 272 436 272 437 219 c 0,56,57
 437 114 437 114 351 45 c 1,58,-1
 598 45 l 1,0,-1
646 45 m 1,59,-1
 746 45 l 1,60,-1
 746 313 l 2,61,62
 746 322 746 322 730.5 334.5 c 128,-1,63
 715 347 715 347 696 347 c 128,-1,64
 677 347 677 347 661.5 336.5 c 128,-1,65
 646 326 646 326 646 315 c 2,66,-1
 646 45 l 1,59,-1
132 182 m 0,67,68
 119 191 119 191 107 191 c 0,69,70
 92 191 92 191 78 174 c 0,71,72
 68 160 68 160 67.5 139 c 152,-1,73
 67 118 67 118 78.5 94.5 c 128,-1,74
 90 71 90 71 103 62.5 c 128,-1,75
 116 54 116 54 129 57 c 0,76,77
 158 64 158 64 168 100 c 0,78,79
 170 110 170 110 170 119 c 0,80,81
 170 156 170 156 132 182 c 0,67,68
EndSplineSet
EndChar

StartChar: u1132C
Encoding: 70444 70444 138
Width: 859
Flags: MW
LayerCount: 2
Fore
SplineSet
94 155 m 0,0,1
 94 121 94 121 105.5 92 c 128,-1,2
 117 63 117 63 130 53 c 128,-1,3
 143 43 143 43 156.5 43 c 128,-1,4
 170 43 170 43 181.5 55.5 c 128,-1,5
 193 68 193 68 198 90 c 0,6,7
 200 99 200 99 200 106 c 0,8,9
 200 142 200 142 163 166 c 0,10,11
 143 179 143 179 128 180 c 0,12,13
 118 180 118 180 108 174 c 0,14,15
 94 165 94 165 94 155 c 0,0,1
327 343 m 1,16,17
 362 410 362 410 434 410 c 0,18,19
 495 410 495 410 560 349 c 0,20,21
 620 292 620 292 620 206 c 0,22,23
 620 160 620 160 596.5 119.5 c 128,-1,24
 573 79 573 79 539 49 c 1,25,-1
 737 49 l 5,26,-1
 737 387 l 2,27,28
 737 398 737 398 746 404 c 128,-1,29
 755 410 755 410 765.5 410 c 128,-1,30
 776 410 776 410 785.5 404 c 128,-1,31
 795 398 795 398 795 387 c 2,32,-1
 795 25 l 2,33,34
 795 14 795 14 786 7 c 128,-1,35
 777 0 777 0 767 0 c 2,36,-1
 416 0 l 1,37,-1
 416 49 l 1,38,39
 474 49 474 49 510 100 c 0,40,41
 546 149 546 149 545 209 c 24,42,43
 544 284 544 284 500 328 c 0,44,45
 478 350 478 350 458 357 c 0,46,47
 444 362 444 362 430 362 c 0,48,49
 420 362 420 362 411 360 c 0,50,51
 391 355 391 355 376 332 c 0,52,53
 357 302 357 302 357 206 c 2,54,-1
 357 25 l 2,55,56
 357 14 357 14 348 7 c 128,-1,57
 339 0 339 0 328.5 0 c 128,-1,58
 318 0 318 0 308.5 6.5 c 128,-1,59
 299 13 299 13 299 25 c 2,60,-1
 299 207 l 2,61,62
 299 282 299 282 283.5 318 c 0,63,64
 268 353 268 353 254 359 c 0,65,66
 239 365 239 365 212.5 365 c 128,-1,67
 186 365 186 365 162 348.5 c 128,-1,68
 138 332 138 332 119.5 298 c 128,-1,69
 101 264 101 264 96 210 c 1,70,71
 109 216 109 216 131 217 c 0,72,73
 148 218 148 218 168 212 c 0,74,75
 210 200 210 200 230 162 c 16,76,77
 242 140 242 140 247 100 c 0,78,79
 248 92 248 92 246 84 c 0,80,81
 240 45 240 45 218.5 22.5 c 128,-1,82
 197 0 197 0 165 0 c 128,-1,83
 133 0 133 0 107.5 14.5 c 128,-1,84
 82 29 82 29 63.5 67.5 c 128,-1,85
 45 106 45 106 45 169.5 c 128,-1,86
 45 233 45 233 60.5 277 c 0,87,88
 79 328 79 328 100 353 c 0,89,90
 149.875 410 149.875 410 216 410 c 0,91,92
 280 410 280 410 327 343 c 1,16,17
EndSplineSet
EndChar

StartChar: u1132D
Encoding: 70445 70445 139
Width: 754
Flags: MW
LayerCount: 2
Fore
SplineSet
54 164.5 m 128,-1,1
 43 187 43 187 43 224.5 c 128,-1,2
 43 262 43 262 52 298 c 0,3,4
 72 370 72 370 132 398 c 0,5,6
 157 409 157 409 185 409 c 0,7,8
 269 408 269 408 311 366 c 0,9,10
 339 338 339 338 365 228 c 0,11,12
 374 190 374 190 391 180 c 128,-1,13
 408 170 408 170 422 170 c 128,-1,14
 436 170 436 170 447.5 188 c 128,-1,15
 459 206 459 206 459 227 c 0,16,17
 459 286 459 286 483.5 333 c 128,-1,18
 508 380 508 380 532.5 394.5 c 128,-1,19
 557 409 557 409 584 409 c 3,20,21
 630.671461915 409 630.671461915 409 682 332 c 0,22,23
 707 294 707 294 707 249.5 c 0,24,25
 707 206 707 206 695 158 c 0,26,27
 670 58 670 58 585 20 c 0,28,29
 540 0 540 0 477 0 c 2,30,-1
 45 0 l 2,31,32
 30 0 30 0 26 5 c 0,33,34
 19 16 19 16 19 22 c 128,-1,35
 19 28 19 28 27.5 35.5 c 128,-1,36
 36 43 36 43 51 43 c 2,37,-1
 496 43 l 2,38,39
 568 43 568 43 614 132 c 0,40,41
 636 175 636 175 636 255 c 0,42,43
 636 272 636 272 626 290 c 0,44,45
 604 330 604 330 574.5 329.5 c 128,-1,46
 545 329 545 329 527.5 291 c 128,-1,47
 510 253 510 253 510 224 c 128,-1,48
 510 195 510 195 500 170.5 c 128,-1,49
 490 146 490 146 481 133 c 0,50,51
 460 102 460 102 433 102 c 3,52,53
 385 102 385 102 350 137.5 c 128,-1,54
 315 173 315 173 309 223.5 c 24,55,56
 304 274 304 274 294 296 c 0,57,58
 274 342 274 342 237 356 c 0,59,60
 214 365 214 365 203 365 c 2,61,-1
 173 365 l 2,62,63
 159 365 159 365 140 343 c 0,64,65
 103 301 103 301 93 260 c 1,66,67
 112 272 112 272 134 272 c 0,68,69
 176 272 176 272 201 218 c 0,70,71
 215 187 215 187 215 161.5 c 128,-1,72
 215 136 215 136 201.5 122.5 c 0,73,74
 186 109 186 109 166 106 c 0,75,76
 158 105 158 105 151 104 c 0,77,78
 138 104 138 104 124 108 c 0,79,80
 103 114 103 114 84 128 c 128,-1,0
 65 142 65 142 54 164.5 c 128,-1,1
158 163 m 0,81,82
 158 187 158 187 148.5 202.5 c 128,-1,83
 139 218 139 218 127.5 223.5 c 128,-1,84
 116 229 116 229 104.5 224 c 0,85,86
 90.4251572327 217.880503145 90.4251572327 217.880503145 90 203 c 24,87,88
 90 187 90 187 102.5 173 c 0,89,90
 113 162 113 162 124 158 c 128,-1,91
 135 154 135 154 145.5 155.5 c 128,-1,92
 156 157 156 157 158 163 c 0,81,82
EndSplineSet
EndChar

StartChar: u1132E
Encoding: 70446 70446 140
Width: 508
Flags: MW
LayerCount: 2
Fore
SplineSet
338 106 m 0,0,1
 364 106 364 106 364 89 c 0,2,3
 364 43 364 43 310 13 c 0,4,5
 286 0 286 0 258 0 c 128,-1,6
 230 0 230 0 204 4 c 0,7,8
 147 14 147 14 130 65 c 0,9,10
 127 74 127 74 127 92 c 128,-1,11
 127 110 127 110 151 134 c 0,12,13
 192 174 192 174 258.5 210.5 c 128,-1,14
 325 247 325 247 347.5 264.5 c 128,-1,15
 370 282 370 282 370 294 c 0,16,17
 370 320 370 320 328 338 c 128,-1,18
 286 356 286 356 258 361 c 0,19,20
 242 364 242 364 225 364 c 0,21,22
 211 364 211 364 195 362 c 0,23,24
 160 358 160 358 135 345 c 1,25,26
 181 344 181 344 209 323.5 c 128,-1,27
 237 303 237 303 237 278.5 c 128,-1,28
 237 254 237 254 218 234 c 128,-1,29
 199 214 199 214 153 214 c 0,30,31
 110 214 110 214 76 235 c 0,32,33
 66 241 66 241 51.5 255.5 c 128,-1,34
 37 270 37 270 37 285 c 0,35,36
 37 322 37 322 68 350 c 128,-1,37
 99 378 99 378 142 392 c 128,-1,38
 185 406 185 406 236 406 c 128,-1,39
 287 406 287 406 336.5 393.5 c 0,40,41
 386 382 386 382 408 360 c 0,42,43
 452 316 452 316 452.5 290 c 128,-1,44
 453 264 453 264 435.5 244.5 c 128,-1,45
 418 225 418 225 391.5 211 c 128,-1,46
 365 197 365 197 332.5 185 c 128,-1,47
 300 173 300 173 283 165 c 128,-1,48
 266 157 266 157 220 130 c 0,49,50
 190 112 190 112 190 86 c 128,-1,51
 190 60 190 60 209 46.5 c 128,-1,52
 228 33 228 33 251.5 33 c 128,-1,53
 275 33 275 33 293.5 46.5 c 128,-1,54
 312 60 312 60 312 87 c 0,55,56
 312 96 312 96 320.5 101 c 128,-1,57
 329 106 329 106 338 106 c 0,0,1
102 298 m 0,58,59
 102 283 102 283 117.5 273 c 128,-1,60
 133 263 133 263 151 263 c 128,-1,61
 169 263 169 263 173.5 271.5 c 128,-1,62
 178 280 178 280 174.5 290.5 c 128,-1,63
 171 301 171 301 162 310.5 c 128,-1,64
 153 320 153 320 142 320 c 0,65,66
 104 320 104 320 102 298 c 0,58,59
EndSplineSet
EndChar

StartChar: u1132F
Encoding: 70447 70447 141
Width: 665
Flags: MW
LayerCount: 2
Fore
SplineSet
92 402 m 0,0,1
 122 402 122 402 121 385 c 2,2,-1
 121 142 l 2,3,4
 121 91 121 91 138.5 68.5 c 128,-1,5
 156 46 156 46 178.5 46 c 128,-1,6
 201 46 201 46 222 59.5 c 128,-1,7
 243 73 243 73 250 94 c 1,8,-1
 250 381 l 2,9,10
 250 403 250 403 279 403 c 0,11,12
 291 403 291 403 301.5 397.5 c 128,-1,13
 312 392 312 392 312 383 c 2,14,-1
 312 48 l 1,15,-1
 514 48 l 1,16,-1
 514 375 l 2,17,18
 514 386 514 386 526.5 391.5 c 128,-1,19
 539 397 539 397 554 397 c 256,20,21
 569 397 569 397 581.5 391.5 c 128,-1,22
 594 386 594 386 594 375 c 2,23,-1
 594 25 l 2,24,25
 594 15 594 15 587 10.5 c 128,-1,26
 580 6 580 6 567 3 c 128,-1,27
 554 0 554 0 553 0 c 2,28,-1
 288 0 l 6,29,30
 272 0 272 0 258 12 c 1,31,32
 235 0 235 0 196 0 c 128,-1,33
 157 0 157 0 129.5 13 c 128,-1,34
 102 26 102 26 81 59.5 c 128,-1,35
 60 93 60 93 60 140 c 2,36,-1
 60 381 l 2,37,38
 60 389 60 389 69 395.5 c 128,-1,39
 78 402 78 402 92 402 c 0,0,1
EndSplineSet
Validated: 33
EndChar

StartChar: u11330
Encoding: 70448 70448 142
Width: 520
Flags: MW
LayerCount: 2
Fore
SplineSet
51 380 m 1,0,1
 53 404 53 404 82 404 c 2,2,-1
 455 404 l 2,3,4
 465 404 465 404 470.5 396 c 128,-1,5
 476 388 476 388 476 379 c 128,-1,6
 476 370 476 370 470.5 362 c 128,-1,7
 465 354 465 354 455 354 c 2,8,-1
 381 354 l 1,9,-1
 381 60 l 1,10,11
 380 32 380 32 352 16 c 128,-1,12
 324 0 324 0 293 0 c 128,-1,13
 262 0 262 0 234 12 c 128,-1,14
 206 24 206 24 205 49 c 1,15,-1
 205 354 l 1,16,-1
 102 354 l 1,17,-1
 102 17 l 2,18,19
 102 0 102 0 82 0 c 0,20,21
 51 0 51 0 51 17 c 2,22,-1
 51 380 l 1,0,1
249 50 m 2,23,24
 249 39 249 39 257 33 c 128,-1,25
 265 27 265 27 274.5 27 c 128,-1,26
 284 27 284 27 293.5 33.5 c 128,-1,27
 303 40 303 40 303 53 c 2,28,-1
 303 354 l 1,29,-1
 249 354 l 1,30,-1
 249 50 l 2,23,24
EndSplineSet
EndChar

StartChar: u11332
Encoding: 70450 70450 143
Width: 665
Flags: MW
LayerCount: 2
Fore
SplineSet
243 262 m 0,0,1
 243 276 243 276 220 276 c 0,2,3
 212 276 212 276 205 271.5 c 128,-1,4
 198 267 198 267 198 263 c 0,5,6
 198 153 198 153 250 128 c 0,7,8
 262 122 262 122 274 122 c 128,-1,9
 286 122 286 122 298 128 c 0,10,11
 323 139 323 139 339 173 c 1,12,13
 356 139 356 139 383 131 c 0,14,15
 393 128 393 128 403 128 c 0,16,17
 420 128 420 128 436 136 c 0,18,19
 462 150 462 150 478.5 183 c 128,-1,20
 495 216 495 216 495 258.5 c 128,-1,21
 495 301 495 301 477 328 c 128,-1,22
 459 355 459 355 427.5 374 c 128,-1,23
 396 393 396 393 356 401.5 c 128,-1,24
 316 410 316 410 275 410 c 128,-1,25
 234 410 234 410 194 394 c 0,26,27
 110 362 110 362 76 282 c 0,28,29
 58 242 58 242 58 187 c 128,-1,30
 58 132 58 132 92.5 93.5 c 128,-1,31
 127 55 127 55 168 35 c 0,32,33
 240 0 240 0 313 0 c 0,34,35
 451 0 451 0 535 72 c 0,36,37
 580 112 580 112 595 149.5 c 128,-1,38
 610 187 610 187 610 239 c 0,39,40
 610 257 610 257 592 257 c 128,-1,41
 574 257 574 257 574 239 c 26,42,-1
 574 230 l 2,43,44
 574 164 574 164 502 108 c 0,45,46
 460 76 460 76 424 65 c 0,47,48
 356 47 356 47 328 47 c 24,49,50
 208 47 208 47 166 102 c 16,51,52
 134 144 134 144 134 194 c 0,53,54
 134 232 134 232 153 274 c 4,55,56
 173 320 173 320 203 334 c 0,57,58
 252 359 252 359 299 359 c 0,59,60
 322 359 322 359 346 352 c 0,61,62
 380 342 380 342 404 318 c 128,-1,63
 428 294 428 294 432 253 c 16,64,65
 433 241 433 241 433 230 c 0,66,67
 433 206 433 206 427 192 c 0,68,69
 419 172 419 172 404 172 c 128,-1,70
 389 172 389 172 375.5 196 c 128,-1,71
 362 220 362 220 362 263 c 1,72,-1
 310 263 l 1,73,74
 310 220 310 220 296.5 195 c 0,75,76
 284 170 284 170 272 170 c 128,-1,77
 260 170 260 170 251.5 192.5 c 128,-1,78
 243 215 243 215 243 262 c 0,0,1
EndSplineSet
Validated: 9
Position2: "Single Position lookup 0-1" dx=0 dy=0 dh=-80 dv=0
EndChar

StartChar: u11333
Encoding: 70451 70451 144
Width: 908
Flags: MW
LayerCount: 2
Fore
SplineSet
108 152 m 0,0,1
 108 123.097560976 108 123.097560976 122 91 c 24,2,3
 131 71 131 71 149 58 c 24,4,5
 163 48 163 48 181.5 48 c 0,6,7
 198 48 198 48 210 60 c 0,8,9
 224 71 224 71 224 88 c 0,10,11
 224 132 224 132 180 164 c 0,12,13
 162 176 162 176 149 176 c 128,-1,14
 136 176 136 176 122 170 c 128,-1,15
 108 164 108 164 108 152 c 0,0,1
820 47 m 2,16,17
 829 47 829 47 834.5 41 c 128,-1,18
 840 35 840 35 840 27.5 c 131,-1,19
 840 20 840 20 835 10 c 128,-1,20
 830 0 830 0 819 0 c 2,21,-1
 478 0 l 2,22,23
 453 0 453 0 442 20 c 0,24,25
 435 34 435 34 435 46 c 3,26,27
 435 75 435 75 476 96 c 0,28,29
 488 102 488 102 509 108 c 128,-1,30
 530 114 530 114 550 124 c 0,31,32
 590 144 590 144 598 165 c 0,33,34
 607 189 607 189 607 199 c 3,35,36
 607 278 607 278 558 325 c 0,37,38
 536 346 536 346 510 355 c 0,39,40
 497 359 497 359 484 359 c 3,41,42
 469 359 469 359 455 354 c 0,43,44
 426 344 426 344 416 323 c 0,45,46
 391 264 391 264 391 203 c 2,47,-1
 391 23 l 2,48,49
 391 12 391 12 381.5 6 c 128,-1,50
 372 0 372 0 360 0 c 0,51,52
 330 0 330 0 330 23 c 2,53,-1
 330 205 l 2,54,55
 330 302 330 302 286 336 c 0,56,57
 263 354 263 354 235 354 c 3,58,59
 206 354 206 354 180 339 c 0,60,61
 122 306 122 306 109 206 c 1,62,63
 124 214 124 214 142.5 214 c 128,-1,64
 161 214 161 214 181 208 c 0,65,66
 224 196 224 196 256 151 c 1,67,68
 270 112 270 112 270 79.5 c 131,-1,69
 270 47 270 47 243.5 23.5 c 128,-1,70
 217 0 217 0 184.5 0 c 131,-1,71
 152 0 152 0 123 14 c 0,72,73
 52 48 52 48 52 171 c 3,74,75
 52 285 52 285 112 351 c 0,76,77
 161 406 161 406 238 406 c 3,78,79
 272 406 272 406 302.5 388 c 128,-1,80
 333 370 333 370 354 338 c 1,81,82
 390 406 390 406 476 406 c 3,83,84
 510 406 510 406 547 390.5 c 128,-1,85
 584 375 584 375 611.5 348.5 c 128,-1,86
 639 322 639 322 657 284 c 0,87,88
 675 247 675 247 675 208 c 3,89,90
 675 168 675 168 658 146 c 0,91,92
 635 116 635 116 568.5 91 c 0,93,94
 558 87 558 87 500.46484375 72.9951171875 c 0,95,96
 492 71 492 71 485 66 c 24,97,98
 475 58 475 58 478 53 c 0,99,100
 483 47 483 47 497 47 c 2,101,-1
 820 47 l 2,16,17
EndSplineSet
EndChar

StartChar: u11335
Encoding: 70453 70453 145
Width: 665
Flags: MW
LayerCount: 2
Fore
SplineSet
85 159 m 0,0,1
 85 112 85 112 100 85 c 0,2,3
 120 41 120 41 158 41 c 0,4,5
 174 41 174 41 186 55 c 128,-1,6
 198 69 198 69 203 94 c 0,7,8
 204 101 204 101 204 107 c 0,9,10
 204 146 204 146 160 174 c 0,11,12
 140 186 140 186 125 186.5 c 128,-1,13
 110 187 110 187 97.5 179.5 c 128,-1,14
 85 172 85 172 85 159 c 0,0,1
281 0 m 1,15,-1
 281 47 l 1,16,17
 311 47 311 47 326.5 68.5 c 128,-1,18
 342 90 342 90 348 110.5 c 128,-1,19
 354 131 354 131 354 185 c 132,-1,20
 354 239 354 239 336 281 c 0,21,22
 323 309 323 309 296.5 328.5 c 128,-1,23
 270 348 270 348 239.5 348 c 128,-1,24
 209 348 209 348 180.5 336.5 c 128,-1,25
 152 325 152 325 127.5 296 c 128,-1,26
 103 267 103 267 92 221 c 1,27,28
 108 227 108 227 127.5 227 c 0,29,30
 146 226 146 226 166 220 c 0,31,32
 218 204 218 204 243 159 c 16,33,34
 255 138 255 138 254 111 c 0,35,36
 254 100 254 100 252 90 c 0,37,38
 246 50 246 50 221 25 c 128,-1,39
 196 0 196 0 164.5 0 c 128,-1,40
 133 0 133 0 106 10.5 c 128,-1,41
 79 21 79 21 55 56.5 c 128,-1,42
 31 92 31 92 31 162 c 128,-1,43
 31 232 31 232 59.5 286 c 128,-1,44
 88 340 88 340 133 371.5 c 128,-1,45
 178 403 178 403 230.5 403 c 128,-1,46
 283 403 283 403 327 385 c 128,-1,47
 371 367 371 367 405.5 322 c 128,-1,48
 440 277 440 277 440 210 c 0,49,50
 440 175 440 175 427.5 126 c 128,-1,51
 415 77 415 77 386 47 c 1,52,-1
 540 47 l 1,53,-1
 540 383 l 2,54,55
 540 394 540 394 550 400 c 128,-1,56
 560 406 560 406 571.5 406 c 128,-1,57
 583 406 583 406 593.5 399.5 c 128,-1,58
 604 393 604 393 604 382 c 2,59,-1
 604 28 l 2,60,61
 604 5 604 5 587 0 c 1,62,-1
 281 0 l 1,15,-1
EndSplineSet
Validated: 33
EndChar

StartChar: u11336
Encoding: 70454 70454 146
Width: 763
Flags: MW
LayerCount: 2
Fore
SplineSet
453 113 m 2,0,1
 453 83 453 83 472 68 c 0,2,3
 487 53 487 53 505 53 c 0,4,5
 522 53 522 53 538 64 c 0,6,7
 556 80 556 80 557 101 c 2,8,-1
 557 357 l 1,9,-1
 453 357 l 1,10,-1
 453 113 l 2,0,1
686 409 m 2,11,12
 706 409 706 409 706 383 c 128,-1,13
 706 357 706 357 686 357 c 2,14,-1
 626 357 l 1,15,-1
 626 100 l 2,16,17
 626 64 626 64 601.5 40.5 c 128,-1,18
 577 17 577 17 553.5 8.5 c 128,-1,19
 530 0 530 0 500.5 0 c 0,20,21
 470 0 470 0 446 20 c 0,22,23
 398 58 398 58 399 132 c 2,24,-1
 399 357 l 1,25,-1
 357 357 l 2,26,27
 323 357 323 357 308.5 346.5 c 128,-1,28
 294 336 294 336 294 311 c 2,29,-1
 294 134 l 2,30,31
 294 95 294 95 272.5 63 c 128,-1,32
 251 31 251 31 223 15.5 c 128,-1,33
 195 0 195 0 162.5 0 c 128,-1,34
 130 0 130 0 102 14 c 0,35,36
 37 48 37 48 37 130 c 2,37,-1
 37 387 l 2,38,39
 37 395 37 395 44 399.5 c 128,-1,40
 51 404 51 404 60.5 404 c 128,-1,41
 70 404 70 404 78.5 399.5 c 128,-1,42
 87 395 87 395 87 387 c 2,43,-1
 87 134 l 2,44,45
 87 91 87 91 110 70.5 c 128,-1,46
 133 50 133 50 161 50 c 128,-1,47
 189 50 189 50 208.5 70 c 128,-1,48
 228 90 228 90 228 134 c 2,49,-1
 228 252 l 2,50,51
 228 306 228 306 238 339 c 0,52,53
 259 409 259 409 360 409 c 2,54,-1
 686 409 l 2,11,12
EndSplineSet
EndChar

StartChar: u11337
Encoding: 70455 70455 147
Width: 999
Flags: MW
LayerCount: 2
Fore
SplineSet
857 196 m 1,0,1
 811 171 811 171 760 163 c 1,2,-1
 760 52 l 1,3,-1
 857 52 l 1,4,-1
 857 196 l 1,0,1
691 242 m 2,5,6
 691 346 691 346 662 360 c 0,7,8
 648 366 648 366 634 350 c 0,9,10
 616 334 616 334 616 295.5 c 128,-1,11
 616 257 616 257 637.5 235.5 c 128,-1,12
 659 214 659 214 691 209 c 1,13,-1
 691 242 l 2,5,6
95 151 m 0,14,15
 96 84 96 84 136 59 c 0,16,17
 152 49 152 49 169.5 49 c 128,-1,18
 187 49 187 49 201.5 58.5 c 128,-1,19
 216 68 216 68 216 89 c 0,20,21
 216 137 216 137 178 166 c 0,22,23
 153 185 153 185 133 185 c 0,24,25
 120 184 120 184 109 176 c 0,26,27
 95 166 95 166 95 151 c 0,14,15
724 -103 m 0,28,29
 692 -103 692 -103 692 -86 c 0,30,31
 692 -43 692 -43 692 0 c 1,32,33
 500 0 500 0 308 0 c 1,34,-1
 308 52 l 1,35,-1
 333 52 l 2,36,37
 368 52 368 52 382 86 c 0,38,39
 398 122 398 122 397 211 c 0,40,41
 397 253 397 253 379.5 284 c 128,-1,42
 362 315 362 315 334.5 333 c 128,-1,43
 307 351 307 351 273 351 c 128,-1,44
 239 351 239 351 206.5 339 c 128,-1,45
 174 327 174 327 147 297.5 c 128,-1,46
 120 268 120 268 105 221 c 1,47,48
 118 224 118 224 131 224 c 0,49,50
 160 224 160 224 190 211 c 0,51,52
 238 190 238 190 263 139 c 0,53,54
 275 115 275 115 275 93 c 0,55,56
 276 54 276 54 238 22 c 0,57,58
 212 0 212 0 175 0 c 128,-1,59
 138 0 138 0 109 11.5 c 128,-1,60
 80 23 80 23 58 59.5 c 128,-1,61
 36 96 36 96 36 168 c 128,-1,62
 36 240 36 240 70 294 c 0,63,64
 103 348 103 348 152 378.5 c 128,-1,65
 201 409 201 409 257 409 c 0,66,67
 382 409 382 409 446 324 c 0,68,69
 483 277 483 277 483 214 c 0,70,71
 483 122 483 122 464 89 c 128,-1,72
 445 56 445 56 440 52 c 1,73,-1
 692 52 l 1,74,-1
 692 162 l 1,75,76
 637 168 637 168 598.5 201.5 c 128,-1,77
 560 235 560 235 560 303 c 0,78,79
 560 338 560 338 577 362.5 c 0,80,81
 594 386 594 386 618 396 c 0,82,83
 635 403 635 403 654 403 c 0,84,85
 662 403 662 403 670 402 c 0,86,87
 728 394 728 394 754 326 c 0,88,89
 760 310 760 310 761 215 c 1,90,91
 804 216 804 216 872 284 c 0,92,93
 884 296 884 296 895 295.5 c 0,94,95
 906 296 906 296 914 292 c 0,96,97
 936 283 936 283 937 272 c 2,98,-1
 937 0 l 1,99,-1
 760 0 l 1,100,-1
 760 -86 l 2,101,102
 760 -95 760 -95 747.5 -99 c 128,-1,103
 735 -103 735 -103 724 -103 c 0,28,29
EndSplineSet
PairPos2: "'dist' Distance lookup for overhang 2-1" uE323 dx=0 dy=0 dh=0 dv=0 dx=0 dy=-80 dh=0 dv=0
PairPos2: "'dist' Distance lookup for overhang 2-1" uE335 dx=0 dy=0 dh=0 dv=0 dx=0 dy=-80 dh=0 dv=0
PairPos2: "'dist' Distance lookup for overhang 2-1" uE32B dx=0 dy=0 dh=0 dv=0 dx=0 dy=-80 dh=0 dv=0
PairPos2: "'dist' Distance lookup for overhang 2-1" uE32A dx=0 dy=0 dh=0 dv=0 dx=0 dy=-80 dh=0 dv=0
PairPos2: "'dist' Distance lookup for overhang 2-1" uE320 dx=0 dy=0 dh=0 dv=0 dx=0 dy=-80 dh=0 dv=0
PairPos2: "'dist' Distance lookup for overhang 2-1" uE315 dx=0 dy=0 dh=0 dv=0 dx=0 dy=-80 dh=0 dv=0
Position2: "Single Position lookup 0-1" dx=0 dy=0 dh=-50 dv=0
EndChar

StartChar: u11338
Encoding: 70456 70456 148
Width: 875
Flags: MW
LayerCount: 2
Fore
SplineSet
164 350 m 0,0,1
 114 295 114 295 97 248 c 16,2,3
 85 213 85 213 85 193 c 0,4,5
 85 187 85 187 86 182 c 1,6,7
 96 186 96 186 109 186 c 0,8,9
 118 186 118 186 128 184 c 0,10,11
 172 175 172 175 197 135 c 0,12,13
 210 115 210 115 211 88 c 0,14,15
 212 64 212 64 198 38 c 0,16,17
 179 2 179 2 141 -1 c 0,18,19
 130 -2 130 -2 118 2 c 0,20,21
 96 8 96 8 76 32 c 0,22,23
 34 82 34 82 34 188 c 0,24,25
 34 256 34 256 84 324 c 0,26,27
 117 370 117 370 151 385 c 0,28,29
 189 403 189 403 220 403 c 0,30,31
 257 403 257 403 285 377 c 0,32,33
 358 309 358 309 365 211 c 0,34,35
 368 167 368 167 369 144 c 0,36,37
 370 131 370 131 368 125 c 0,38,39
 358 81 358 81 317 55 c 1,40,-1
 451 55 l 1,41,-1
 451 273 l 2,42,43
 451 335 451 335 482 374 c 0,44,45
 509 408 509 408 547 408 c 0,46,47
 582 408 582 408 616 370 c 0,48,49
 632 352 632 352 643 323.5 c 128,-1,50
 654 295 654 295 654 266 c 2,51,-1
 654 91 l 2,52,53
 654 46 654 46 690 46 c 0,54,55
 747 46 747 46 762 198 c 0,56,57
 764 218 764 218 764 237 c 0,58,59
 764 266 764 266 759 290 c 0,60,61
 743 366 743 366 714 372 c 0,62,63
 694 376 694 376 696 389 c 0,64,65
 698 406 698 406 714 406 c 0,66,67
 773 406 773 406 805 307 c 0,68,69
 817 269 817 269 817 215 c 0,70,71
 817 207 817 207 817 199 c 0,72,73
 811 0 811 0 693 0 c 0,74,75
 601 0 601 0 601 89 c 2,76,-1
 601 273 l 2,77,78
 601 318 601 318 586.5 341 c 128,-1,79
 572 364 572 364 555 365 c 0,80,-1
 554 364 l 0,81,82
 537 364 537 364 523.5 342 c 128,-1,83
 510 320 510 320 510 273 c 2,84,-1
 510 25 l 2,85,86
 510 11 510 11 481 0 c 1,87,-1
 254 0 l 1,88,-1
 254 53 l 1,89,90
 290 64 290 64 300 100 c 0,91,92
 312 143 312 143 309 176 c 0,93,94
 308 187 308 187 308 199 c 0,95,96
 306 261 306 261 293 292 c 128,-1,97
 280 323 280 323 259 340.5 c 0,98,99
 232 363 232 363 208 362 c 0,100,101
 203 362 203 362 198 362 c 0,102,103
 177 363 177 363 164 350 c 0,0,1
126 154 m 0,104,105
 121 155 121 155 117 155 c 0,106,107
 97 155 97 155 91 128 c 0,108,109
 89 119 89 119 89 111 c 0,110,111
 89 88 89 88 105 66 c 0,112,113
 119 45 119 45 133 46 c 0,114,115
 142 46 142 46 152 55 c 0,116,117
 165 69 165 69 165 91 c 0,118,119
 165 106 165 106 158 126 c 0,120,121
 153 140 153 140 144.5 146 c 128,-1,122
 136 152 136 152 126 154 c 0,104,105
EndSplineSet
EndChar

StartChar: u11339
Encoding: 70457 70457 149
Width: 996
Flags: MW
LayerCount: 2
Fore
SplineSet
675 354 m 1,0,1
 718 401 718 401 780 401 c 0,2,3
 888 402 888 402 924 296 c 0,4,5
 938 258 938 258 938 216 c 128,-1,6
 938 174 938 174 924 139 c 128,-1,7
 910 104 910 104 873 72 c 0,8,9
 788 -1 788 -1 593 0 c 2,10,-1
 139 0 l 2,11,12
 121 0 121 0 109.5 -5 c 128,-1,13
 98 -10 98 -10 98 -16 c 128,-1,14
 98 -22 98 -22 107 -27.5 c 128,-1,15
 116 -33 116 -33 133 -33 c 128,-1,16
 150 -33 150 -33 157 -42 c 128,-1,17
 164 -51 164 -51 164 -57 c 128,-1,18
 164 -63 164 -63 157 -72 c 128,-1,19
 150 -81 150 -81 137 -81 c 0,20,21
 99 -81 99 -81 78.5 -71 c 128,-1,22
 58 -61 58 -61 52.5 -50.5 c 128,-1,23
 47 -40 47 -40 47 -21.5 c 0,24,25
 47 -4 47 -4 62 12 c 0,26,27
 96 48 96 48 139 48 c 26,28,-1
 593 48 l 2,29,30
 654 48 654 48 702 64 c 0,31,32
 790 94 790 94 824 150 c 0,33,34
 846 186 846 186 846 204 c 0,35,36
 846 272 846 272 826 307.5 c 0,37,38
 806 344 806 344 780 352 c 0,39,40
 772 355 772 355 764 354 c 0,41,42
 746 354 746 354 726 341 c 0,43,44
 698 322 698 322 699 274 c 2,45,-1
 699 112 l 2,46,47
 699 101 699 101 688 94.5 c 128,-1,48
 677 88 677 88 664.5 88 c 128,-1,49
 652 88 652 88 640.5 94.5 c 128,-1,50
 629 101 629 101 629 112 c 2,51,-1
 629 255 l 2,52,53
 629 284 629 284 617.5 304.5 c 128,-1,54
 606 325 606 325 593.5 327 c 128,-1,55
 581 329 581 329 570 319.5 c 128,-1,56
 559 310 559 310 559 287 c 2,57,-1
 559 110 l 2,58,59
 559 101 559 101 547.5 94.5 c 128,-1,60
 536 88 536 88 522 88 c 2,61,-1
 240 88 l 2,62,63
 223 88 223 88 223 101 c 2,64,-1
 223 122 l 2,65,66
 223 136 223 136 246 136 c 0,67,68
 254 136 254 136 267 142 c 128,-1,69
 280 148 280 148 290 158 c 0,70,71
 312 182 312 182 311.5 229 c 128,-1,72
 311 276 311 276 287.5 304 c 128,-1,73
 264 332 264 332 232 338 c 0,74,75
 222 340 222 340 212 341 c 0,76,77
 190 342 190 342 168 332 c 0,78,79
 135 318 135 318 117 281 c 1,80,81
 130 284 130 284 143 284 c 0,82,83
 172 284 172 284 198 269 c 0,84,85
 240 245 240 245 239.5 204.5 c 128,-1,86
 239 164 239 164 224.5 142.5 c 128,-1,87
 210 121 210 121 189 113 c 128,-1,88
 168 105 168 105 143 105 c 0,89,90
 92 106 92 106 60 152 c 0,91,92
 44 174 44 174 44.5 219 c 128,-1,93
 45 264 45 264 59.5 298.5 c 128,-1,94
 74 333 74 333 98 355.5 c 128,-1,95
 122 378 122 378 152 389.5 c 128,-1,96
 182 401 182 401 214 401 c 128,-1,97
 246 401 246 401 276.5 389.5 c 128,-1,98
 307 378 307 378 331 356 c 0,99,100
 386 307 386 307 388 229 c 0,101,102
 388 172 388 172 350 136 c 1,103,-1
 504 136 l 1,104,-1
 504 289 l 2,105,106
 504 330 504 330 523.5 357 c 128,-1,107
 543 384 543 384 570 394 c 0,108,109
 584 399 584 399 598 399 c 0,110,111
 612 398 612 398 626 394 c 0,112,113
 655 384 655 384 675 354 c 1,0,1
113 234.5 m 128,-1,115
 100 223 100 223 100 198 c 128,-1,116
 100 173 100 173 113 157.5 c 128,-1,117
 126 142 126 142 142 142 c 128,-1,118
 158 142 158 142 170.5 154.5 c 128,-1,119
 183 167 183 167 183 195 c 128,-1,120
 183 223 183 223 170.5 234.5 c 128,-1,121
 158 246 158 246 142 246 c 128,-1,114
 126 246 126 246 113 234.5 c 128,-1,115
EndSplineSet
EndChar

StartChar: u1133D
Encoding: 70461 70461 150
Width: 409
Flags: MW
LayerCount: 2
Fore
SplineSet
326 409 m 0,0,1
 354 409 354 409 354 384 c 0,2,3
 354 376 354 376 337.5 375 c 0,4,5
 322 374 322 374 282 374 c 2,6,-1
 201 374 l 2,7,8
 160 374 160 374 135.5 371 c 128,-1,9
 111 368 111 368 101.5 357.5 c 128,-1,10
 92 347 92 347 92 324.5 c 128,-1,11
 92 302 92 302 119.5 286.5 c 128,-1,12
 147 271 147 271 181 256.5 c 128,-1,13
 215 242 215 242 252 225.5 c 0,14,15
 288 209 288 209 320 188 c 0,16,17
 392 140 392 140 392 79 c 0,18,19
 392 51 392 51 367 33 c 128,-1,20
 342 15 342 15 303.5 7.5 c 128,-1,21
 265 0 265 0 220 0 c 0,22,23
 128 0 128 0 62 47 c 0,24,25
 24 75 24 75 24 103 c 0,26,27
 24 115 24 115 27.5 119 c 128,-1,28
 31 123 31 123 43 123 c 128,-1,29
 55 123 55 123 56 116 c 0,30,31
 62 72 62 72 126 52 c 0,32,33
 164 40 164 40 205 40 c 0,34,35
 224 40 224 40 244 42 c 0,36,37
 271 46 271 46 289 56 c 128,-1,38
 307 66 307 66 308 80 c 5,39,40
 308 103 308 103 288 121 c 128,-1,41
 268 139 268 139 238 155.5 c 128,-1,42
 208 172 208 172 173 188.5 c 0,43,44
 138 206 138 206 108 224 c 0,45,46
 35 270 35 270 35 326 c 0,47,48
 36 354 36 354 54 376 c 0,49,50
 84 410 84 410 186 410 c 0,51,52
 240 408 240 408 326 409 c 0,0,1
EndSplineSet
Validated: 33
EndChar

StartChar: u1133E
Encoding: 70462 70462 151
Width: 379
Flags: MW
LayerCount: 2
Fore
SplineSet
24 377 m 2,0,1
 24 399 24 399 60 399 c 2,2,-1
 330 399 l 2,3,4
 343 399 343 399 349 392 c 128,-1,5
 355 385 355 385 355 376.5 c 128,-1,6
 355 368 355 368 349 360.5 c 128,-1,7
 343 353 343 353 330 353 c 2,8,-1
 321 353 l 1,9,-1
 321 25 l 2,10,11
 321 14 321 14 307 7 c 128,-1,12
 293 0 293 0 276 0 c 128,-1,13
 259 0 259 0 245 6.5 c 128,-1,14
 231 13 231 13 231 25 c 2,15,-1
 231 353 l 1,16,-1
 80 353 l 1,17,-1
 80 23 l 2,18,19
 80 0 80 0 52 0 c 0,20,21
 42 0 42 0 33 6 c 128,-1,22
 24 12 24 12 24 25 c 2,23,-1
 24 377 l 2,0,1
EndSplineSet
Validated: 1
Substitution2: "Accent marker rearrangement single substitution 56-1" u11301
Substitution2: "Accent marker rearrangement single substitution 3-1" u1CF4
Substitution2: "Accent marker rearrangement single substitution 2-1" u0952
Substitution2: "Accent marker rearrangement single substitution 1-1" u0951
EndChar

StartChar: u1133F
Encoding: 70463 70463 152
Width: 145
Flags: MW
LayerCount: 2
Fore
SplineSet
-100 413 m 0,0,1
 -79 413 -79 413 -79 389 c 0,2,3
 -79 380 -79 380 -86.5 373 c 128,-1,4
 -94 366 -94 366 -104 366 c 0,5,6
 -225 366 -225 366 -256 417 c 0,7,8
 -266 433 -266 433 -266 456 c 0,9,10
 -266 490 -266 490 -232.5 526 c 128,-1,11
 -199 562 -199 562 -146.5 562 c 128,-1,12
 -94 562 -94 562 -51 547 c 128,-1,13
 -8 532 -8 532 24 501 c 0,14,15
 89 438 89 438 89 315 c 2,16,-1
 89 19 l 2,17,18
 89 10 89 10 79 5 c 128,-1,19
 69 0 69 0 57 0 c 256,20,21
 45 0 45 0 34.5 5 c 128,-1,22
 24 10 24 10 24 19 c 2,23,-1
 24 318 l 2,24,25
 24 463 24 463 -74 492 c 0,26,27
 -104 501 -104 501 -140.5 501 c 128,-1,28
 -177 501 -177 501 -196 483.5 c 128,-1,29
 -215 466 -215 466 -215 444.5 c 0,30,31
 -215 435 -215 435 -187 414.5 c 0,32,33
 -185 413 -185 413 -100 413 c 0,0,1
EndSplineSet
Substitution2: "Accent marker rearrangement single substitution 57-1" u11301
Substitution2: "Accent marker rearrangement single substitution 6-1" u1CF4
Substitution2: "Accent marker rearrangement single substitution 5-1" u0952
Substitution2: "Accent marker rearrangement single substitution 4-1" u0951
Substitution2: "Vowel marker rearrangement single substitution 3-1" uE482
Substitution2: "Vowel marker rearrangement single substitution 2-1" uE481
Substitution2: "Vowel marker rearrangement single substitution 1-1" uE480
Substitution2: "Single Substitution lookup 6-1" uE20A
Substitution2: "Single Substitution lookup 4-1" uE209
Substitution2: "Single Substitution lookup 5-1" uE207
Substitution2: "Single substitution lookup 3-1" uE208
EndChar

